<svg width="45" height="15" viewBox="0 0 45 15" fill="none" xmlns="http://www.w3.org/2000/svg">
<path d="M0.72 3V0.419999H5.54V15H2.66V3H0.72ZM8.30609 7.52C8.30609 5.21333 8.71943 3.40667 9.54609 2.1C10.3861 0.793333 11.7728 0.139999 13.7061 0.139999C15.6394 0.139999 17.0194 0.793333 17.8461 2.1C18.6861 3.40667 19.1061 5.21333 19.1061 7.52C19.1061 9.84 18.6861 11.66 17.8461 12.98C17.0194 14.3 15.6394 14.96 13.7061 14.96C11.7728 14.96 10.3861 14.3 9.54609 12.98C8.71943 11.66 8.30609 9.84 8.30609 7.52ZM16.3461 7.52C16.3461 6.53333 16.2794 5.70667 16.1461 5.04C16.0261 4.36 15.7728 3.80667 15.3861 3.38C15.0128 2.95333 14.4528 2.74 13.7061 2.74C12.9594 2.74 12.3928 2.95333 12.0061 3.38C11.6328 3.80667 11.3794 4.36 11.2461 5.04C11.1261 5.70667 11.0661 6.53333 11.0661 7.52C11.0661 8.53333 11.1261 9.38667 11.2461 10.08C11.3661 10.76 11.6194 11.3133 12.0061 11.74C12.3928 12.1533 12.9594 12.36 13.7061 12.36C14.4528 12.36 15.0194 12.1533 15.4061 11.74C15.7928 11.3133 16.0461 10.76 16.1661 10.08C16.2861 9.38667 16.3461 8.53333 16.3461 7.52ZM21.2358 7.52C21.2358 5.21333 21.6491 3.40667 22.4758 2.1C23.3158 0.793333 24.7024 0.139999 26.6358 0.139999C28.5691 0.139999 29.9491 0.793333 30.7758 2.1C31.6158 3.40667 32.0358 5.21333 32.0358 7.52C32.0358 9.84 31.6158 11.66 30.7758 12.98C29.9491 14.3 28.5691 14.96 26.6358 14.96C24.7024 14.96 23.3158 14.3 22.4758 12.98C21.6491 11.66 21.2358 9.84 21.2358 7.52ZM29.2758 7.52C29.2758 6.53333 29.2091 5.70667 29.0758 5.04C28.9558 4.36 28.7024 3.80667 28.3158 3.38C27.9424 2.95333 27.3824 2.74 26.6358 2.74C25.8891 2.74 25.3224 2.95333 24.9358 3.38C24.5624 3.80667 24.3091 4.36 24.1758 5.04C24.0558 5.70667 23.9958 6.53333 23.9958 7.52C23.9958 8.53333 24.0558 9.38667 24.1758 10.08C24.2958 10.76 24.5491 11.3133 24.9358 11.74C25.3224 12.1533 25.8891 12.36 26.6358 12.36C27.3824 12.36 27.9491 12.1533 28.3358 11.74C28.7224 11.3133 28.9758 10.76 29.0958 10.08C29.2158 9.38667 29.2758 8.53333 29.2758 7.52ZM44.9455 9.1H41.1655V12.98H38.5255V9.1H34.7455V6.66H38.5255V2.78H41.1655V6.66H44.9455V9.1Z" fill="white"/>
</svg>
