<svg width="39" height="19" viewBox="0 0 39 19" fill="none" xmlns="http://www.w3.org/2000/svg">
<path d="M5.85 6.475C7 6.475 8.025 6.75 8.925 7.3C9.84167 7.85 10.5417 8.58333 11.025 9.5C11.525 10.4 11.775 11.3583 11.775 12.375C11.775 13.4083 11.525 14.375 11.025 15.275C10.5417 16.175 9.85 16.9 8.95 17.45C8.05 17.9833 7.01667 18.25 5.85 18.25C4.41667 18.25 3.175 17.8333 2.125 17C1.075 16.1667 0.391667 15.1 0.075 13.8L2.25 12.825C2.45 13.7083 2.875 14.4417 3.525 15.025C4.19167 15.6083 4.96667 15.9 5.85 15.9C6.86667 15.9 7.7 15.5667 8.35 14.9C9.01667 14.2167 9.35 13.375 9.35 12.375C9.35 11.3417 9.00833 10.4833 8.325 9.8C7.64167 9.11667 6.75833 8.775 5.675 8.775C4.99167 8.775 4.36667 8.925 3.8 9.225C3.23333 9.525 2.75 9.925 2.35 10.425L0.95 10.15L3.05 0.499999H10.225V2.8H4.85L4.05 6.775C4.65 6.575 5.25 6.475 5.85 6.475ZM19.6428 18.25C17.6761 18.25 16.2344 17.4167 15.3178 15.75C14.4011 14.0833 13.9428 11.9167 13.9428 9.25C13.9428 6.58333 14.4011 4.41667 15.3178 2.75C16.2344 1.08333 17.6761 0.249999 19.6428 0.249999C21.6094 0.249999 23.0428 1.08333 23.9428 2.75C24.8594 4.41667 25.3178 6.58333 25.3178 9.25C25.3178 11.9167 24.8594 14.0833 23.9428 15.75C23.0428 17.4167 21.6094 18.25 19.6428 18.25ZM19.6428 15.9C20.8428 15.9 21.6928 15.275 22.1928 14.025C22.7094 12.7583 22.9678 11.1667 22.9678 9.25C22.9678 7.35 22.7094 5.76667 22.1928 4.5C21.6928 3.23333 20.8428 2.6 19.6428 2.6C18.4261 2.6 17.5594 3.23333 17.0428 4.5C16.5428 5.75 16.2928 7.33333 16.2928 9.25C16.2928 11.1667 16.5428 12.7583 17.0428 14.025C17.5594 15.275 18.4261 15.9 19.6428 15.9ZM33.217 18.25C31.2503 18.25 29.8087 17.4167 28.892 15.75C27.9753 14.0833 27.517 11.9167 27.517 9.25C27.517 6.58333 27.9753 4.41667 28.892 2.75C29.8087 1.08333 31.2503 0.249999 33.217 0.249999C35.1837 0.249999 36.617 1.08333 37.517 2.75C38.4337 4.41667 38.892 6.58333 38.892 9.25C38.892 11.9167 38.4337 14.0833 37.517 15.75C36.617 17.4167 35.1837 18.25 33.217 18.25ZM33.217 15.9C34.417 15.9 35.267 15.275 35.767 14.025C36.2837 12.7583 36.542 11.1667 36.542 9.25C36.542 7.35 36.2837 5.76667 35.767 4.5C35.267 3.23333 34.417 2.6 33.217 2.6C32.0003 2.6 31.1337 3.23333 30.617 4.5C30.117 5.75 29.867 7.33333 29.867 9.25C29.867 11.1667 30.117 12.7583 30.617 14.025C31.1337 15.275 32.0003 15.9 33.217 15.9Z" fill="#EBFF00"/>
</svg>
