<svg width="23" height="23" viewBox="0 0 23 23" fill="none" xmlns="http://www.w3.org/2000/svg">
<g clip-path="url(#clip0_421_3666)">
<path d="M20.125 0H2.875C2.08042 0 1.4375 0.642922 1.4375 1.4375V21.5625C1.4375 22.3571 2.08042 23 2.875 23H10.0625V17.25H12.9375V23H20.125C20.9196 23 21.5625 22.3571 21.5625 21.5625V1.4375C21.5625 0.642922 20.9196 0 20.125 0ZM10.0625 14.375H7.1875V11.5H10.0625V14.375ZM10.0625 8.625H7.1875V5.75H10.0625V8.625ZM15.8125 14.375H12.9375V11.5H15.8125V14.375ZM15.8125 8.625H12.9375V5.75H15.8125V8.625Z" fill="#1A9E75"/>
<path d="M9.71605 4L9.27805 3.205H9.15505V4H8.64205V1.894H9.50305C9.66905 1.894 9.81005 1.923 9.92605 1.981C10.0441 2.039 10.1321 2.119 10.1901 2.221C10.2481 2.321 10.2771 2.433 10.2771 2.557C10.2771 2.697 10.2371 2.822 10.1571 2.932C10.0791 3.042 9.96305 3.12 9.80905 3.166L10.2951 4H9.71605ZM9.15505 2.842H9.47305C9.56705 2.842 9.63705 2.819 9.68305 2.773C9.73105 2.727 9.75505 2.662 9.75505 2.578C9.75505 2.498 9.73105 2.435 9.68305 2.389C9.63705 2.343 9.56705 2.32 9.47305 2.32H9.15505V2.842ZM12.1141 1.894V2.305H11.5561V4H11.0431V2.305H10.4851V1.894H12.1141ZM13.3675 4.021C13.1695 4.021 12.9875 3.975 12.8215 3.883C12.6575 3.791 12.5265 3.663 12.4285 3.499C12.3325 3.333 12.2845 3.147 12.2845 2.941C12.2845 2.735 12.3325 2.55 12.4285 2.386C12.5265 2.222 12.6575 2.094 12.8215 2.002C12.9875 1.91 13.1695 1.864 13.3675 1.864C13.5655 1.864 13.7465 1.91 13.9105 2.002C14.0765 2.094 14.2065 2.222 14.3005 2.386C14.3965 2.55 14.4445 2.735 14.4445 2.941C14.4445 3.147 14.3965 3.333 14.3005 3.499C14.2045 3.663 14.0745 3.791 13.9105 3.883C13.7465 3.975 13.5655 4.021 13.3675 4.021ZM13.3675 3.553C13.5355 3.553 13.6695 3.497 13.7695 3.385C13.8715 3.273 13.9225 3.125 13.9225 2.941C13.9225 2.755 13.8715 2.607 13.7695 2.497C13.6695 2.385 13.5355 2.329 13.3675 2.329C13.1975 2.329 13.0615 2.384 12.9595 2.494C12.8595 2.604 12.8095 2.753 12.8095 2.941C12.8095 3.127 12.8595 3.276 12.9595 3.388C13.0615 3.498 13.1975 3.553 13.3675 3.553Z" fill="#F0FFFA"/>
</g>
<defs>
<clipPath id="clip0_421_3666">
<rect width="23" height="23" fill="white"/>
</clipPath>
</defs>
</svg>
