<svg width="28" height="28" viewBox="0 0 28 28" fill="none" xmlns="http://www.w3.org/2000/svg">
<path d="M6.44612 13.5336C5.41974 13.5336 4.57974 14.3736 4.57974 15.4C4.57974 16.4264 5.41974 17.2664 6.44612 17.2664C7.47249 17.2664 8.31249 16.4264 8.31249 15.4C8.31249 14.3736 7.47249 13.5336 6.44612 13.5336ZM6.44612 16.3336C5.93249 16.3336 5.51249 15.9136 5.51249 15.4C5.51249 14.8864 5.93249 14.4664 6.44612 14.4664C6.95974 14.4664 7.37974 14.8864 7.37974 15.4C7.37974 15.9136 6.95974 16.3336 6.44612 16.3336Z" fill="#1A9E75"/>
<path d="M21.3789 13.5336C20.3525 13.5336 19.5125 14.3736 19.5125 15.4C19.5125 16.4264 20.3525 17.2664 21.3789 17.2664C22.4053 17.2664 23.2453 16.4264 23.2453 15.4C23.2453 14.3736 22.4053 13.5336 21.3789 13.5336ZM21.3789 16.3336C20.8653 16.3336 20.4453 15.9136 20.4453 15.4C20.4453 14.8864 20.8653 14.4664 21.3789 14.4664C21.8925 14.4664 22.3125 14.8864 22.3125 15.4C22.3125 15.9136 21.8925 16.3336 21.3789 16.3336Z" fill="#1A9E75"/>
<path d="M13.7151 5.90288C13.4387 5.89842 13.2117 6.11822 13.2073 6.39464C13.2029 6.67105 13.4227 6.89805 13.6991 6.9025L15.113 6.92529C15.2509 6.92751 15.3769 6.87367 15.4688 6.78464C15.5608 6.69561 15.6186 6.57138 15.6208 6.43353C15.6253 6.15711 15.4055 5.93011 15.129 5.92566L13.7151 5.90288Z" fill="#1A9E75"/>
<path d="M16.2661 11.1132C16.1832 10.7734 16.1778 10.4193 16.2504 10.0771C16.323 9.73492 16.4717 9.41346 16.6854 9.13656C16.8992 8.85967 17.1725 8.63444 17.4851 8.47757C17.7978 8.3207 18.1417 8.23623 18.4915 8.2304C18.8412 8.22457 19.1878 8.29755 19.5055 8.44391C19.8232 8.59028 20.1039 8.80628 20.3267 9.0759C20.5496 9.34553 20.7089 9.66185 20.7928 10.0014C20.8768 10.341 20.8832 10.6951 20.8116 11.0375L20.3063 10.9319C20.362 10.6653 20.357 10.3897 20.2917 10.1253C20.2264 9.86094 20.1023 9.61467 19.9288 9.40477C19.7554 9.19487 19.5368 9.02671 19.2895 8.91276C19.0422 8.79881 18.7724 8.742 18.5001 8.74654C18.2278 8.75107 17.96 8.81684 17.7166 8.93896C17.4732 9.06108 17.2604 9.23643 17.094 9.45199C16.9276 9.66756 16.8119 9.91782 16.7554 10.1842C16.6989 10.4506 16.7031 10.7263 16.7676 10.9909L16.2661 11.1132Z" fill="#1A9E75"/>
<path d="M23.2925 9.80001L22.4989 6.06639C22.1725 4.85276 21.2389 4.20001 19.9789 4.20001H7.84525C6.53888 4.20001 5.79162 4.85364 5.41887 6.06639L4.57888 9.80001H1.3125V10.7336H4.34613V10.78C2.89975 10.8736 1.77975 12.0864 1.77975 13.58V20.0664H3.17975V21.4664C3.17975 22.7728 4.20612 23.8 5.51337 23.8C6.82062 23.8 7.847 22.7736 7.847 21.4664V20.0664H19.9806V21.4664C19.9806 22.7728 21.007 23.8 22.3143 23.8C23.6215 23.8 24.6479 22.7736 24.6479 21.4664V20.0664H26.0479V13.58C26.0479 12.1336 24.9279 10.92 23.5279 10.78V10.7336H26.5142V9.80001H23.2942H23.2925ZM6.30612 6.34639C6.58612 5.50639 7.00612 5.13276 7.84612 5.13276H19.9798C20.8661 5.13276 21.3798 5.50639 21.6134 6.29914L22.547 10.7791H5.28062L6.307 6.34551L6.30612 6.34639ZM6.9125 21.4664C6.9125 22.26 6.30612 22.8664 5.5125 22.8664C4.71887 22.8664 4.1125 22.26 4.1125 21.4664V20.0664H6.9125V21.4664ZM23.7125 21.4664C23.7125 22.26 23.1061 22.8664 22.3125 22.8664C21.5189 22.8664 20.9125 22.26 20.9125 21.4664V20.0664H23.7125V21.4664ZM25.1125 13.58V19.1336H2.7125V13.58C2.7125 12.5536 3.5525 11.7136 4.57888 11.7136H23.2452C24.2716 11.7136 25.1125 12.5536 25.1125 13.58Z" fill="black"/>
</svg>
