<svg width="28" height="28" viewBox="0 0 28 28" fill="none" xmlns="http://www.w3.org/2000/svg">
<g opacity="0.3">
<path d="M7.315 25.1417C8.54568 25.1417 9.54334 24.1441 9.54334 22.9134C9.54334 21.6827 8.54568 20.6851 7.315 20.6851C6.08433 20.6851 5.08667 21.6827 5.08667 22.9134C5.08667 24.1441 6.08433 25.1417 7.315 25.1417Z" stroke="#020202" stroke-miterlimit="10"/>
<path d="M20.685 25.1417C21.9157 25.1417 22.9133 24.1441 22.9133 22.9134C22.9133 21.6827 21.9157 20.6851 20.685 20.6851C19.4543 20.6851 18.4567 21.6827 18.4567 22.9134C18.4567 24.1441 19.4543 25.1417 20.685 25.1417Z" stroke="#020202" stroke-miterlimit="10"/>
<path d="M22.9133 22.9133H26.25V16.2283L24.5 8.99494C24.3777 8.50398 24.0912 8.06962 23.6879 7.76402C23.2847 7.45841 22.7891 7.29994 22.2833 7.31494H18.4567V22.9133" stroke="#020202" stroke-miterlimit="10"/>
<path d="M9.54333 22.9133H18.4567V17.3367H1.75V22.9133H5.08667" stroke="#020202" stroke-miterlimit="10"/>
<path d="M18.4567 15.12L21.7933 16.2283H22.9133H26.25" stroke="#020202" stroke-miterlimit="10"/>
<path d="M3.97833 2.85828V8.43494L5.08667 10.4999V11.2466C5.08668 11.6902 4.91128 12.1157 4.59874 12.4304C4.28619 12.7452 3.86187 12.9235 3.41833 12.9266C3.19572 12.9251 2.97562 12.8794 2.77084 12.7921C2.56605 12.7048 2.38065 12.5777 2.22542 12.4181C2.07019 12.2585 1.94823 12.0697 1.86661 11.8626C1.78499 11.6555 1.74536 11.4342 1.75 11.2116V10.6633" stroke="#1A9E75" stroke-width="0.8" stroke-miterlimit="10"/>
<path d="M18.4567 17.3367H10.6633L12.88 12.88H18.4567V17.3367Z" stroke="#020202" stroke-miterlimit="10"/>
<path d="M1.75 2.87H7.315L12.88 12.88" stroke="#1A9E75" stroke-miterlimit="10"/>
</g>
</svg>
