<svg width="24" height="16" viewBox="0 0 24 16" fill="none" xmlns="http://www.w3.org/2000/svg">
<path d="M6.26999 14.3666C7.32485 14.3666 8.17999 13.7965 8.17999 13.0933C8.17999 12.39 7.32485 11.8199 6.26999 11.8199C5.21512 11.8199 4.35999 12.39 4.35999 13.0933C4.35999 13.7965 5.21512 14.3666 6.26999 14.3666Z" stroke="#020202" stroke-miterlimit="10"/>
<path d="M17.73 14.3666C18.7849 14.3666 19.64 13.7965 19.64 13.0933C19.64 12.39 18.7849 11.8199 17.73 11.8199C16.6751 11.8199 15.82 12.39 15.82 13.0933C15.82 13.7965 16.6751 14.3666 17.73 14.3666Z" stroke="#020202" stroke-miterlimit="10"/>
<path d="M19.64 13.0933H22.5V9.27333L21 5.14C20.8952 4.85945 20.6496 4.61125 20.304 4.43662C19.9583 4.26198 19.5335 4.17143 19.1 4.18H15.82V13.0933" stroke="#020202" stroke-miterlimit="10"/>
<path d="M8.18 13.0933H15.82V9.90662H1.5V13.0933H4.36" stroke="#020202" stroke-miterlimit="10"/>
<path d="M15.82 8.64001L18.68 9.27335H19.64H22.5" stroke="#020202" stroke-miterlimit="10"/>
<path d="M3.41001 1.6333V4.81997L4.36001 5.99997V6.42663C4.36002 6.68009 4.20968 6.92327 3.94178 7.10311C3.67389 7.28296 3.31018 7.38487 2.93001 7.38663C2.7392 7.38578 2.55054 7.35965 2.37501 7.30977C2.19948 7.25988 2.04057 7.18724 1.90751 7.09605C1.77446 7.00487 1.66992 6.89697 1.59996 6.77861C1.53 6.66026 1.49603 6.53382 1.50001 6.40663V6.0933" stroke="#1A9E75" stroke-width="0.8" stroke-miterlimit="10"/>
<path d="M15.82 9.90665H9.14001L11.04 7.35999H15.82V9.90665Z" stroke="#020202" stroke-miterlimit="10"/>
<path d="M1.5 1.64001H6.27L11.04 7.36001" stroke="#1A9E75" stroke-miterlimit="10"/>
</svg>
