<svg width="43" height="24" viewBox="0 0 43 24" fill="none" xmlns="http://www.w3.org/2000/svg">
<path d="M6.22004 4.51C6.22004 3.83 6.37337 3.22 6.68004 2.68C6.98671 2.13333 7.40337 1.70667 7.93004 1.4C8.46337 1.09333 9.05337 0.94 9.70004 0.94C10.46 0.94 11.1234 1.12333 11.69 1.49C12.2567 1.85667 12.67 2.37667 12.93 3.05H11.84C11.6467 2.63 11.3667 2.30667 11 2.08C10.64 1.85333 10.2067 1.74 9.70004 1.74C9.21337 1.74 8.77671 1.85333 8.39004 2.08C8.00337 2.30667 7.70004 2.63 7.48004 3.05C7.26004 3.46333 7.15004 3.95 7.15004 4.51C7.15004 5.06333 7.26004 5.55 7.48004 5.97C7.70004 6.38333 8.00337 6.70333 8.39004 6.93C8.77671 7.15667 9.21337 7.27 9.70004 7.27C10.2067 7.27 10.64 7.16 11 6.94C11.3667 6.71333 11.6467 6.39 11.84 5.97H12.93C12.67 6.63667 12.2567 7.15333 11.69 7.52C11.1234 7.88 10.46 8.06 9.70004 8.06C9.05337 8.06 8.46337 7.91 7.93004 7.61C7.40337 7.30333 6.98671 6.88 6.68004 6.34C6.37337 5.8 6.22004 5.19 6.22004 4.51ZM15.1946 3.41C15.3546 3.09667 15.5813 2.85333 15.8746 2.68C16.1746 2.50667 16.538 2.42 16.9646 2.42V3.36H16.7246C15.7046 3.36 15.1946 3.91333 15.1946 5.02V8H14.2846V2.52H15.1946V3.41ZM18.4851 1.63C18.3118 1.63 18.1651 1.57 18.0451 1.45C17.9251 1.33 17.8651 1.18333 17.8651 1.01C17.8651 0.836666 17.9251 0.69 18.0451 0.57C18.1651 0.45 18.3118 0.39 18.4851 0.39C18.6518 0.39 18.7918 0.45 18.9051 0.57C19.0251 0.69 19.0851 0.836666 19.0851 1.01C19.0851 1.18333 19.0251 1.33 18.9051 1.45C18.7918 1.57 18.6518 1.63 18.4851 1.63ZM18.9251 2.52V8H18.0151V2.52H18.9251ZM27.0661 2.42C27.4927 2.42 27.8727 2.51 28.2061 2.69C28.5394 2.86333 28.8027 3.12667 28.9961 3.48C29.1894 3.83333 29.2861 4.26333 29.2861 4.77V8H28.3861V4.9C28.3861 4.35333 28.2494 3.93667 27.9761 3.65C27.7094 3.35667 27.3461 3.21 26.8861 3.21C26.4127 3.21 26.0361 3.36333 25.7561 3.67C25.4761 3.97 25.3361 4.40667 25.3361 4.98V8H24.4361V4.9C24.4361 4.35333 24.2994 3.93667 24.0261 3.65C23.7594 3.35667 23.3961 3.21 22.9361 3.21C22.4627 3.21 22.0861 3.36333 21.8061 3.67C21.5261 3.97 21.3861 4.40667 21.3861 4.98V8H20.4761V2.52H21.3861V3.31C21.5661 3.02333 21.8061 2.80333 22.1061 2.65C22.4127 2.49667 22.7494 2.42 23.1161 2.42C23.5761 2.42 23.9827 2.52333 24.3361 2.73C24.6894 2.93667 24.9527 3.24 25.1261 3.64C25.2794 3.25333 25.5327 2.95333 25.8861 2.74C26.2394 2.52667 26.6327 2.42 27.0661 2.42ZM35.7788 5.05C35.7788 5.22333 35.7688 5.40667 35.7488 5.6H31.3688C31.4021 6.14 31.5855 6.56333 31.9188 6.87C32.2588 7.17 32.6688 7.32 33.1488 7.32C33.5421 7.32 33.8688 7.23 34.1288 7.05C34.3955 6.86333 34.5821 6.61667 34.6888 6.31H35.6688C35.5221 6.83667 35.2288 7.26667 34.7888 7.6C34.3488 7.92667 33.8021 8.09 33.1488 8.09C32.6288 8.09 32.1621 7.97333 31.7488 7.74C31.3421 7.50667 31.0221 7.17667 30.7888 6.75C30.5555 6.31667 30.4388 5.81667 30.4388 5.25C30.4388 4.68333 30.5521 4.18667 30.7788 3.76C31.0055 3.33333 31.3221 3.00667 31.7288 2.78C32.1421 2.54667 32.6155 2.43 33.1488 2.43C33.6688 2.43 34.1288 2.54333 34.5288 2.77C34.9288 2.99667 35.2355 3.31 35.4488 3.71C35.6688 4.10333 35.7788 4.55 35.7788 5.05ZM34.8388 4.86C34.8388 4.51333 34.7621 4.21667 34.6088 3.97C34.4555 3.71667 34.2455 3.52667 33.9788 3.4C33.7188 3.26667 33.4288 3.2 33.1088 3.2C32.6488 3.2 32.2555 3.34667 31.9288 3.64C31.6088 3.93333 31.4255 4.34 31.3788 4.86H34.8388ZM4.06793 21L2.40793 18.15H1.30793V21H0.39793V14.03H2.64793C3.1746 14.03 3.61793 14.12 3.97793 14.3C4.3446 14.48 4.61793 14.7233 4.79793 15.03C4.97793 15.3367 5.06793 15.6867 5.06793 16.08C5.06793 16.56 4.92793 16.9833 4.64793 17.35C4.3746 17.7167 3.96126 17.96 3.40793 18.08L5.15793 21H4.06793ZM1.30793 17.42H2.64793C3.14126 17.42 3.51126 17.3 3.75793 17.06C4.0046 16.8133 4.12793 16.4867 4.12793 16.08C4.12793 15.6667 4.0046 15.3467 3.75793 15.12C3.51793 14.8933 3.14793 14.78 2.64793 14.78H1.30793V17.42ZM11.4819 18.05C11.4819 18.2233 11.4719 18.4067 11.4519 18.6H7.07191C7.10525 19.14 7.28858 19.5633 7.62191 19.87C7.96191 20.17 8.37191 20.32 8.85191 20.32C9.24525 20.32 9.57191 20.23 9.83191 20.05C10.0986 19.8633 10.2852 19.6167 10.3919 19.31H11.3719C11.2252 19.8367 10.9319 20.2667 10.4919 20.6C10.0519 20.9267 9.50525 21.09 8.85191 21.09C8.33191 21.09 7.86525 20.9733 7.45191 20.74C7.04525 20.5067 6.72525 20.1767 6.49191 19.75C6.25858 19.3167 6.14191 18.8167 6.14191 18.25C6.14191 17.6833 6.25525 17.1867 6.48191 16.76C6.70858 16.3333 7.02525 16.0067 7.43191 15.78C7.84525 15.5467 8.31858 15.43 8.85191 15.43C9.37191 15.43 9.83191 15.5433 10.2319 15.77C10.6319 15.9967 10.9386 16.31 11.1519 16.71C11.3719 17.1033 11.4819 17.55 11.4819 18.05ZM10.5419 17.86C10.5419 17.5133 10.4652 17.2167 10.3119 16.97C10.1586 16.7167 9.94858 16.5267 9.68191 16.4C9.42191 16.2667 9.13191 16.2 8.81191 16.2C8.35191 16.2 7.95858 16.3467 7.63191 16.64C7.31191 16.9333 7.12858 17.34 7.08191 17.86H10.5419ZM13.5931 16.53C13.7731 16.2167 14.0398 15.9567 14.3931 15.75C14.7531 15.5367 15.1698 15.43 15.6431 15.43C16.1298 15.43 16.5698 15.5467 16.9631 15.78C17.3631 16.0133 17.6764 16.3433 17.9031 16.77C18.1298 17.19 18.2431 17.68 18.2431 18.24C18.2431 18.7933 18.1298 19.2867 17.9031 19.72C17.6764 20.1533 17.3631 20.49 16.9631 20.73C16.5698 20.97 16.1298 21.09 15.6431 21.09C15.1764 21.09 14.7631 20.9867 14.4031 20.78C14.0498 20.5667 13.7798 20.3033 13.5931 19.99V23.6H12.6831V15.52H13.5931V16.53ZM17.3131 18.24C17.3131 17.8267 17.2298 17.4667 17.0631 17.16C16.8964 16.8533 16.6698 16.62 16.3831 16.46C16.1031 16.3 15.7931 16.22 15.4531 16.22C15.1198 16.22 14.8098 16.3033 14.5231 16.47C14.2431 16.63 14.0164 16.8667 13.8431 17.18C13.6764 17.4867 13.5931 17.8433 13.5931 18.25C13.5931 18.6633 13.6764 19.0267 13.8431 19.34C14.0164 19.6467 14.2431 19.8833 14.5231 20.05C14.8098 20.21 15.1198 20.29 15.4531 20.29C15.7931 20.29 16.1031 20.21 16.3831 20.05C16.6698 19.8833 16.8964 19.6467 17.0631 19.34C17.2298 19.0267 17.3131 18.66 17.3131 18.24ZM21.8309 21.09C21.3176 21.09 20.8509 20.9733 20.4309 20.74C20.0176 20.5067 19.6909 20.1767 19.4509 19.75C19.2176 19.3167 19.1009 18.8167 19.1009 18.25C19.1009 17.69 19.2209 17.1967 19.4609 16.77C19.7076 16.3367 20.0409 16.0067 20.4609 15.78C20.8809 15.5467 21.3509 15.43 21.8709 15.43C22.3909 15.43 22.8609 15.5467 23.2809 15.78C23.7009 16.0067 24.0309 16.3333 24.2709 16.76C24.5176 17.1867 24.6409 17.6833 24.6409 18.25C24.6409 18.8167 24.5142 19.3167 24.2609 19.75C24.0142 20.1767 23.6776 20.5067 23.2509 20.74C22.8242 20.9733 22.3509 21.09 21.8309 21.09ZM21.8309 20.29C22.1576 20.29 22.4642 20.2133 22.7509 20.06C23.0376 19.9067 23.2676 19.6767 23.4409 19.37C23.6209 19.0633 23.7109 18.69 23.7109 18.25C23.7109 17.81 23.6242 17.4367 23.4509 17.13C23.2776 16.8233 23.0509 16.5967 22.7709 16.45C22.4909 16.2967 22.1876 16.22 21.8609 16.22C21.5276 16.22 21.2209 16.2967 20.9409 16.45C20.6676 16.5967 20.4476 16.8233 20.2809 17.13C20.1142 17.4367 20.0309 17.81 20.0309 18.25C20.0309 18.6967 20.1109 19.0733 20.2709 19.38C20.4376 19.6867 20.6576 19.9167 20.9309 20.07C21.2042 20.2167 21.5042 20.29 21.8309 20.29ZM26.7474 16.41C26.9074 16.0967 27.134 15.8533 27.4274 15.68C27.7274 15.5067 28.0907 15.42 28.5174 15.42V16.36H28.2774C27.2574 16.36 26.7474 16.9133 26.7474 18.02V21H25.8374V15.52H26.7474V16.41ZM30.6779 16.27V19.5C30.6779 19.7667 30.7345 19.9567 30.8479 20.07C30.9612 20.1767 31.1579 20.23 31.4379 20.23H32.1079V21H31.2879C30.7812 21 30.4012 20.8833 30.1479 20.65C29.8945 20.4167 29.7679 20.0333 29.7679 19.5V16.27H29.0579V15.52H29.7679V14.14H30.6779V15.52H32.1079V16.27H30.6779ZM38.2104 18.05C38.2104 18.2233 38.2004 18.4067 38.1804 18.6H33.8004C33.8338 19.14 34.0171 19.5633 34.3504 19.87C34.6904 20.17 35.1004 20.32 35.5804 20.32C35.9738 20.32 36.3004 20.23 36.5604 20.05C36.8271 19.8633 37.0138 19.6167 37.1204 19.31H38.1004C37.9538 19.8367 37.6604 20.2667 37.2204 20.6C36.7804 20.9267 36.2338 21.09 35.5804 21.09C35.0604 21.09 34.5938 20.9733 34.1804 20.74C33.7738 20.5067 33.4538 20.1767 33.2204 19.75C32.9871 19.3167 32.8704 18.8167 32.8704 18.25C32.8704 17.6833 32.9838 17.1867 33.2104 16.76C33.4371 16.3333 33.7538 16.0067 34.1604 15.78C34.5738 15.5467 35.0471 15.43 35.5804 15.43C36.1004 15.43 36.5604 15.5433 36.9604 15.77C37.3604 15.9967 37.6671 16.31 37.8804 16.71C38.1004 17.1033 38.2104 17.55 38.2104 18.05ZM37.2704 17.86C37.2704 17.5133 37.1938 17.2167 37.0404 16.97C36.8871 16.7167 36.6771 16.5267 36.4104 16.4C36.1504 16.2667 35.8604 16.2 35.5404 16.2C35.0804 16.2 34.6871 16.3467 34.3604 16.64C34.0404 16.9333 33.8571 17.34 33.8104 17.86H37.2704ZM40.3216 16.41C40.4816 16.0967 40.7083 15.8533 41.0016 15.68C41.3016 15.5067 41.6649 15.42 42.0916 15.42V16.36H41.8516C40.8316 16.36 40.3216 16.9133 40.3216 18.02V21H39.4116V15.52H40.3216V16.41Z" fill="#434343"/>
</svg>
