<svg width="49" height="9" viewBox="0 0 49 9" fill="none" xmlns="http://www.w3.org/2000/svg">
<path d="M2.99664 1.03C3.75664 1.03 4.41331 1.17333 4.96664 1.46C5.52664 1.74 5.95331 2.14333 6.24664 2.67C6.54664 3.19667 6.69664 3.81667 6.69664 4.53C6.69664 5.24333 6.54664 5.86333 6.24664 6.39C5.95331 6.91 5.52664 7.31 4.96664 7.59C4.41331 7.86333 3.75664 8 2.99664 8H0.826641V1.03H2.99664ZM2.99664 7.25C3.89664 7.25 4.58331 7.01333 5.05664 6.54C5.52997 6.06 5.76664 5.39 5.76664 4.53C5.76664 3.66333 5.52664 2.98667 5.04664 2.5C4.57331 2.01333 3.88997 1.77 2.99664 1.77H1.73664V7.25H2.99664ZM8.36695 1.63C8.19362 1.63 8.04695 1.57 7.92695 1.45C7.80695 1.33 7.74695 1.18333 7.74695 1.01C7.74695 0.836666 7.80695 0.69 7.92695 0.57C8.04695 0.45 8.19362 0.39 8.36695 0.39C8.53362 0.39 8.67362 0.45 8.78695 0.57C8.90695 0.69 8.96695 0.836666 8.96695 1.01C8.96695 1.18333 8.90695 1.33 8.78695 1.45C8.67362 1.57 8.53362 1.63 8.36695 1.63ZM8.80695 2.52V8H7.89695V2.52H8.80695ZM12.2979 8.09C11.8779 8.09 11.5012 8.02 11.1679 7.88C10.8346 7.73333 10.5712 7.53333 10.3779 7.28C10.1846 7.02 10.0779 6.72333 10.0579 6.39H10.9979C11.0246 6.66333 11.1512 6.88667 11.3779 7.06C11.6112 7.23333 11.9146 7.32 12.2879 7.32C12.6346 7.32 12.9079 7.24333 13.1079 7.09C13.3079 6.93667 13.4079 6.74333 13.4079 6.51C13.4079 6.27 13.3012 6.09333 13.0879 5.98C12.8746 5.86 12.5446 5.74333 12.0979 5.63C11.6912 5.52333 11.3579 5.41667 11.0979 5.31C10.8446 5.19667 10.6246 5.03333 10.4379 4.82C10.2579 4.6 10.1679 4.31333 10.1679 3.96C10.1679 3.68 10.2512 3.42333 10.4179 3.19C10.5846 2.95667 10.8212 2.77333 11.1279 2.64C11.4346 2.5 11.7846 2.43 12.1779 2.43C12.7846 2.43 13.2746 2.58333 13.6479 2.89C14.0212 3.19667 14.2212 3.61667 14.2479 4.15H13.3379C13.3179 3.86333 13.2012 3.63333 12.9879 3.46C12.7812 3.28667 12.5012 3.2 12.1479 3.2C11.8212 3.2 11.5612 3.27 11.3679 3.41C11.1746 3.55 11.0779 3.73333 11.0779 3.96C11.0779 4.14 11.1346 4.29 11.2479 4.41C11.3679 4.52333 11.5146 4.61667 11.6879 4.69C11.8679 4.75667 12.1146 4.83333 12.4279 4.92C12.8212 5.02667 13.1412 5.13333 13.3879 5.24C13.6346 5.34 13.8446 5.49333 14.0179 5.7C14.1979 5.90667 14.2912 6.17667 14.2979 6.51C14.2979 6.81 14.2146 7.08 14.0479 7.32C13.8812 7.56 13.6446 7.75 13.3379 7.89C13.0379 8.02333 12.6912 8.09 12.2979 8.09ZM15.2425 5.25C15.2425 4.68333 15.3558 4.19 15.5825 3.77C15.8092 3.34333 16.1225 3.01333 16.5225 2.78C16.9292 2.54667 17.3925 2.43 17.9125 2.43C18.5858 2.43 19.1392 2.59333 19.5725 2.92C20.0125 3.24667 20.3025 3.7 20.4425 4.28H19.4625C19.3692 3.94667 19.1858 3.68333 18.9125 3.49C18.6458 3.29667 18.3125 3.2 17.9125 3.2C17.3925 3.2 16.9725 3.38 16.6525 3.74C16.3325 4.09333 16.1725 4.59667 16.1725 5.25C16.1725 5.91 16.3325 6.42 16.6525 6.78C16.9725 7.14 17.3925 7.32 17.9125 7.32C18.3125 7.32 18.6458 7.22667 18.9125 7.04C19.1792 6.85333 19.3625 6.58667 19.4625 6.24H20.4425C20.2958 6.8 20.0025 7.25 19.5625 7.59C19.1225 7.92333 18.5725 8.09 17.9125 8.09C17.3925 8.09 16.9292 7.97333 16.5225 7.74C16.1225 7.50667 15.8092 7.17667 15.5825 6.75C15.3558 6.32333 15.2425 5.82333 15.2425 5.25ZM24.0467 8.09C23.5334 8.09 23.0667 7.97333 22.6467 7.74C22.2334 7.50667 21.9067 7.17667 21.6667 6.75C21.4334 6.31667 21.3167 5.81667 21.3167 5.25C21.3167 4.69 21.4367 4.19667 21.6767 3.77C21.9234 3.33667 22.2567 3.00667 22.6767 2.78C23.0967 2.54667 23.5667 2.43 24.0867 2.43C24.6067 2.43 25.0767 2.54667 25.4967 2.78C25.9167 3.00667 26.2467 3.33333 26.4867 3.76C26.7334 4.18667 26.8567 4.68333 26.8567 5.25C26.8567 5.81667 26.7301 6.31667 26.4767 6.75C26.2301 7.17667 25.8934 7.50667 25.4667 7.74C25.0401 7.97333 24.5667 8.09 24.0467 8.09ZM24.0467 7.29C24.3734 7.29 24.6801 7.21333 24.9667 7.06C25.2534 6.90667 25.4834 6.67667 25.6567 6.37C25.8367 6.06333 25.9267 5.69 25.9267 5.25C25.9267 4.81 25.8401 4.43667 25.6667 4.13C25.4934 3.82333 25.2667 3.59667 24.9867 3.45C24.7067 3.29667 24.4034 3.22 24.0767 3.22C23.7434 3.22 23.4367 3.29667 23.1567 3.45C22.8834 3.59667 22.6634 3.82333 22.4967 4.13C22.3301 4.43667 22.2467 4.81 22.2467 5.25C22.2467 5.69667 22.3267 6.07333 22.4867 6.38C22.6534 6.68667 22.8734 6.91667 23.1467 7.07C23.4201 7.21667 23.7201 7.29 24.0467 7.29ZM32.9132 2.52V8H32.0032V7.19C31.8299 7.47 31.5865 7.69 31.2732 7.85C30.9665 8.00333 30.6265 8.08 30.2532 8.08C29.8265 8.08 29.4432 7.99333 29.1032 7.82C28.7632 7.64 28.4932 7.37333 28.2932 7.02C28.0999 6.66667 28.0032 6.23667 28.0032 5.73V2.52H28.9032V5.61C28.9032 6.15 29.0399 6.56667 29.3132 6.86C29.5865 7.14667 29.9599 7.29 30.4332 7.29C30.9199 7.29 31.3032 7.14 31.5832 6.84C31.8632 6.54 32.0032 6.10333 32.0032 5.53V2.52H32.9132ZM37.1197 2.42C37.7864 2.42 38.3264 2.62333 38.7397 3.03C39.153 3.43 39.3597 4.01 39.3597 4.77V8H38.4597V4.9C38.4597 4.35333 38.323 3.93667 38.0497 3.65C37.7764 3.35667 37.403 3.21 36.9297 3.21C36.4497 3.21 36.0664 3.36 35.7797 3.66C35.4997 3.96 35.3597 4.39667 35.3597 4.97V8H34.4497V2.52H35.3597V3.3C35.5397 3.02 35.783 2.80333 36.0897 2.65C36.403 2.49667 36.7464 2.42 37.1197 2.42ZM41.9562 3.27V6.5C41.9562 6.76667 42.0128 6.95667 42.1262 7.07C42.2395 7.17667 42.4362 7.23 42.7162 7.23H43.3862V8H42.5662C42.0595 8 41.6795 7.88333 41.4262 7.65C41.1728 7.41667 41.0462 7.03333 41.0462 6.5V3.27H40.3362V2.52H41.0462V1.14H41.9562V2.52H43.3862V3.27H41.9562ZM46.4288 8.09C46.0088 8.09 45.6321 8.02 45.2988 7.88C44.9654 7.73333 44.7021 7.53333 44.5088 7.28C44.3154 7.02 44.2088 6.72333 44.1888 6.39H45.1288C45.1554 6.66333 45.2821 6.88667 45.5088 7.06C45.7421 7.23333 46.0454 7.32 46.4188 7.32C46.7654 7.32 47.0388 7.24333 47.2388 7.09C47.4388 6.93667 47.5388 6.74333 47.5388 6.51C47.5388 6.27 47.4321 6.09333 47.2188 5.98C47.0054 5.86 46.6754 5.74333 46.2288 5.63C45.8221 5.52333 45.4888 5.41667 45.2288 5.31C44.9754 5.19667 44.7554 5.03333 44.5688 4.82C44.3888 4.6 44.2988 4.31333 44.2988 3.96C44.2988 3.68 44.3821 3.42333 44.5488 3.19C44.7154 2.95667 44.9521 2.77333 45.2588 2.64C45.5654 2.5 45.9154 2.43 46.3088 2.43C46.9154 2.43 47.4054 2.58333 47.7788 2.89C48.1521 3.19667 48.3521 3.61667 48.3788 4.15H47.4688C47.4488 3.86333 47.3321 3.63333 47.1188 3.46C46.9121 3.28667 46.6321 3.2 46.2788 3.2C45.9521 3.2 45.6921 3.27 45.4988 3.41C45.3054 3.55 45.2088 3.73333 45.2088 3.96C45.2088 4.14 45.2654 4.29 45.3788 4.41C45.4988 4.52333 45.6454 4.61667 45.8188 4.69C45.9988 4.75667 46.2454 4.83333 46.5588 4.92C46.9521 5.02667 47.2721 5.13333 47.5188 5.24C47.7654 5.34 47.9754 5.49333 48.1488 5.7C48.3288 5.90667 48.4221 6.17667 48.4288 6.51C48.4288 6.81 48.3454 7.08 48.1788 7.32C48.0121 7.56 47.7754 7.75 47.4688 7.89C47.1688 8.02333 46.8221 8.09 46.4288 8.09Z" fill="#393939"/>
</svg>
