<svg width="28" height="28" viewBox="0 0 28 28" fill="none" xmlns="http://www.w3.org/2000/svg">
<path d="M26.3681 18.3969C26.2456 18.0556 26.2019 17.9287 26.18 17.8762C26.057 17.5469 25.8318 17.2655 25.5374 17.0734C25.243 16.8814 24.8947 16.7886 24.5437 16.8087C24.4781 16.8087 24.4125 16.8131 24.3425 16.8175C23.8 16.8612 23.2663 16.9531 22.75 17.0362C22.3081 17.1106 21.8487 17.185 21.4025 17.2331C20.3817 17.3495 19.3541 17.3963 18.3269 17.3731C17.4615 17.3471 16.5983 17.2726 15.7413 17.15C15.779 16.8462 15.7289 16.538 15.5969 16.2619C15.4881 16.0391 15.3324 15.8425 15.1407 15.6855C14.9489 15.5284 14.7254 15.4146 14.4856 15.3519L10.3381 14.2231C9.6832 14.0483 8.99566 14.0348 8.33437 14.1837L6.54938 14.5819V13.0944C6.54938 12.8623 6.45719 12.6397 6.29309 12.4756C6.129 12.3115 5.90644 12.2194 5.67438 12.2194H2.40625C2.17419 12.2194 1.95163 12.3115 1.78753 12.4756C1.62344 12.6397 1.53125 12.8623 1.53125 13.0944V24.0319C1.53194 24.2637 1.62435 24.4859 1.7883 24.6498C1.95224 24.8138 2.1744 24.9062 2.40625 24.9069H5.67438C5.90623 24.9062 6.12838 24.8138 6.29233 24.6498C6.45627 24.4859 6.54868 24.2637 6.54938 24.0319V22.8856L13.7812 24.1981C14.1133 24.2578 14.4501 24.2871 14.7875 24.2856C15.4913 24.286 16.1888 24.1539 16.8438 23.8962L25.3838 20.5144C25.7932 20.3616 26.1261 20.0538 26.3103 19.6575C26.4945 19.2612 26.5153 18.8084 26.3681 18.3969ZM5.67438 24.0319H2.40625V13.0944H5.67438V24.0319ZM25.06 19.7006L16.5244 23.0825C15.703 23.4065 14.8074 23.4944 13.9388 23.3362L6.54938 21.9975V15.4787L8.52688 15.0369C9.04962 14.9201 9.59278 14.9306 10.1106 15.0675L14.2538 16.1962C14.3732 16.2257 14.4849 16.2809 14.5808 16.358C14.6768 16.4351 14.7548 16.5322 14.8094 16.6425C14.8568 16.7403 14.8826 16.8473 14.8848 16.956C14.8871 17.0648 14.8658 17.1727 14.8225 17.2725C14.7462 17.4387 14.6202 17.5772 14.462 17.6688C14.3037 17.7605 14.1209 17.8009 13.9388 17.7844L10.3425 17.0406C10.2294 17.0173 10.1117 17.0396 10.015 17.1027C9.91826 17.1658 9.85042 17.2646 9.82625 17.3775C9.80281 17.4911 9.825 17.6094 9.88803 17.7068C9.95106 17.8042 10.0499 17.8729 10.1631 17.8981L13.7856 18.6462C13.7999 18.6499 13.8147 18.6513 13.8294 18.6506C13.8874 18.6578 13.9459 18.6607 14.0044 18.6594C14.2734 18.6595 14.5389 18.5991 14.7813 18.4824C15.0237 18.3658 15.2367 18.1959 15.4044 17.9856C16.3635 18.132 17.3308 18.2197 18.3006 18.2481C19.3672 18.2721 20.4343 18.2239 21.4944 18.1037C21.9669 18.0512 22.4394 17.9769 22.8944 17.8981C23.3931 17.815 23.9094 17.7319 24.4169 17.6881C24.6055 17.6512 24.801 17.679 24.9717 17.7672C25.1425 17.8553 25.2784 17.9986 25.3575 18.1737V18.1781L25.5456 18.6944C25.6137 18.8922 25.6008 19.109 25.5099 19.2974C25.4189 19.4859 25.2573 19.6308 25.06 19.7006Z" fill="#1A9E75"/>
<g clip-path="url(#clip0_421_3568)">
<path fill-rule="evenodd" clip-rule="evenodd" d="M20.5179 3.42904C20.3854 3.29335 20.227 3.18552 20.0522 3.11191C19.8774 3.03829 19.6897 3.00037 19.5 3.00037C19.3103 3.00037 19.1226 3.03829 18.9478 3.11191C18.7729 3.18552 18.6146 3.29335 18.4821 3.42904L17.8568 4.06929C17.7223 4.2071 17.5613 4.31617 17.3834 4.38991C17.2055 4.46365 17.0145 4.50052 16.822 4.49829L15.9269 4.48724C15.7372 4.48498 15.549 4.52067 15.3733 4.59222C15.1976 4.66377 15.038 4.76974 14.9038 4.90388C14.7697 5.03803 14.6637 5.19765 14.5922 5.37335C14.5206 5.54906 14.4849 5.73729 14.4872 5.92699L14.4976 6.82204C14.4998 7.01458 14.463 7.20557 14.3892 7.38344C14.3155 7.56131 14.2064 7.72236 14.0686 7.85684L13.429 8.48214C13.2933 8.61467 13.1855 8.77299 13.1119 8.9478C13.0382 9.12261 13.0003 9.31037 13.0003 9.50004C13.0003 9.68972 13.0382 9.87748 13.1119 10.0523C13.1855 10.2271 13.2933 10.3854 13.429 10.5179L14.0692 11.1432C14.3474 11.4149 14.5028 11.7893 14.4982 12.178L14.4872 13.0731C14.4849 13.2628 14.5206 13.451 14.5922 13.6267C14.6637 13.8024 14.7697 13.9621 14.9038 14.0962C15.038 14.2303 15.1976 14.3363 15.3733 14.4079C15.549 14.4794 15.7372 14.5151 15.9269 14.5128L16.822 14.5024C17.0145 14.5002 17.2055 14.5371 17.3834 14.6108C17.5613 14.6846 17.7223 14.7936 17.8568 14.9314L18.4821 15.571C19.0404 16.143 19.9595 16.143 20.5179 15.571L21.1432 14.9308C21.2777 14.793 21.4387 14.6839 21.6166 14.6102C21.7945 14.5364 21.9855 14.4996 22.178 14.5018L23.073 14.5128C23.2627 14.5151 23.451 14.4794 23.6267 14.4079C23.8024 14.3363 23.962 14.2303 24.0962 14.0962C24.2303 13.9621 24.3363 13.8024 24.4078 13.6267C24.4794 13.451 24.5151 13.2628 24.5128 13.0731L24.5024 12.178C24.5002 11.9855 24.537 11.7945 24.6108 11.6166C24.6845 11.4388 24.7936 11.2777 24.9314 11.1432L25.571 10.5179C26.143 9.95959 26.143 9.04049 25.571 8.48214L24.9307 7.85684C24.7929 7.72236 24.6839 7.56131 24.6101 7.38344C24.5364 7.20557 24.4995 7.01458 24.5017 6.82204L24.5128 5.92699C24.5151 5.73729 24.4794 5.54906 24.4078 5.37335C24.3363 5.19765 24.2303 5.03803 24.0962 4.90388C23.962 4.76974 23.8024 4.66377 23.6267 4.59222C23.451 4.52067 23.2627 4.48498 23.073 4.48724L22.178 4.49764C21.9855 4.49987 21.7945 4.463 21.6166 4.38926C21.4387 4.31552 21.2777 4.20645 21.1432 4.06864L20.5179 3.42904ZM17.55 8.52504C17.678 8.52504 17.8048 8.49982 17.9231 8.45083C18.0414 8.40183 18.1489 8.33001 18.2394 8.23947C18.33 8.14893 18.4018 8.04145 18.4508 7.92316C18.4998 7.80487 18.525 7.67808 18.525 7.55004C18.525 7.422 18.4998 7.29522 18.4508 7.17693C18.4018 7.05863 18.33 6.95115 18.2394 6.86061C18.1489 6.77008 18.0414 6.69826 17.9231 6.64926C17.8048 6.60026 17.678 6.57504 17.55 6.57504C17.2914 6.57504 17.0434 6.67776 16.8606 6.86061C16.6777 7.04346 16.575 7.29146 16.575 7.55004C16.575 7.80863 16.6777 8.05662 16.8606 8.23947C17.0434 8.42232 17.2914 8.52504 17.55 8.52504ZM21.45 12.425C21.7086 12.425 21.9566 12.3223 22.1394 12.1395C22.3223 11.9566 22.425 11.7086 22.425 11.45C22.425 11.1915 22.3223 10.9435 22.1394 10.7606C21.9566 10.5778 21.7086 10.475 21.45 10.475C21.1914 10.475 20.9434 10.5778 20.7606 10.7606C20.5777 10.9435 20.475 11.1915 20.475 11.45C20.475 11.7086 20.5777 11.9566 20.7606 12.1395C20.9434 12.3223 21.1914 12.425 21.45 12.425ZM21.9557 7.04434C22.0221 7.11074 22.0748 7.18958 22.1108 7.27635C22.1467 7.36312 22.1652 7.45612 22.1652 7.55004C22.1652 7.64397 22.1467 7.73697 22.1108 7.82374C22.0748 7.91051 22.0221 7.98934 21.9557 8.05574L18.0557 11.9557C17.9216 12.0899 17.7397 12.1652 17.55 12.1652C17.3603 12.1652 17.1784 12.0899 17.0443 11.9557C16.9102 11.8216 16.8348 11.6397 16.8348 11.45C16.8348 11.2604 16.9102 11.0785 17.0443 10.9443L20.9443 7.04434C21.0107 6.97791 21.0895 6.92522 21.1763 6.88926C21.2631 6.85331 21.3561 6.8348 21.45 6.8348C21.5439 6.8348 21.6369 6.85331 21.7237 6.88926C21.8105 6.92522 21.8893 6.97791 21.9557 7.04434Z" fill="#1A9E75"/>
</g>
<defs>
<clipPath id="clip0_421_3568">
<rect width="13" height="13" fill="white" transform="translate(13 3)"/>
</clipPath>
</defs>
</svg>
