<svg width="23" height="16" viewBox="0 0 23 16" fill="none" xmlns="http://www.w3.org/2000/svg">
<path d="M4.22354 8.36011C3.98883 8.36011 3.79858 8.4927 3.79858 8.65623C3.79858 8.81905 3.98887 8.95117 4.22354 8.95117C4.45858 8.95117 4.64887 8.81905 4.64887 8.65623C4.64887 8.4927 4.45858 8.36011 4.22354 8.36011Z" fill="black"/>
<path d="M17.0927 8.36011C16.8573 8.36011 16.6678 8.4927 16.6678 8.65623C16.6678 8.81905 16.8574 8.95117 17.0927 8.95117C17.3268 8.95117 17.5177 8.81905 17.5177 8.65623C17.5177 8.4927 17.3267 8.36011 17.0927 8.36011Z" fill="black"/>
<path d="M7.46338 5.24811C7.1284 5.42652 6.72684 5.71373 6.72684 5.71373C6.6941 5.73486 6.68309 5.7677 6.69926 5.79623C6.71516 5.82477 6.75479 5.84417 6.79926 5.84417H11.7638V4.18308C11.707 4.18208 11.6501 4.18164 11.5929 4.18164C9.91778 4.18164 8.75489 4.56048 7.46338 5.24811Z" fill="#1A9E75"/>
<path d="M16.1663 5.26083C15.1836 4.73573 14.0259 4.38564 12.7875 4.24805V5.8442H16.8087C16.8529 5.8442 16.8928 5.82477 16.9087 5.79627C16.9246 5.76773 16.9132 5.73489 16.8811 5.71377C16.8811 5.71377 16.493 5.43658 16.1663 5.26083Z" fill="#1A9E75"/>
<path d="M21.4304 7.70191H20.993C20.7387 7.04232 20.1361 6.48148 19.3317 6.12135C17.6201 4.38398 14.7449 3.24316 11.4888 3.24316C8.62046 3.2446 6.46147 4.2466 4.72403 5.63223C4.51689 5.60848 4.32144 5.59985 4.09741 5.6001C1.83465 5.60032 0 6.87663 0 8.45073C0 8.5471 0.00723242 8.64182 0.0203047 8.73579L0.0478867 8.92641H2.1983C2.38028 9.5896 3.21681 10.091 4.22355 10.091C5.23034 10.091 6.06683 9.5896 6.24949 8.92641H7.87117H13.6436H15.0675C15.2488 9.5896 16.086 10.091 17.0927 10.091C18.0988 10.091 18.935 9.5896 19.1183 8.92641H20.4622H20.7938H21.0629L21.096 8.7401C21.1157 8.63173 21.1264 8.52048 21.1264 8.40685C21.1264 8.31716 21.1181 8.22895 21.1057 8.14141H21.4304C21.6903 8.14141 21.9229 8.21407 22.0935 8.33251C22.2638 8.4512 22.3683 8.61304 22.3683 8.79382V10.8587C22.3683 11.0398 22.2638 11.2016 22.0935 11.32C21.9229 11.4385 21.6903 11.5114 21.4304 11.5114H12.7603C12.6155 11.0506 12.0265 10.7055 11.321 10.7055H9.84643V11.0716H8.91964V11.438H9.84643V12.024H8.91964V12.3904H9.84643V12.7568H11.3209C12.0265 12.7568 12.6155 12.4115 12.7602 11.9509H21.4303C22.2976 11.9506 23 11.4619 23 10.8587V8.79379C23 8.19057 22.2976 7.70191 21.4304 7.70191ZM4.22355 9.34216C3.67865 9.34216 3.23712 9.03526 3.23712 8.6562C3.23712 8.27663 3.67829 7.96948 4.22355 7.96948C4.76882 7.96948 5.21067 8.27688 5.21067 8.6562C5.21067 9.03526 4.76882 9.34216 4.22355 9.34216ZM17.0928 9.34216C16.5468 9.34216 16.1049 9.03526 16.1049 8.6562C16.1049 8.27663 16.5468 7.96948 17.0928 7.96948C17.6374 7.96948 18.0792 8.27688 18.0792 8.6562C18.0792 9.03526 17.6373 9.34216 17.0928 9.34216ZM20.508 8.50251H20.4622H19.1432C19.0332 7.78248 18.1567 7.22045 17.0928 7.22045C16.0274 7.22045 15.1516 7.78248 15.0413 8.50251H13.6437H7.87121H6.27469C6.16472 7.78248 5.28825 7.22045 4.22355 7.22045C3.15886 7.22045 2.28342 7.78248 2.17247 8.50251H0.612824C0.612824 8.48501 0.609051 8.46823 0.609051 8.45073C0.60941 7.78007 0.999557 7.17491 1.63098 6.7347C2.26343 6.29545 3.13272 6.02426 4.09741 6.02426C4.36209 6.02498 4.53477 6.03457 4.77398 6.07004L4.95286 6.09713L5.0711 5.99907C6.70998 4.64535 8.77041 3.66563 11.4888 3.6671C14.5598 3.6671 17.2658 4.74891 18.8647 6.39541L18.9009 6.43304L18.9564 6.45654C19.8935 6.86176 20.5174 7.58298 20.5174 8.40685C20.5173 8.4392 20.5101 8.47038 20.508 8.50251Z" fill="black"/>
</svg>
