<svg width="28" height="28" viewBox="0 0 28 28" fill="none" xmlns="http://www.w3.org/2000/svg">
<g opacity="0.3">
<path d="M5.14173 14.6302C4.85599 14.6302 4.62439 14.8623 4.62439 15.1485C4.62439 15.4334 4.85605 15.6646 5.14173 15.6646C5.42786 15.6646 5.65951 15.4334 5.65951 15.1485C5.65951 14.8623 5.42786 14.6302 5.14173 14.6302Z" fill="black"/>
<path d="M20.8086 14.6302C20.522 14.6302 20.2913 14.8623 20.2913 15.1485C20.2913 15.4334 20.522 15.6646 20.8086 15.6646C21.0935 15.6646 21.3259 15.4334 21.3259 15.1485C21.3259 14.8623 21.0935 14.6302 20.8086 14.6302Z" fill="black"/>
<path d="M9.0859 9.18431C8.6781 9.49652 8.18924 9.99916 8.18924 9.99916C8.14938 10.0361 8.13598 10.0936 8.15567 10.1435C8.17503 10.1935 8.22326 10.2274 8.2774 10.2274H14.3212V7.32051C14.252 7.31876 14.1828 7.31799 14.1131 7.31799C12.0739 7.31799 10.6582 7.98097 9.0859 9.18431Z" fill="#1A9E75"/>
<path d="M19.6807 9.20657C18.4844 8.28766 17.075 7.67499 15.5674 7.4342V10.2275H20.4629C20.5166 10.2275 20.5652 10.1935 20.5846 10.1436C20.6039 10.0937 20.59 10.0362 20.551 9.99921C20.551 9.99921 20.0785 9.51413 19.6807 9.20657Z" fill="#1A9E75"/>
<path d="M26.0892 13.4785H25.5567C25.2471 12.3242 24.5136 11.3427 23.5343 10.7125C21.4506 7.67208 17.9503 5.67566 13.9864 5.67566C10.4945 5.67817 7.86614 7.43168 5.75099 9.85652C5.49883 9.81496 5.26088 9.79986 4.98816 9.8003C2.23349 9.80068 0 12.0342 0 14.7889C0 14.9576 0.00880469 15.1233 0.0247188 15.2878L0.0582969 15.6213H2.67619C2.89773 16.7819 3.91612 17.6593 5.14172 17.6593C6.36737 17.6593 7.38571 16.7819 7.60807 15.6213H9.58229H16.6096H18.343C18.5637 16.7819 19.5829 17.6593 20.8085 17.6593C22.0333 17.6593 23.0513 16.7819 23.2745 15.6213H24.9105H25.3141H25.6418L25.6821 15.2953C25.706 15.1056 25.719 14.911 25.719 14.7121C25.719 14.5552 25.709 14.4008 25.6939 14.2476H26.0892C26.4056 14.2476 26.6888 14.3747 26.8965 14.582C27.1038 14.7897 27.2309 15.0729 27.2309 15.3893V19.0029C27.2309 19.3197 27.1038 19.6029 26.8965 19.8102C26.6888 20.0175 26.4056 20.145 26.0892 20.145H15.5343C15.358 19.3386 14.6409 18.7348 13.7821 18.7348H11.987V19.3755H10.8587V20.0166H11.987V21.0421H10.8587V21.6833H11.987V22.3244H13.782C14.6409 22.3244 15.358 21.7202 15.5342 20.9142H26.0891C27.1449 20.9137 28 20.0585 28 19.0028V15.3893C28 14.3336 27.1449 13.4785 26.0892 13.4785ZM5.14172 16.3489C4.47836 16.3489 3.94084 15.8118 3.94084 15.1485C3.94084 14.4842 4.47792 13.9467 5.14172 13.9467C5.80552 13.9467 6.34342 14.4847 6.34342 15.1485C6.34342 15.8118 5.80552 16.3489 5.14172 16.3489ZM20.8086 16.3489C20.1439 16.3489 19.606 15.8118 19.606 15.1485C19.606 14.4842 20.1439 13.9467 20.8086 13.9467C21.4716 13.9467 22.0095 14.4847 22.0095 15.1485C22.0094 15.8118 21.4715 16.3489 20.8086 16.3489ZM24.9663 14.8795H24.9105H23.3048C23.1709 13.6195 22.1038 12.6359 20.8086 12.6359C19.5116 12.6359 18.4454 13.6195 18.3111 14.8795H16.6097H9.58234H7.63875C7.50487 13.6195 6.43787 12.6359 5.14172 12.6359C3.84557 12.6359 2.77982 13.6195 2.64474 14.8795H0.746047C0.746047 14.8489 0.741453 14.8195 0.741453 14.7889C0.741891 13.6152 1.21685 12.5562 1.98554 11.7858C2.75548 11.0172 3.81374 10.5426 4.98816 10.5426C5.31037 10.5438 5.52059 10.5606 5.8118 10.6227L6.02957 10.6701L6.17351 10.4985C8.16867 8.12949 10.677 6.41498 13.9864 6.41755C17.7249 6.41755 21.0192 8.31072 22.9657 11.1921L23.0098 11.2579L23.0774 11.2991C24.2182 12.0082 24.9777 13.2703 24.9777 14.7121C24.9776 14.7687 24.9688 14.8233 24.9663 14.8795Z" fill="black"/>
</g>
</svg>
