<svg width="126" height="14" viewBox="0 0 126 14" fill="none" xmlns="http://www.w3.org/2000/svg">
<path d="M2.344 3.64V6.44H6.104V8.216H2.344V11.176H6.584V13H0.104V1.816H6.584V3.64H2.344ZM13.5156 13L11.6916 10.248L10.0756 13H7.67563L10.5716 8.552L7.64363 4.136H10.1716L11.9796 6.872L13.6116 4.136H16.0116L13.0996 8.552L16.0436 13H13.5156ZM16.6842 8.568C16.6842 7.65067 16.8709 6.85067 17.2443 6.168C17.6176 5.47467 18.1349 4.94133 18.7963 4.568C19.4576 4.184 20.2149 3.992 21.0683 3.992C22.1669 3.992 23.0736 4.26933 23.7883 4.824C24.5136 5.368 24.9989 6.136 25.2443 7.128H22.8283C22.7003 6.744 22.4816 6.44533 22.1723 6.232C21.8736 6.008 21.5003 5.896 21.0523 5.896C20.4123 5.896 19.9056 6.13067 19.5323 6.6C19.1589 7.05867 18.9723 7.71467 18.9723 8.568C18.9723 9.41067 19.1589 10.0667 19.5323 10.536C19.9056 10.9947 20.4123 11.224 21.0523 11.224C21.9589 11.224 22.5509 10.8187 22.8283 10.008H25.2443C24.9989 10.968 24.5136 11.7307 23.7883 12.296C23.0629 12.8613 22.1563 13.144 21.0683 13.144C20.2149 13.144 19.4576 12.9573 18.7963 12.584C18.1349 12.2 17.6176 11.6667 17.2443 10.984C16.8709 10.2907 16.6842 9.48533 16.6842 8.568ZM29.1253 1.16V13H26.8853V1.16H29.1253ZM39.7064 4.136V13H37.4504V11.88C37.1624 12.264 36.7837 12.568 36.3144 12.792C35.8557 13.0053 35.3544 13.112 34.8104 13.112C34.117 13.112 33.5037 12.968 32.9704 12.68C32.437 12.3813 32.0157 11.9493 31.7064 11.384C31.4077 10.808 31.2584 10.1253 31.2584 9.336V4.136H33.4984V9.016C33.4984 9.72 33.6744 10.264 34.0264 10.648C34.3784 11.0213 34.8584 11.208 35.4664 11.208C36.085 11.208 36.5704 11.0213 36.9224 10.648C37.2744 10.264 37.4504 9.72 37.4504 9.016V4.136H39.7064ZM45.3085 13.144C44.5832 13.144 43.9325 13.016 43.3565 12.76C42.7805 12.4933 42.3218 12.136 41.9805 11.688C41.6498 11.24 41.4685 10.744 41.4365 10.2H43.6925C43.7352 10.5413 43.9005 10.824 44.1885 11.048C44.4872 11.272 44.8552 11.384 45.2925 11.384C45.7192 11.384 46.0498 11.2987 46.2845 11.128C46.5298 10.9573 46.6525 10.7387 46.6525 10.472C46.6525 10.184 46.5032 9.97067 46.2045 9.832C45.9165 9.68267 45.4525 9.52267 44.8125 9.352C44.1512 9.192 43.6072 9.02667 43.1805 8.856C42.7645 8.68533 42.4018 8.424 42.0925 8.072C41.7938 7.72 41.6445 7.24533 41.6445 6.648C41.6445 6.15733 41.7832 5.70933 42.0605 5.304C42.3485 4.89867 42.7538 4.57867 43.2765 4.344C43.8098 4.10933 44.4338 3.992 45.1485 3.992C46.2045 3.992 47.0472 4.25867 47.6765 4.792C48.3058 5.31467 48.6525 6.024 48.7165 6.92H46.5725C46.5405 6.568 46.3912 6.29067 46.1245 6.088C45.8685 5.87467 45.5218 5.768 45.0845 5.768C44.6792 5.768 44.3645 5.84267 44.1405 5.992C43.9272 6.14133 43.8205 6.34933 43.8205 6.616C43.8205 6.91467 43.9698 7.144 44.2685 7.304C44.5672 7.45333 45.0312 7.608 45.6605 7.768C46.3005 7.928 46.8285 8.09333 47.2445 8.264C47.6605 8.43467 48.0178 8.70133 48.3165 9.064C48.6258 9.416 48.7858 9.88533 48.7965 10.472C48.7965 10.984 48.6525 11.4427 48.3645 11.848C48.0872 12.2533 47.6818 12.5733 47.1485 12.808C46.6258 13.032 46.0125 13.144 45.3085 13.144ZM51.7713 3.08C51.3766 3.08 51.0459 2.95733 50.7793 2.712C50.5233 2.456 50.3953 2.14133 50.3953 1.768C50.3953 1.39467 50.5233 1.08533 50.7793 0.839999C51.0459 0.583999 51.3766 0.455999 51.7713 0.455999C52.1659 0.455999 52.4913 0.583999 52.7473 0.839999C53.0139 1.08533 53.1473 1.39467 53.1473 1.768C53.1473 2.14133 53.0139 2.456 52.7473 2.712C52.4913 2.95733 52.1659 3.08 51.7713 3.08ZM52.8753 4.136V13H50.6353V4.136H52.8753ZM58.7844 10.936L61.0244 4.136H63.4084L60.1284 13H57.4084L54.1444 4.136H56.5444L58.7844 10.936ZM72.9065 8.376C72.9065 8.696 72.8852 8.984 72.8425 9.24H66.3625C66.4158 9.88 66.6398 10.3813 67.0345 10.744C67.4292 11.1067 67.9145 11.288 68.4905 11.288C69.3225 11.288 69.9145 10.9307 70.2665 10.216H72.6825C72.4265 11.0693 71.9358 11.7733 71.2105 12.328C70.4852 12.872 69.5945 13.144 68.5385 13.144C67.6852 13.144 66.9172 12.9573 66.2345 12.584C65.5625 12.2 65.0345 11.6613 64.6505 10.968C64.2772 10.2747 64.0905 9.47467 64.0905 8.568C64.0905 7.65067 64.2772 6.84533 64.6505 6.152C65.0238 5.45867 65.5465 4.92533 66.2185 4.552C66.8905 4.17867 67.6638 3.992 68.5385 3.992C69.3812 3.992 70.1332 4.17333 70.7945 4.536C71.4665 4.89867 71.9838 5.416 72.3465 6.088C72.7198 6.74933 72.9065 7.512 72.9065 8.376ZM70.5865 7.736C70.5758 7.16 70.3678 6.70133 69.9625 6.36C69.5572 6.008 69.0612 5.832 68.4745 5.832C67.9198 5.832 67.4505 6.00267 67.0665 6.344C66.6932 6.67467 66.4638 7.13867 66.3785 7.736H70.5865ZM83.538 13.112C82.4927 13.112 81.5327 12.8667 80.658 12.376C79.7833 11.8853 79.09 11.208 78.578 10.344C78.066 9.46933 77.81 8.48267 77.81 7.384C77.81 6.296 78.066 5.32 78.578 4.456C79.09 3.58133 79.7833 2.89867 80.658 2.408C81.5327 1.91733 82.4927 1.672 83.538 1.672C84.594 1.672 85.554 1.91733 86.418 2.408C87.2927 2.89867 87.9807 3.58133 88.482 4.456C88.994 5.32 89.25 6.296 89.25 7.384C89.25 8.48267 88.994 9.46933 88.482 10.344C87.9807 11.208 87.2927 11.8853 86.418 12.376C85.5433 12.8667 84.5833 13.112 83.538 13.112ZM83.538 11.112C84.21 11.112 84.802 10.9627 85.314 10.664C85.826 10.3547 86.226 9.91733 86.514 9.352C86.802 8.78667 86.946 8.13067 86.946 7.384C86.946 6.63733 86.802 5.98667 86.514 5.432C86.226 4.86667 85.826 4.43467 85.314 4.136C84.802 3.83733 84.21 3.688 83.538 3.688C82.866 3.688 82.2687 3.83733 81.746 4.136C81.234 4.43467 80.834 4.86667 80.546 5.432C80.258 5.98667 80.114 6.63733 80.114 7.384C80.114 8.13067 80.258 8.78667 80.546 9.352C80.834 9.91733 81.234 10.3547 81.746 10.664C82.2687 10.9627 82.866 11.112 83.538 11.112ZM94.9805 5.976H93.4285V13H91.1565V5.976H90.1485V4.136H91.1565V3.688C91.1565 2.6 91.4658 1.8 92.0845 1.288C92.7032 0.775999 93.6365 0.536 94.8845 0.568V2.456C94.3405 2.44533 93.9618 2.536 93.7485 2.728C93.5352 2.92 93.4285 3.26667 93.4285 3.768V4.136H94.9805V5.976ZM100.496 5.976H98.9441V13H96.6721V5.976H95.6641V4.136H96.6721V3.688C96.6721 2.6 96.9815 1.8 97.6001 1.288C98.2188 0.775999 99.1521 0.536 100.4 0.568V2.456C99.8561 2.44533 99.4775 2.536 99.2641 2.728C99.0508 2.92 98.9441 3.26667 98.9441 3.768V4.136H100.496V5.976ZM110.188 8.376C110.188 8.696 110.166 8.984 110.124 9.24H103.644C103.697 9.88 103.921 10.3813 104.316 10.744C104.71 11.1067 105.196 11.288 105.772 11.288C106.604 11.288 107.196 10.9307 107.548 10.216H109.964C109.708 11.0693 109.217 11.7733 108.492 12.328C107.766 12.872 106.876 13.144 105.82 13.144C104.966 13.144 104.198 12.9573 103.516 12.584C102.844 12.2 102.316 11.6613 101.932 10.968C101.558 10.2747 101.372 9.47467 101.372 8.568C101.372 7.65067 101.558 6.84533 101.932 6.152C102.305 5.45867 102.828 4.92533 103.5 4.552C104.172 4.17867 104.945 3.992 105.82 3.992C106.662 3.992 107.414 4.17333 108.076 4.536C108.748 4.89867 109.265 5.416 109.628 6.088C110.001 6.74933 110.188 7.512 110.188 8.376ZM107.868 7.736C107.857 7.16 107.649 6.70133 107.244 6.36C106.838 6.008 106.342 5.832 105.756 5.832C105.201 5.832 104.732 6.00267 104.348 6.344C103.974 6.67467 103.745 7.13867 103.66 7.736H107.868ZM114.063 5.512C114.351 5.04267 114.724 4.67467 115.183 4.408C115.652 4.14133 116.185 4.008 116.783 4.008V6.36H116.191C115.487 6.36 114.953 6.52533 114.591 6.856C114.239 7.18667 114.063 7.76267 114.063 8.584V13H111.823V4.136H114.063V5.512ZM121.684 13.144C120.958 13.144 120.308 13.016 119.732 12.76C119.156 12.4933 118.697 12.136 118.356 11.688C118.025 11.24 117.844 10.744 117.812 10.2H120.068C120.11 10.5413 120.276 10.824 120.564 11.048C120.862 11.272 121.23 11.384 121.668 11.384C122.094 11.384 122.425 11.2987 122.66 11.128C122.905 10.9573 123.028 10.7387 123.028 10.472C123.028 10.184 122.878 9.97067 122.58 9.832C122.292 9.68267 121.828 9.52267 121.188 9.352C120.526 9.192 119.982 9.02667 119.556 8.856C119.14 8.68533 118.777 8.424 118.468 8.072C118.169 7.72 118.02 7.24533 118.02 6.648C118.02 6.15733 118.158 5.70933 118.436 5.304C118.724 4.89867 119.129 4.57867 119.652 4.344C120.185 4.10933 120.809 3.992 121.524 3.992C122.58 3.992 123.422 4.25867 124.052 4.792C124.681 5.31467 125.028 6.024 125.092 6.92H122.948C122.916 6.568 122.766 6.29067 122.5 6.088C122.244 5.87467 121.897 5.768 121.46 5.768C121.054 5.768 120.74 5.84267 120.516 5.992C120.302 6.14133 120.196 6.34933 120.196 6.616C120.196 6.91467 120.345 7.144 120.644 7.304C120.942 7.45333 121.406 7.608 122.036 7.768C122.676 7.928 123.204 8.09333 123.62 8.264C124.036 8.43467 124.393 8.70133 124.692 9.064C125.001 9.416 125.161 9.88533 125.172 10.472C125.172 10.984 125.028 11.4427 124.74 11.848C124.462 12.2533 124.057 12.5733 123.524 12.808C123.001 13.032 122.388 13.144 121.684 13.144Z" fill="#393939"/>
</svg>
