<svg width="24" height="24" viewBox="0 0 24 24" fill="none" xmlns="http://www.w3.org/2000/svg">
<path d="M15.1408 13.6731V14.0932C15.1408 15.86 13.7032 17.2975 11.9363 17.2975H8.97914C7.90757 17.2975 6.95611 16.6589 6.55524 15.6706C6.26343 14.9514 5.80774 14.1113 5.20101 13.1735C3.85649 11.0957 1.1697 11.0358 0.867728 11.0358L0.853439 11.0359C0.630842 11.0384 0.41137 10.9528 0.251287 10.7955C0.0914279 10.638 0 10.423 0 10.1987V2.67808C0 2.43383 0.106722 2.20163 0.292145 2.04266C0.477569 1.8837 0.723163 1.81359 0.964626 1.85054L9.77419 3.20633C11.5565 3.48073 12.85 4.98867 12.85 6.79178V11.5378H13.0054C14.1828 11.5378 15.1408 12.4957 15.1408 13.6731ZM11.2423 17.9694H5.70001C5.7354 17.732 5.75415 17.4893 5.75415 17.2421C5.75415 14.5309 3.54839 12.3251 0.837252 12.3251C0.374866 12.3251 0 12.6999 0 13.1624V15.0636C0 15.5261 0.374866 15.9009 0.837252 15.9009C1.57682 15.9009 2.17853 16.5026 2.17853 17.2421C2.17853 17.9817 1.57682 18.5834 0.837252 18.5834C0.374866 18.5834 0 18.9582 0 19.4207V21.3218C0 21.7843 0.374866 22.159 0.837252 22.159C2.32365 22.159 3.65712 21.4952 4.55945 20.4494H11.2422C11.7046 20.4494 12.0794 20.0746 12.0794 19.6121V18.8067C12.0795 18.3442 11.7047 17.9694 11.2423 17.9694ZM22.8507 15.3972C23.3907 15.0793 23.7927 14.5494 23.9385 13.9244C24.0793 13.3208 23.9764 12.6985 23.6491 12.1722C23.3218 11.6459 22.8092 11.2786 22.2055 11.1379C22.0322 11.0975 21.8547 11.0769 21.678 11.0769C20.977 11.0769 20.3337 11.3875 19.9019 11.9047C19.7885 11.893 19.6748 11.887 19.5611 11.887C18.0227 11.887 16.7041 12.9345 16.3543 14.4344C16.2445 14.9056 16.2409 15.3899 16.3389 15.8554C15.8417 16.116 15.427 16.5174 15.1512 17.0082C15.1249 17.0071 15.0984 17.0067 15.072 17.0067C14.0774 17.0067 13.2251 17.6836 12.9992 18.6531C12.87 19.2071 12.9643 19.7783 13.2648 20.2613C13.5652 20.7444 14.0358 21.0816 14.5897 21.2106C14.7487 21.2477 14.9116 21.2665 15.0739 21.2665C15.4876 21.2665 15.8894 21.1426 16.23 20.922C16.4743 21.063 16.7398 21.168 17.0197 21.2333C17.2357 21.2836 17.4569 21.3093 17.6773 21.3093C18.4068 21.3093 19.0972 21.0331 19.6215 20.556C19.8172 20.6556 20.0256 20.7316 20.243 20.7823C20.448 20.8302 20.6581 20.8544 20.8676 20.8544C22.1488 20.8544 23.2473 19.982 23.5385 18.7328C23.7688 17.745 23.4434 16.7485 22.7297 16.0937C22.7453 16.0396 22.7595 15.9851 22.7723 15.9303C22.8132 15.755 22.8395 15.5768 22.8507 15.3972Z" fill="#1A9E75"/>
</svg>
