<svg width="24" height="17" viewBox="0 0 24 17" fill="none" xmlns="http://www.w3.org/2000/svg">
<line x1="0.602783" y1="16.3354" x2="22.7509" y2="16.3355" stroke="#212121"/>
<rect x="1.59145" y="9.92434" width="21.8319" height="0.869919" stroke="#212121" stroke-width="0.869919"/>
<line x1="4.9787" y1="9.48938" x2="4.9787" y2="11.0359" stroke="#212121"/>
<line x1="8.85468" y1="9.48938" x2="8.85468" y2="11.2292" stroke="#212121"/>
<line x1="12.7305" y1="9.48938" x2="12.7305" y2="11.2292" stroke="#212121"/>
<line x1="20.4824" y1="9.48938" x2="20.4824" y2="11.2292" stroke="#212121"/>
<path d="M13.5611 10.5207C13.5611 8.73268 15.0106 7.2832 16.7986 7.2832C18.5866 7.2832 20.0361 8.73268 20.0361 10.5207V16.1423H13.5611V10.5207Z" fill="white" stroke="#212121"/>
<rect x="13.5611" y="2.06372" width="6.19815" height="1.89973" rx="0.949865" stroke="#212121"/>
<line x1="16.8834" y1="4.46338" x2="16.8834" y2="6.97648" stroke="#212121"/>
<line x1="16.8834" y1="0.403809" x2="16.8834" y2="1.5637" stroke="#212121"/>
<rect x="14.7222" y="2.72363" width="1.38426" height="0.966576" fill="#1A9E75"/>
<rect x="17.2139" y="2.72363" width="1.38426" height="0.966576" fill="#1A9E75"/>
</svg>
