<svg width="20" height="13" viewBox="0 0 20 13" fill="none" xmlns="http://www.w3.org/2000/svg">
<path d="M5.61047 9.65737C5.61047 10.0105 5.21259 10.2968 4.72163 10.2968C4.23067 10.2968 3.83258 10.0105 3.83258 9.65737C3.83258 9.30409 4.23067 9.01782 4.72163 9.01782C5.21259 9.01782 5.61047 9.30408 5.61047 9.65737Z" fill="black"/>
<path d="M15.4593 9.65737C15.4593 10.0105 15.0612 10.2968 14.5704 10.2968C14.0795 10.2968 13.6814 10.0105 13.6814 9.65737C13.6814 9.30409 14.0795 9.01782 14.5704 9.01782C15.0612 9.01782 15.4593 9.30408 15.4593 9.65737Z" fill="black"/>
<path d="M7.40612 9.47363C7.07653 9.47363 6.8092 9.6603 6.8092 9.89043C6.8092 10.1206 7.07654 10.3072 7.40612 10.3072H11.8854C12.215 10.3072 12.4823 10.1206 12.4823 9.89043C12.4823 9.66029 12.215 9.47363 11.8854 9.47363H7.40612Z" fill="black"/>
<path d="M18.6003 11.575H0.691395C0.361806 11.575 0.0944824 11.7616 0.0944824 11.9918C0.0944824 12.2219 0.361816 12.4086 0.691395 12.4086H18.6003C18.9299 12.4086 19.1973 12.2219 19.1973 11.9918C19.1973 11.7616 18.9299 11.575 18.6003 11.575Z" fill="black"/>
<path d="M2.19762 10.3078C2.52721 10.3078 2.79453 10.1212 2.79453 9.89102V8.88804C2.79453 8.42717 3.33068 8.05224 3.98942 8.05224L15.3019 8.0521C15.9606 8.0521 16.4964 8.42718 16.4964 8.88789V9.89087C16.4964 10.121 16.7637 10.3077 17.0933 10.3077C17.4229 10.3077 17.6902 10.121 17.6902 9.89087V8.88789C17.6902 8.14194 16.9865 7.50894 16.019 7.29553L15.7333 6.9161H16.7096C17.0391 6.9161 17.3065 6.72943 17.3065 6.4993C17.3065 6.26916 17.0391 6.0825 16.7096 6.0825H15.106L14.3627 5.09478C14 4.61325 13.2911 4.31421 12.5128 4.31421H6.77818C5.99952 4.31421 5.291 4.61341 4.92871 5.09478L4.18522 6.0825H2.58163C2.25204 6.0825 1.98471 6.26917 1.98471 6.4993C1.98471 6.72944 2.25205 6.9161 2.58163 6.9161H3.5575L3.27185 7.29568C2.30434 7.50925 1.60077 8.14224 1.60077 8.88804V9.89102C1.60077 10.1212 1.8681 10.3078 2.19768 10.3078L2.19762 10.3078ZM5.98547 5.48254C6.14079 5.2761 6.44456 5.14787 6.7781 5.14787H12.5132C12.8466 5.14787 13.1505 5.2761 13.3061 5.48269L14.6124 7.21826H4.67929L5.98547 5.48254Z" fill="black"/>
<path d="M2.15929 3.32977C2.52052 3.58375 3.00085 3.72361 3.512 3.72361C4.02314 3.72361 4.50366 3.58361 4.86514 3.32962C5.49265 2.88796 5.6049 2.20904 5.13831 1.67839L4.02086 0.407476C3.91239 0.283902 3.71959 0.20874 3.51222 0.20874C3.30484 0.20874 3.11205 0.284047 3.00357 0.407476L1.88613 1.67827C1.41954 2.20892 1.53176 2.88785 2.15929 3.32951C2.15908 3.3298 2.15929 3.32977 2.15929 3.32977ZM2.9032 2.11469L3.51222 1.42225L4.12123 2.11484C4.29862 2.31663 4.25614 2.57466 4.01817 2.74244C3.7475 2.93275 3.27718 2.93275 3.00668 2.74244C2.76829 2.57453 2.72561 2.31648 2.9032 2.11469Z" fill="#1A9E75"/>
<path d="M9.64582 3.72346C10.1574 3.72346 10.6377 3.58346 10.9985 3.32962C11.6267 2.88811 11.7391 2.20904 11.2723 1.67839L10.1549 0.407475C10.0464 0.283901 9.8536 0.20874 9.64623 0.20874C9.43885 0.20874 9.24606 0.284046 9.13758 0.407475L8.02014 1.67827C7.55314 2.20907 7.66578 2.888 8.29351 3.32966C8.65412 3.5835 9.13443 3.7235 9.6458 3.7235L9.64582 3.72346ZM9.03702 2.11454L9.64603 1.4221L10.255 2.11469C10.4324 2.31648 10.39 2.57451 10.1516 2.74229C9.88132 2.93245 9.41117 2.93274 9.14051 2.74229C8.9019 2.57452 8.85942 2.3166 9.03702 2.11454Z" fill="#1A9E75"/>
<path d="M15.7791 3.81309H15.7794C16.2907 3.81294 16.771 3.67309 17.1325 3.4191C17.76 2.97759 17.8722 2.29851 17.4057 1.76786L16.2882 0.496953C16.1797 0.373379 15.9869 0.298218 15.7796 0.298218C15.5722 0.298218 15.3794 0.373524 15.2709 0.496953L14.1535 1.76786C13.6869 2.29866 13.7993 2.97759 14.4273 3.4191C14.7877 3.67308 15.2682 3.81294 15.7791 3.81309ZM15.1706 2.20417L15.7796 1.51173L16.3886 2.20417C16.566 2.4061 16.5235 2.66429 16.2855 2.83177C16.1504 2.92685 15.9707 2.97933 15.7798 2.97933C15.5893 2.97918 15.4096 2.92685 15.2743 2.83177C15.0355 2.66414 14.993 2.40596 15.1706 2.20417Z" fill="#1A9E75"/>
</svg>
