<svg width="34" height="26" viewBox="0 0 34 26" fill="none" xmlns="http://www.w3.org/2000/svg">
<path d="M1 4.55273H8.86377L11.2584 10.9384M11.2584 10.9384C12.0664 11.0468 13.7299 11.6597 13.9191 13.2443C14.1083 14.8289 14.195 18.5558 14.2147 20.2212H1V17.2057H4.518V14.1903H1V10.9384H11.2584Z" stroke="black"/>
<path d="M12.7342 20.4576V23.0829C12.7342 23.6965 12.7116 24.3626 12.2613 24.7794C11.6613 25.3349 10.6219 25.6596 9.80029 25.2544C8.82542 24.7737 8.80235 23.4508 8.80235 22.3639V20.4576" stroke="black"/>
<path d="M24.206 10.8496L22.0775 9.93315C20.1267 9.54883 20.1267 11.5591 21.368 12.0321L24.6495 13.392C26.1158 13.6995 26.6992 11.431 26.8076 10.2583L29.6161 13.5694V21.084C29.6161 22.7685 30.6242 25.4741 32.0592 24.5917C33.0402 23.9885 32.9878 22.9057 32.9902 21.754C32.999 17.4624 33.0069 11.2393 32.9863 11.1157C32.9626 10.9738 32.8582 10.8003 32.8089 10.7314L28.2266 5.85345C27.2096 4.50537 26.305 5.70563 25.9798 6.47427L24.206 10.8496Z" stroke="black"/>
<circle cx="9.80971" cy="15.6093" r="1.09641" stroke="#1A9E75"/>
<circle cx="5.76162" cy="8.12981" r="1.86247" fill="black"/>
<path d="M16.5768 7.86688L11.1124 9.83708L11.4268 10.7857L12.4423 11.1749L17.1812 9.35061C18.3176 8.83982 17.4956 7.50203 16.5768 7.86688Z" stroke="black"/>
<circle cx="18.4156" cy="11.9139" r="1.06684" stroke="#1A9E75"/>
<path d="M18.4151 13.161V14.7598M19.7901 16.3586H18.4151V14.7598M18.4151 14.7598H19.7901" stroke="#1A9E75"/>
<path d="M26.2083 2.57903C26.4651 3.26301 26.4871 4.00313 26.2696 4.63656C26.0521 5.27 25.6129 5.74486 25.0485 5.95668C24.4842 6.1685 23.841 6.09994 23.2604 5.76607C22.6798 5.4322 22.2094 4.86037 21.9527 4.17639L24.0805 3.37771L26.2083 2.57903Z" fill="black"/>
<rect x="21.0439" y="1.5105" width="4.37533" height="2.13344" transform="rotate(-20.1957 21.0439 1.5105)" fill="black"/>
</svg>
