<svg width="23" height="22" viewBox="0 0 23 22" fill="none" xmlns="http://www.w3.org/2000/svg">
<path d="M6.64134 16.2913C6.64134 16.9002 6.16229 17.3938 5.57116 17.3938C4.98004 17.3938 4.50073 16.9002 4.50073 16.2913C4.50073 15.6821 4.98004 15.1885 5.57116 15.1885C6.16229 15.1885 6.64134 15.6821 6.64134 16.2913Z" fill="#1A9E75"/>
<path d="M18.4995 16.2913C18.4995 16.9002 18.0202 17.3938 17.4293 17.3938C16.8382 17.3938 16.3589 16.9002 16.3589 16.2913C16.3589 15.6821 16.8382 15.1885 17.4293 15.1885C18.0202 15.1885 18.4995 15.6821 18.4995 16.2913Z" fill="#1A9E75"/>
<path d="M8.80341 15.9756C8.40658 15.9756 8.08472 16.2975 8.08472 16.6943C8.08472 17.0911 8.40659 17.413 8.80341 17.413H14.1966C14.5934 17.413 14.9153 17.0911 14.9153 16.6943C14.9153 16.2974 14.5934 15.9756 14.1966 15.9756H8.80341Z" fill="#1A9E75"/>
<path d="M22.2813 19.5986H0.71869C0.321861 19.5986 0 19.9205 0 20.3173C0 20.7142 0.321874 21.036 0.71869 21.036H22.2813C22.6781 21.036 23 20.7141 23 20.3173C23 19.9205 22.6781 19.5986 22.2813 19.5986Z" fill="#1A9E75"/>
<path d="M2.53227 17.4139C2.9291 17.4139 3.25096 17.092 3.25096 16.6952V14.9658C3.25096 14.1711 3.89649 13.5246 4.68963 13.5246L18.31 13.5243C19.1031 13.5243 19.7482 14.1711 19.7482 14.9655V16.6949C19.7482 17.0918 20.07 17.4136 20.4669 17.4136C20.8637 17.4136 21.1855 17.0918 21.1855 16.6949V14.9655C21.1855 13.6793 20.3383 12.5878 19.1734 12.2198L18.8294 11.5655H20.0048C20.4017 11.5655 20.7235 11.2437 20.7235 10.8468C20.7235 10.45 20.4017 10.1282 20.0048 10.1282H18.0741L17.1792 8.42503C16.7425 7.59474 15.8889 7.0791 14.9519 7.0791H8.04734C7.10981 7.0791 6.25674 7.59501 5.82055 8.42503L4.92538 10.1282H2.99462C2.5978 10.1282 2.27593 10.45 2.27593 10.8468C2.27593 11.2437 2.59781 11.5655 2.99462 11.5655H4.1696L3.82566 12.2201C2.66076 12.5883 1.81366 13.6798 1.81366 14.9658V16.6952C1.81366 17.092 2.13553 17.4139 2.53235 17.4139L2.53227 17.4139ZM7.0929 9.09366C7.27991 8.73769 7.64565 8.51659 8.04723 8.51659H14.9524C15.3537 8.51659 15.7197 8.73769 15.907 9.09391L17.4798 12.0866H5.52024L7.0929 9.09366Z" fill="#1A9E75"/>
<path d="M2.48609 5.3816C2.92102 5.81953 3.49935 6.06069 4.11478 6.06069C4.7302 6.06069 5.30874 5.81928 5.74398 5.38134C6.4995 4.61978 6.63465 3.44911 6.07287 2.53411L4.72745 0.342679C4.59684 0.129601 4.36472 0 4.11504 0C3.86535 0 3.63323 0.129851 3.50262 0.342679L2.1572 2.53392C1.59542 3.44892 1.73054 4.61959 2.48609 5.38115C2.48584 5.38165 2.48609 5.3816 2.48609 5.3816ZM3.38178 3.28643L4.11504 2.09246L4.84829 3.28668C5.06187 3.63463 5.01073 4.07956 4.72421 4.36886C4.39832 4.697 3.83205 4.697 3.50637 4.36886C3.21933 4.07932 3.16795 3.63438 3.38178 3.28643Z" fill="#1A9E75"/>
<path d="M11.5 6.06043C12.1159 6.06043 12.6942 5.81903 13.1287 5.38134C13.885 4.62004 14.0204 3.44911 13.4583 2.53411L12.1129 0.342679C11.9823 0.1296 11.7502 0 11.5005 0C11.2508 0 11.0187 0.12985 10.8881 0.342679L9.54265 2.53392C8.98037 3.44917 9.11599 4.61984 9.87179 5.3814C10.306 5.81909 10.8843 6.0605 11.5 6.0605L11.5 6.06043ZM10.767 3.28617L11.5002 2.0922L12.2335 3.28643C12.4471 3.63437 12.3959 4.0793 12.1089 4.3686C11.7835 4.69649 11.2175 4.69699 10.8916 4.3686C10.6043 4.07931 10.5532 3.63457 10.767 3.28617Z" fill="#1A9E75"/>
<path d="M18.8845 6.21499H18.8848C19.5005 6.21473 20.0788 5.97358 20.514 5.53563C21.2695 4.77433 21.4047 3.6034 20.8429 2.68841L19.4975 0.496976C19.3669 0.283897 19.1347 0.154297 18.885 0.154297C18.6354 0.154297 18.4032 0.284147 18.2726 0.496976L16.9272 2.68841C16.3654 3.60366 16.5008 4.77433 17.2569 5.53563C17.6908 5.97357 18.2694 6.21473 18.8845 6.21499ZM18.1518 3.44072L18.8851 2.24676L19.6183 3.44072C19.8319 3.78892 19.7808 4.23411 19.4942 4.5229C19.3315 4.68684 19.1152 4.77734 18.8853 4.77734C18.6559 4.77709 18.4396 4.68684 18.2767 4.5229C17.9891 4.23386 17.938 3.78868 18.1518 3.44072Z" fill="#1A9E75"/>
</svg>
