<svg width="23" height="22" viewBox="0 0 23 22" fill="none" xmlns="http://www.w3.org/2000/svg">
<path d="M6.64134 16.2917C6.64134 16.9006 6.16229 17.3943 5.57116 17.3943C4.98004 17.3943 4.50073 16.9007 4.50073 16.2917C4.50073 15.6826 4.98004 15.189 5.57116 15.189C6.16229 15.189 6.64134 15.6826 6.64134 16.2917Z" fill="#1A9E75"/>
<path d="M18.4995 16.2917C18.4995 16.9006 18.0202 17.3943 17.4293 17.3943C16.8382 17.3943 16.3589 16.9007 16.3589 16.2917C16.3589 15.6826 16.8382 15.189 17.4293 15.189C18.0202 15.189 18.4995 15.6826 18.4995 16.2917Z" fill="#1A9E75"/>
<path d="M8.80338 15.9756C8.40655 15.9756 8.08469 16.2975 8.08469 16.6943C8.08469 17.0911 8.40656 17.413 8.80338 17.413H14.1965C14.5934 17.413 14.9152 17.0911 14.9152 16.6943C14.9152 16.2974 14.5934 15.9756 14.1965 15.9756H8.80338Z" fill="#1A9E75"/>
<path d="M22.2813 19.5989H0.71869C0.321861 19.5989 0 19.9208 0 20.3176C0 20.7144 0.321874 21.0363 0.71869 21.0363H22.2813C22.6781 21.0363 23 20.7144 23 20.3176C23 19.9207 22.6781 19.5989 22.2813 19.5989Z" fill="#1A9E75"/>
<path d="M2.53226 17.4136C2.92909 17.4136 3.25095 17.0918 3.25095 16.6949V14.9655C3.25095 14.1708 3.89648 13.5243 4.68961 13.5243L18.31 13.5241C19.1031 13.5241 19.7482 14.1708 19.7482 14.9653V16.6947C19.7482 17.0915 20.07 17.4134 20.4668 17.4134C20.8637 17.4134 21.1855 17.0915 21.1855 16.6947V14.9653C21.1855 13.679 20.3382 12.5875 19.1733 12.2196L18.8294 11.5653H20.0048C20.4017 11.5653 20.7235 11.2434 20.7235 10.8466C20.7235 10.4498 20.4016 10.1279 20.0048 10.1279H18.0741L17.1792 8.42479C16.7425 7.5945 15.8889 7.07886 14.9519 7.07886H8.04732C7.1098 7.07886 6.25673 7.59476 5.82053 8.42479L4.92536 10.1279H2.99461C2.59778 10.1279 2.27592 10.4498 2.27592 10.8466C2.27592 11.2434 2.59779 11.5653 2.99461 11.5653H4.16958L3.82564 12.2198C2.66075 12.5881 1.81364 13.6795 1.81364 14.9655V16.695C1.81364 17.0918 2.13552 17.4136 2.53233 17.4136L2.53226 17.4136ZM7.09288 9.09342C7.27989 8.73745 7.64563 8.51635 8.04722 8.51635H14.9524C15.3537 8.51635 15.7197 8.73745 15.907 9.09367L17.4798 12.0863H5.52022L7.09288 9.09342Z" fill="#1A9E75"/>
<path d="M2.48608 5.3816C2.92101 5.81953 3.49933 6.06069 4.11476 6.06069C4.73018 6.06069 5.30873 5.81928 5.74396 5.38134C6.49949 4.61978 6.63464 3.44911 6.07285 2.53411L4.72744 0.342679C4.59683 0.129601 4.3647 0 4.11502 0C3.86534 0 3.63321 0.129851 3.5026 0.342679L2.15718 2.53392C1.59541 3.44892 1.73053 4.61959 2.48608 5.38115C2.48583 5.38165 2.48608 5.3816 2.48608 5.3816ZM3.38176 3.28643L4.11502 2.09246L4.84828 3.28668C5.06186 3.63463 5.01072 4.07956 4.72419 4.36886C4.39831 4.697 3.83204 4.697 3.50635 4.36886C3.21932 4.07932 3.16793 3.63438 3.38176 3.28643Z" fill="#1A9E75"/>
<path d="M11.5 6.06043C12.1159 6.06043 12.6942 5.81903 13.1287 5.38134C13.885 4.62004 14.0204 3.44911 13.4583 2.53411L12.1129 0.342679C11.9823 0.1296 11.7502 0 11.5005 0C11.2508 0 11.0187 0.12985 10.8881 0.342679L9.54267 2.53392C8.98039 3.44917 9.11601 4.61984 9.87181 5.3814C10.306 5.81909 10.8843 6.0605 11.5 6.0605L11.5 6.06043ZM10.767 3.28617L11.5003 2.0922L12.2335 3.28643C12.4471 3.63437 12.396 4.0793 12.1089 4.3686C11.7835 4.69649 11.2175 4.69699 10.8916 4.3686C10.6043 4.07931 10.5532 3.63457 10.767 3.28617Z" fill="#1A9E75"/>
<path d="M18.8846 6.21523H18.8848C19.5005 6.21498 20.0788 5.97382 20.514 5.53588C21.2696 4.77458 21.4047 3.60365 20.8429 2.68865L19.4975 0.49722C19.3669 0.284141 19.1348 0.154541 18.8851 0.154541C18.6354 0.154541 18.4033 0.284392 18.2727 0.49722L16.9273 2.68865C16.3655 3.60391 16.5009 4.77458 17.2569 5.53588C17.6908 5.97382 18.2694 6.21497 18.8846 6.21523ZM18.1518 3.44097L18.8851 2.247L19.6184 3.44097C19.8319 3.78917 19.7808 4.23436 19.4943 4.52314C19.3316 4.68709 19.1152 4.77758 18.8854 4.77758C18.656 4.77733 18.4397 4.68708 18.2767 4.52314C17.9892 4.23411 17.938 3.78892 18.1518 3.44097Z" fill="#1A9E75"/>
</svg>
