<svg width="72" height="9" viewBox="0 0 72 9" fill="none" xmlns="http://www.w3.org/2000/svg">
<path d="M4.912 0.424V6H4.184V3.472H1.344V6H0.616V0.424H1.344V2.872H4.184V0.424H4.912ZM5.88306 3.792C5.88306 3.344 5.97373 2.952 6.15506 2.616C6.3364 2.27467 6.5844 2.01067 6.89906 1.824C7.21906 1.63733 7.57373 1.544 7.96306 1.544C8.34706 1.544 8.6804 1.62667 8.96306 1.792C9.24573 1.95733 9.4564 2.16533 9.59506 2.416V1.616H10.3311V6H9.59506V5.184C9.45106 5.44 9.23506 5.65333 8.94706 5.824C8.6644 5.98933 8.33373 6.072 7.95506 6.072C7.56573 6.072 7.21373 5.976 6.89906 5.784C6.5844 5.592 6.3364 5.32267 6.15506 4.976C5.97373 4.62933 5.88306 4.23467 5.88306 3.792ZM9.59506 3.8C9.59506 3.46933 9.5284 3.18133 9.39506 2.936C9.26173 2.69067 9.0804 2.504 8.85106 2.376C8.62706 2.24267 8.37906 2.176 8.10706 2.176C7.83506 2.176 7.58706 2.24 7.36306 2.368C7.13906 2.496 6.9604 2.68267 6.82706 2.928C6.69373 3.17333 6.62706 3.46133 6.62706 3.792C6.62706 4.128 6.69373 4.42133 6.82706 4.672C6.9604 4.91733 7.13906 5.10667 7.36306 5.24C7.58706 5.368 7.83506 5.432 8.10706 5.432C8.37906 5.432 8.62706 5.368 8.85106 5.24C9.0804 5.10667 9.26173 4.91733 9.39506 4.672C9.5284 4.42133 9.59506 4.13067 9.59506 3.8ZM12.2893 2.424C12.4333 2.17333 12.6466 1.96533 12.9293 1.8C13.2173 1.62933 13.5506 1.544 13.9293 1.544C14.3186 1.544 14.6706 1.63733 14.9853 1.824C15.3053 2.01067 15.556 2.27467 15.7373 2.616C15.9186 2.952 16.0093 3.344 16.0093 3.792C16.0093 4.23467 15.9186 4.62933 15.7373 4.976C15.556 5.32267 15.3053 5.592 14.9853 5.784C14.6706 5.976 14.3186 6.072 13.9293 6.072C13.556 6.072 13.2253 5.98933 12.9373 5.824C12.6546 5.65333 12.4386 5.44267 12.2893 5.192V8.08H11.5613V1.616H12.2893V2.424ZM15.2653 3.792C15.2653 3.46133 15.1986 3.17333 15.0653 2.928C14.932 2.68267 14.7506 2.496 14.5213 2.368C14.2973 2.24 14.0493 2.176 13.7773 2.176C13.5106 2.176 13.2626 2.24267 13.0333 2.376C12.8093 2.504 12.628 2.69333 12.4893 2.944C12.356 3.18933 12.2893 3.47467 12.2893 3.8C12.2893 4.13067 12.356 4.42133 12.4893 4.672C12.628 4.91733 12.8093 5.10667 13.0333 5.24C13.2626 5.368 13.5106 5.432 13.7773 5.432C14.0493 5.432 14.2973 5.368 14.5213 5.24C14.7506 5.10667 14.932 4.91733 15.0653 4.672C15.1986 4.42133 15.2653 4.128 15.2653 3.792ZM17.6956 2.424C17.8396 2.17333 18.0529 1.96533 18.3356 1.8C18.6236 1.62933 18.9569 1.544 19.3356 1.544C19.7249 1.544 20.0769 1.63733 20.3916 1.824C20.7116 2.01067 20.9622 2.27467 21.1436 2.616C21.3249 2.952 21.4156 3.344 21.4156 3.792C21.4156 4.23467 21.3249 4.62933 21.1436 4.976C20.9622 5.32267 20.7116 5.592 20.3916 5.784C20.0769 5.976 19.7249 6.072 19.3356 6.072C18.9622 6.072 18.6316 5.98933 18.3436 5.824C18.0609 5.65333 17.8449 5.44267 17.6956 5.192V8.08H16.9676V1.616H17.6956V2.424ZM20.6716 3.792C20.6716 3.46133 20.6049 3.17333 20.4716 2.928C20.3382 2.68267 20.1569 2.496 19.9276 2.368C19.7036 2.24 19.4556 2.176 19.1836 2.176C18.9169 2.176 18.6689 2.24267 18.4396 2.376C18.2156 2.504 18.0342 2.69333 17.8956 2.944C17.7622 3.18933 17.6956 3.47467 17.6956 3.8C17.6956 4.13067 17.7622 4.42133 17.8956 4.672C18.0342 4.91733 18.2156 5.10667 18.4396 5.24C18.6689 5.368 18.9169 5.432 19.1836 5.432C19.4556 5.432 19.7036 5.368 19.9276 5.24C20.1569 5.10667 20.3382 4.91733 20.4716 4.672C20.6049 4.42133 20.6716 4.128 20.6716 3.792ZM26.1498 1.616L23.5098 8.064H22.7578L23.6218 5.952L21.8538 1.616H22.6618L24.0378 5.168L25.3978 1.616H26.1498ZM28.7424 3.208C28.7424 2.664 28.8651 2.176 29.1104 1.744C29.3558 1.30667 29.6891 0.965333 30.1104 0.72C30.5371 0.474666 31.0091 0.352 31.5264 0.352C32.1344 0.352 32.6651 0.498666 33.1184 0.792C33.5718 1.08533 33.9024 1.50133 34.1104 2.04H33.2384C33.0838 1.704 32.8598 1.44533 32.5664 1.264C32.2784 1.08267 31.9318 0.992 31.5264 0.992C31.1371 0.992 30.7878 1.08267 30.4784 1.264C30.1691 1.44533 29.9264 1.704 29.7504 2.04C29.5744 2.37067 29.4864 2.76 29.4864 3.208C29.4864 3.65067 29.5744 4.04 29.7504 4.376C29.9264 4.70667 30.1691 4.96267 30.4784 5.144C30.7878 5.32533 31.1371 5.416 31.5264 5.416C31.9318 5.416 32.2784 5.328 32.5664 5.152C32.8598 4.97067 33.0838 4.712 33.2384 4.376H34.1104C33.9024 4.90933 33.5718 5.32267 33.1184 5.616C32.6651 5.904 32.1344 6.048 31.5264 6.048C31.0091 6.048 30.5371 5.928 30.1104 5.688C29.6891 5.44267 29.3558 5.104 29.1104 4.672C28.8651 4.24 28.7424 3.752 28.7424 3.208ZM39.0821 1.616V6H38.3541V5.352C38.2155 5.576 38.0208 5.752 37.7701 5.88C37.5248 6.00267 37.2528 6.064 36.9541 6.064C36.6128 6.064 36.3061 5.99467 36.0341 5.856C35.7621 5.712 35.5461 5.49867 35.3861 5.216C35.2315 4.93333 35.1541 4.58933 35.1541 4.184V1.616H35.8741V4.088C35.8741 4.52 35.9835 4.85333 36.2021 5.088C36.4208 5.31733 36.7195 5.432 37.0981 5.432C37.4875 5.432 37.7941 5.312 38.0181 5.072C38.2421 4.832 38.3541 4.48267 38.3541 4.024V1.616H39.0821ZM41.8633 6.072C41.5273 6.072 41.226 6.016 40.9593 5.904C40.6926 5.78667 40.482 5.62667 40.3273 5.424C40.1726 5.216 40.0873 4.97867 40.0713 4.712H40.8233C40.8446 4.93067 40.946 5.10933 41.1273 5.248C41.314 5.38667 41.5566 5.456 41.8553 5.456C42.1326 5.456 42.3513 5.39467 42.5113 5.272C42.6713 5.14933 42.7513 4.99467 42.7513 4.808C42.7513 4.616 42.666 4.47467 42.4953 4.384C42.3246 4.288 42.0606 4.19467 41.7033 4.104C41.378 4.01867 41.1113 3.93333 40.9033 3.848C40.7006 3.75733 40.5246 3.62667 40.3753 3.456C40.2313 3.28 40.1593 3.05067 40.1593 2.768C40.1593 2.544 40.226 2.33867 40.3593 2.152C40.4926 1.96533 40.682 1.81867 40.9273 1.712C41.1726 1.6 41.4526 1.544 41.7673 1.544C42.2526 1.544 42.6446 1.66667 42.9433 1.912C43.242 2.15733 43.402 2.49333 43.4233 2.92H42.6953C42.6793 2.69067 42.586 2.50667 42.4153 2.368C42.25 2.22933 42.026 2.16 41.7433 2.16C41.482 2.16 41.274 2.216 41.1193 2.328C40.9646 2.44 40.8873 2.58667 40.8873 2.768C40.8873 2.912 40.9326 3.032 41.0233 3.128C41.1193 3.21867 41.2366 3.29333 41.3753 3.352C41.5193 3.40533 41.7166 3.46667 41.9673 3.536C42.282 3.62133 42.538 3.70667 42.7353 3.792C42.9326 3.872 43.1006 3.99467 43.2393 4.16C43.3833 4.32533 43.458 4.54133 43.4633 4.808C43.4633 5.048 43.3966 5.264 43.2633 5.456C43.13 5.648 42.9406 5.8 42.6953 5.912C42.4553 6.01867 42.178 6.072 41.8633 6.072ZM45.379 2.216V4.8C45.379 5.01333 45.4243 5.16533 45.515 5.256C45.6057 5.34133 45.763 5.384 45.987 5.384H46.523V6H45.867C45.4617 6 45.1577 5.90667 44.955 5.72C44.7523 5.53333 44.651 5.22667 44.651 4.8V2.216H44.083V1.616H44.651V0.512H45.379V1.616H46.523V2.216H45.379ZM49.3171 6.072C48.9064 6.072 48.5331 5.97867 48.1971 5.792C47.8664 5.60533 47.6051 5.34133 47.4131 5C47.2264 4.65333 47.1331 4.25333 47.1331 3.8C47.1331 3.352 47.2291 2.95733 47.4211 2.616C47.6184 2.26933 47.8851 2.00533 48.2211 1.824C48.5571 1.63733 48.9331 1.544 49.3491 1.544C49.7651 1.544 50.1411 1.63733 50.4771 1.824C50.8131 2.00533 51.0771 2.26667 51.2691 2.608C51.4664 2.94933 51.5651 3.34667 51.5651 3.8C51.5651 4.25333 51.4637 4.65333 51.2611 5C51.0637 5.34133 50.7944 5.60533 50.4531 5.792C50.1117 5.97867 49.7331 6.072 49.3171 6.072ZM49.3171 5.432C49.5784 5.432 49.8237 5.37067 50.0531 5.248C50.2824 5.12533 50.4664 4.94133 50.6051 4.696C50.7491 4.45067 50.8211 4.152 50.8211 3.8C50.8211 3.448 50.7517 3.14933 50.6131 2.904C50.4744 2.65867 50.2931 2.47733 50.0691 2.36C49.8451 2.23733 49.6024 2.176 49.3411 2.176C49.0744 2.176 48.8291 2.23733 48.6051 2.36C48.3864 2.47733 48.2104 2.65867 48.0771 2.904C47.9437 3.14933 47.8771 3.448 47.8771 3.8C47.8771 4.15733 47.9411 4.45867 48.0691 4.704C48.2024 4.94933 48.3784 5.13333 48.5971 5.256C48.8157 5.37333 49.0557 5.432 49.3171 5.432ZM57.7943 1.536C58.1356 1.536 58.4396 1.608 58.7063 1.752C58.9729 1.89067 59.1836 2.10133 59.3383 2.384C59.4929 2.66667 59.5703 3.01067 59.5703 3.416V6H58.8503V3.52C58.8503 3.08267 58.7409 2.74933 58.5223 2.52C58.3089 2.28533 58.0183 2.168 57.6503 2.168C57.2716 2.168 56.9703 2.29067 56.7463 2.536C56.5223 2.776 56.4103 3.12533 56.4103 3.584V6H55.6903V3.52C55.6903 3.08267 55.5809 2.74933 55.3623 2.52C55.1489 2.28533 54.8583 2.168 54.4903 2.168C54.1116 2.168 53.8103 2.29067 53.5863 2.536C53.3623 2.776 53.2503 3.12533 53.2503 3.584V6H52.5223V1.616H53.2503V2.248C53.3943 2.01867 53.5863 1.84267 53.8263 1.72C54.0716 1.59733 54.3409 1.536 54.6343 1.536C55.0023 1.536 55.3276 1.61867 55.6103 1.784C55.8929 1.94933 56.1036 2.192 56.2423 2.512C56.3649 2.20267 56.5676 1.96267 56.8503 1.792C57.1329 1.62133 57.4476 1.536 57.7943 1.536ZM64.7644 3.64C64.7644 3.77867 64.7564 3.92533 64.7404 4.08H61.2364C61.2631 4.512 61.4098 4.85067 61.6764 5.096C61.9484 5.336 62.2764 5.456 62.6604 5.456C62.9751 5.456 63.2364 5.384 63.4444 5.24C63.6578 5.09067 63.8071 4.89333 63.8924 4.648H64.6764C64.5591 5.06933 64.3244 5.41333 63.9724 5.68C63.6204 5.94133 63.1831 6.072 62.6604 6.072C62.2444 6.072 61.8711 5.97867 61.5404 5.792C61.2151 5.60533 60.9591 5.34133 60.7724 5C60.5858 4.65333 60.4924 4.25333 60.4924 3.8C60.4924 3.34667 60.5831 2.94933 60.7644 2.608C60.9458 2.26667 61.1991 2.00533 61.5244 1.824C61.8551 1.63733 62.2338 1.544 62.6604 1.544C63.0764 1.544 63.4444 1.63467 63.7644 1.816C64.0844 1.99733 64.3298 2.248 64.5004 2.568C64.6764 2.88267 64.7644 3.24 64.7644 3.64ZM64.0124 3.488C64.0124 3.21067 63.9511 2.97333 63.8284 2.776C63.7058 2.57333 63.5378 2.42133 63.3244 2.32C63.1164 2.21333 62.8844 2.16 62.6284 2.16C62.2604 2.16 61.9458 2.27733 61.6844 2.512C61.4284 2.74667 61.2818 3.072 61.2444 3.488H64.0124ZM66.4534 2.328C66.5814 2.07733 66.7627 1.88267 66.9974 1.744C67.2374 1.60533 67.528 1.536 67.8694 1.536V2.288H67.6774C66.8614 2.288 66.4534 2.73067 66.4534 3.616V6H65.7254V1.616H66.4534V2.328ZM70.2618 6.072C69.9258 6.072 69.6244 6.016 69.3578 5.904C69.0911 5.78667 68.8804 5.62667 68.7258 5.424C68.5711 5.216 68.4858 4.97867 68.4698 4.712H69.2218C69.2431 4.93067 69.3444 5.10933 69.5258 5.248C69.7124 5.38667 69.9551 5.456 70.2538 5.456C70.5311 5.456 70.7498 5.39467 70.9098 5.272C71.0698 5.14933 71.1498 4.99467 71.1498 4.808C71.1498 4.616 71.0644 4.47467 70.8938 4.384C70.7231 4.288 70.4591 4.19467 70.1018 4.104C69.7764 4.01867 69.5098 3.93333 69.3018 3.848C69.0991 3.75733 68.9231 3.62667 68.7738 3.456C68.6298 3.28 68.5578 3.05067 68.5578 2.768C68.5578 2.544 68.6244 2.33867 68.7578 2.152C68.8911 1.96533 69.0804 1.81867 69.3258 1.712C69.5711 1.6 69.8511 1.544 70.1658 1.544C70.6511 1.544 71.0431 1.66667 71.3418 1.912C71.6404 2.15733 71.8004 2.49333 71.8218 2.92H71.0938C71.0778 2.69067 70.9844 2.50667 70.8138 2.368C70.6484 2.22933 70.4244 2.16 70.1418 2.16C69.8804 2.16 69.6724 2.216 69.5178 2.328C69.3631 2.44 69.2858 2.58667 69.2858 2.768C69.2858 2.912 69.3311 3.032 69.4218 3.128C69.5178 3.21867 69.6351 3.29333 69.7738 3.352C69.9178 3.40533 70.1151 3.46667 70.3658 3.536C70.6804 3.62133 70.9364 3.70667 71.1338 3.792C71.3311 3.872 71.4991 3.99467 71.6378 4.16C71.7818 4.32533 71.8564 4.54133 71.8618 4.808C71.8618 5.048 71.7951 5.264 71.6618 5.456C71.5284 5.648 71.3391 5.8 71.0938 5.912C70.8538 6.01867 70.5764 6.072 70.2618 6.072Z" fill="white"/>
</svg>
