<svg width="175" height="18" viewBox="0 0 175 18" fill="none" xmlns="http://www.w3.org/2000/svg">
<path d="M9.08 1.88V13H7.256V8.136H2.024V13H0.2V1.88H2.024V6.648H7.256V1.88H9.08ZM15.3053 13.144C14.4733 13.144 13.7213 12.9573 13.0493 12.584C12.3773 12.2 11.8493 11.6667 11.4653 10.984C11.0813 10.2907 10.8893 9.49067 10.8893 8.584C10.8893 7.688 11.0866 6.89333 11.4813 6.2C11.8759 5.50667 12.4146 4.97333 13.0973 4.6C13.7799 4.22667 14.5426 4.04 15.3853 4.04C16.2279 4.04 16.9906 4.22667 17.6733 4.6C18.3559 4.97333 18.8946 5.50667 19.2893 6.2C19.6839 6.89333 19.8813 7.688 19.8813 8.584C19.8813 9.48 19.6786 10.2747 19.2733 10.968C18.8679 11.6613 18.3133 12.2 17.6093 12.584C16.9159 12.9573 16.1479 13.144 15.3053 13.144ZM15.3053 11.56C15.7746 11.56 16.2119 11.448 16.6173 11.224C17.0333 11 17.3693 10.664 17.6253 10.216C17.8813 9.768 18.0093 9.224 18.0093 8.584C18.0093 7.944 17.8866 7.40533 17.6413 6.968C17.3959 6.52 17.0706 6.184 16.6653 5.96C16.2599 5.736 15.8226 5.624 15.3533 5.624C14.8839 5.624 14.4466 5.736 14.0413 5.96C13.6466 6.184 13.3319 6.52 13.0973 6.968C12.8626 7.40533 12.7453 7.944 12.7453 8.584C12.7453 9.53333 12.9853 10.2693 13.4653 10.792C13.9559 11.304 14.5693 11.56 15.3053 11.56ZM33.5244 4.184L30.7884 13H28.8684L27.0924 6.488L25.3164 13H23.3964L20.6444 4.184H22.5004L24.3404 11.272L26.2124 4.184H28.1164L29.9084 11.24L31.7324 4.184H33.5244ZM40.8678 5.48C41.1771 5.07467 41.5984 4.73333 42.1318 4.456C42.6651 4.17867 43.2678 4.04 43.9398 4.04C44.7078 4.04 45.4064 4.232 46.0358 4.616C46.6758 4.98933 47.1771 5.51733 47.5398 6.2C47.9024 6.88267 48.0838 7.66667 48.0838 8.552C48.0838 9.43733 47.9024 10.232 47.5398 10.936C47.1771 11.6293 46.6758 12.1733 46.0358 12.568C45.4064 12.952 44.7078 13.144 43.9398 13.144C43.2678 13.144 42.6704 13.0107 42.1478 12.744C41.6251 12.4667 41.1984 12.1253 40.8678 11.72V17.192H39.0438V4.184H40.8678V5.48ZM46.2278 8.552C46.2278 7.944 46.0998 7.42133 45.8438 6.984C45.5984 6.536 45.2678 6.2 44.8518 5.976C44.4464 5.74133 44.0091 5.624 43.5398 5.624C43.0811 5.624 42.6438 5.74133 42.2278 5.976C41.8224 6.21067 41.4918 6.552 41.2358 7C40.9904 7.448 40.8678 7.976 40.8678 8.584C40.8678 9.192 40.9904 9.72533 41.2358 10.184C41.4918 10.632 41.8224 10.9733 42.2278 11.208C42.6438 11.4427 43.0811 11.56 43.5398 11.56C44.0091 11.56 44.4464 11.4427 44.8518 11.208C45.2678 10.9627 45.5984 10.6107 45.8438 10.152C46.0998 9.69333 46.2278 9.16 46.2278 8.552ZM49.2795 8.552C49.2795 7.66667 49.4608 6.88267 49.8235 6.2C50.1968 5.51733 50.6982 4.98933 51.3275 4.616C51.9675 4.232 52.6715 4.04 53.4395 4.04C54.1328 4.04 54.7355 4.17867 55.2475 4.456C55.7702 4.72267 56.1862 5.05867 56.4955 5.464V4.184H58.3355V13H56.4955V11.688C56.1862 12.104 55.7648 12.4507 55.2315 12.728C54.6982 13.0053 54.0902 13.144 53.4075 13.144C52.6502 13.144 51.9568 12.952 51.3275 12.568C50.6982 12.1733 50.1968 11.6293 49.8235 10.936C49.4608 10.232 49.2795 9.43733 49.2795 8.552ZM56.4955 8.584C56.4955 7.976 56.3675 7.448 56.1115 7C55.8662 6.552 55.5408 6.21067 55.1355 5.976C54.7302 5.74133 54.2928 5.624 53.8235 5.624C53.3542 5.624 52.9168 5.74133 52.5115 5.976C52.1062 6.2 51.7755 6.536 51.5195 6.984C51.2742 7.42133 51.1515 7.944 51.1515 8.552C51.1515 9.16 51.2742 9.69333 51.5195 10.152C51.7755 10.6107 52.1062 10.9627 52.5115 11.208C52.9275 11.4427 53.3648 11.56 53.8235 11.56C54.2928 11.56 54.7302 11.4427 55.1355 11.208C55.5408 10.9733 55.8662 10.632 56.1115 10.184C56.3675 9.72533 56.4955 9.192 56.4955 8.584ZM62.5553 5.464C62.8219 5.016 63.1739 4.66933 63.6113 4.424C64.0593 4.168 64.5873 4.04 65.1953 4.04V5.928H64.7313C64.0166 5.928 63.4726 6.10933 63.0993 6.472C62.7366 6.83467 62.5553 7.464 62.5553 8.36V13H60.7313V4.184H62.5553V5.464ZM70.3599 8.6L74.4239 13H71.9599L68.6959 9.208V13H66.8719V1.16H68.6959V8.04L71.8959 4.184H74.4239L70.3599 8.6ZM75.1233 8.552C75.1233 7.66667 75.3046 6.88267 75.6673 6.2C76.0406 5.51733 76.5419 4.98933 77.1713 4.616C77.8113 4.232 78.5206 4.04 79.2993 4.04C79.9819 4.04 80.5846 4.17867 81.1073 4.456C81.6406 4.73333 82.0513 5.06933 82.3393 5.464V4.184H84.1793V17.192H82.3393V11.72C82.0513 12.1147 81.6353 12.4507 81.0913 12.728C80.5473 13.0053 79.9286 13.144 79.2352 13.144C78.4779 13.144 77.7846 12.952 77.1553 12.568C76.5366 12.1733 76.0406 11.6293 75.6673 10.936C75.3046 10.232 75.1233 9.43733 75.1233 8.552ZM82.3393 8.584C82.3393 7.976 82.2113 7.448 81.9553 7C81.7099 6.552 81.3846 6.21067 80.9793 5.976C80.5739 5.74133 80.1366 5.624 79.6673 5.624C79.1979 5.624 78.7606 5.74133 78.3553 5.976C77.9499 6.2 77.6193 6.536 77.3633 6.984C77.1179 7.42133 76.9953 7.944 76.9953 8.552C76.9953 9.16 77.1179 9.69333 77.3633 10.152C77.6193 10.6107 77.9499 10.9627 78.3553 11.208C78.7713 11.4427 79.2086 11.56 79.6673 11.56C80.1366 11.56 80.5739 11.4427 80.9793 11.208C81.3846 10.9733 81.7099 10.632 81.9553 10.184C82.2113 9.72533 82.3393 9.192 82.3393 8.584ZM98.415 4.184L95.679 13H93.759L91.983 6.488L90.207 13H88.287L85.535 4.184H87.391L89.231 11.272L91.103 4.184H93.007L94.799 11.24L96.623 4.184H98.415ZM100.706 3.016C100.375 3.016 100.098 2.904 99.8741 2.68C99.6501 2.456 99.5381 2.17867 99.5381 1.848C99.5381 1.51733 99.6501 1.24 99.8741 1.016C100.098 0.791999 100.375 0.679999 100.706 0.679999C101.026 0.679999 101.298 0.791999 101.522 1.016C101.746 1.24 101.858 1.51733 101.858 1.848C101.858 2.17867 101.746 2.456 101.522 2.68C101.298 2.904 101.026 3.016 100.706 3.016ZM101.602 4.184V13H99.7781V4.184H101.602ZM107.485 8.6L111.549 13H109.085L105.821 9.208V13H103.997V1.16H105.821V8.04L109.021 4.184H111.549L107.485 8.6ZM128.853 4.184L126.117 13H124.197L122.421 6.488L120.645 13H118.725L115.973 4.184H117.829L119.669 11.272L121.541 4.184H123.445L125.237 11.24L127.061 4.184H128.853ZM134.04 13.144C133.208 13.144 132.456 12.9573 131.784 12.584C131.112 12.2 130.584 11.6667 130.2 10.984C129.816 10.2907 129.624 9.49067 129.624 8.584C129.624 7.688 129.821 6.89333 130.216 6.2C130.61 5.50667 131.149 4.97333 131.832 4.6C132.514 4.22667 133.277 4.04 134.12 4.04C134.962 4.04 135.725 4.22667 136.408 4.6C137.09 4.97333 137.629 5.50667 138.024 6.2C138.418 6.89333 138.616 7.688 138.616 8.584C138.616 9.48 138.413 10.2747 138.008 10.968C137.602 11.6613 137.048 12.2 136.344 12.584C135.65 12.9573 134.882 13.144 134.04 13.144ZM134.04 11.56C134.509 11.56 134.946 11.448 135.352 11.224C135.768 11 136.104 10.664 136.36 10.216C136.616 9.768 136.744 9.224 136.744 8.584C136.744 7.944 136.621 7.40533 136.376 6.968C136.13 6.52 135.805 6.184 135.4 5.96C134.994 5.736 134.557 5.624 134.088 5.624C133.618 5.624 133.181 5.736 132.776 5.96C132.381 6.184 132.066 6.52 131.832 6.968C131.597 7.40533 131.48 7.944 131.48 8.584C131.48 9.53333 131.72 10.2693 132.2 10.792C132.69 11.304 133.304 11.56 134.04 11.56ZM142.243 5.464C142.509 5.016 142.861 4.66933 143.299 4.424C143.747 4.168 144.275 4.04 144.883 4.04V5.928H144.419C143.704 5.928 143.16 6.10933 142.787 6.472C142.424 6.83467 142.243 7.464 142.243 8.36V13H140.419V4.184H142.243V5.464ZM150.047 8.6L154.111 13H151.647L148.383 9.208V13H146.559V1.16H148.383V8.04L151.583 4.184H154.111L150.047 8.6ZM158.619 13.144C157.925 13.144 157.301 13.0213 156.747 12.776C156.203 12.52 155.771 12.1787 155.451 11.752C155.131 11.3147 154.96 10.8293 154.939 10.296H156.827C156.859 10.6693 157.035 10.984 157.355 11.24C157.685 11.4853 158.096 11.608 158.587 11.608C159.099 11.608 159.493 11.512 159.771 11.32C160.059 11.1173 160.203 10.8613 160.203 10.552C160.203 10.2213 160.043 9.976 159.723 9.816C159.413 9.656 158.917 9.48 158.235 9.288C157.573 9.10667 157.035 8.93067 156.619 8.76C156.203 8.58933 155.84 8.328 155.531 7.976C155.232 7.624 155.083 7.16 155.083 6.584C155.083 6.11467 155.221 5.688 155.499 5.304C155.776 4.90933 156.171 4.6 156.683 4.376C157.205 4.152 157.803 4.04 158.475 4.04C159.477 4.04 160.283 4.296 160.891 4.808C161.509 5.30933 161.84 5.99733 161.883 6.872H160.059C160.027 6.47733 159.867 6.16267 159.579 5.928C159.291 5.69333 158.901 5.576 158.411 5.576C157.931 5.576 157.563 5.66667 157.307 5.848C157.051 6.02933 156.923 6.26933 156.923 6.568C156.923 6.80267 157.008 7 157.179 7.16C157.349 7.32 157.557 7.448 157.803 7.544C158.048 7.62933 158.411 7.74133 158.891 7.88C159.531 8.05067 160.053 8.22667 160.459 8.408C160.875 8.57867 161.232 8.83467 161.531 9.176C161.829 9.51733 161.984 9.97067 161.995 10.536C161.995 11.0373 161.856 11.4853 161.579 11.88C161.301 12.2747 160.907 12.584 160.395 12.808C159.893 13.032 159.301 13.144 158.619 13.144ZM171.114 1.72C172.202 1.72 173.071 2.01867 173.722 2.616C174.383 3.21333 174.714 4.02933 174.714 5.064C174.714 6.14133 174.373 6.952 173.69 7.496C173.007 8.04 172.101 8.312 170.97 8.312L170.906 9.576H169.322L169.242 7.064H169.77C170.805 7.064 171.594 6.92533 172.138 6.648C172.693 6.37067 172.97 5.84267 172.97 5.064C172.97 4.49867 172.805 4.056 172.474 3.736C172.154 3.416 171.706 3.256 171.13 3.256C170.554 3.256 170.101 3.41067 169.77 3.72C169.439 4.02933 169.274 4.46133 169.274 5.016H167.562C167.562 4.376 167.706 3.80533 167.994 3.304C168.282 2.80267 168.693 2.41333 169.226 2.136C169.77 1.85867 170.399 1.72 171.114 1.72ZM170.09 13.112C169.759 13.112 169.482 13 169.258 12.776C169.034 12.552 168.922 12.2747 168.922 11.944C168.922 11.6133 169.034 11.336 169.258 11.112C169.482 10.888 169.759 10.776 170.09 10.776C170.41 10.776 170.682 10.888 170.906 11.112C171.13 11.336 171.242 11.6133 171.242 11.944C171.242 12.2747 171.13 12.552 170.906 12.776C170.682 13 170.41 13.112 170.09 13.112Z" fill="#393939"/>
</svg>
