<svg width="23" height="16" viewBox="0 0 23 16" fill="none" xmlns="http://www.w3.org/2000/svg">
<path d="M11.5 6.5C12.2939 6.5 12.9375 6.05228 12.9375 5.5C12.9375 4.94772 12.2939 4.5 11.5 4.5C10.7061 4.5 10.0625 4.94772 10.0625 5.5C10.0625 6.05228 10.7061 6.5 11.5 6.5Z" stroke="#1A9E75" stroke-width="2" stroke-miterlimit="10" stroke-linecap="round" stroke-linejoin="round"/>
<path d="M13.8 10.5H17.9688L20.8438 14.5H2.15625L5.03125 10.5H9.2" stroke="#1A9E75" stroke-width="2" stroke-miterlimit="10" stroke-linecap="round" stroke-linejoin="round"/>
<path d="M17.25 5.45C17.25 8.95 11.5 12 11.5 12C11.5 12 5.75 8.95 5.75 5.45C5.75 3.25 8.3375 1.5 11.5 1.5C14.6625 1.5 17.25 3.25 17.25 5.45Z" stroke="black" stroke-width="1.2" stroke-miterlimit="10" stroke-linecap="round" stroke-linejoin="round"/>
</svg>
