<svg width="28" height="28" viewBox="0 0 28 28" fill="none" xmlns="http://www.w3.org/2000/svg">
<path d="M5.38584 16.39V8.22876H2.31312C1.03567 8.22876 0 9.26438 0 10.5419V14.0761C0 15.3535 1.03567 16.39 2.31312 16.39H5.38584V16.39Z" fill="#1A9E75"/>
<path d="M17.3556 4.50399L11.9253 7.40839C10.9178 7.94673 9.79333 8.2287 8.65173 8.2287H6.80088V16.3899H8.65173C9.79333 16.3899 10.9179 16.6711 11.9253 17.2102L17.3556 20.1146V20.8239H18.7697V3.7948H17.3556V4.50399ZM17.371 18.5365L12.585 15.9764C11.3793 15.3312 10.0189 14.9903 8.65173 14.9903H8.19968V9.6275H8.65173C10.0189 9.6275 11.3793 9.28657 12.585 8.64142L17.371 6.08221V18.5365Z" fill="#1A9E75"/>
<path d="M20.4019 10.6769H19.2594V13.9419H20.4019V10.6769Z" fill="#1A9E75"/>
<path d="M0.751078 22.263V23.1696C0.751078 23.7421 1.21505 24.2053 1.78757 24.2053H3.51537C4.08701 24.2053 4.55104 23.7421 4.55104 23.1696V22.6013L6.32412 17.7034H2.18662L0.751078 22.263Z" fill="#1A9E75"/>
<path d="M28 11.8766H23.138V12.7507H28V11.8766Z" fill="#1A9E75"/>
<path d="M26.6506 7.28119L26.2054 6.52832L22.3729 8.79453L22.8181 9.5474L26.6506 7.28119Z" fill="#1A9E75"/>
<path d="M22.374 15.6201L26.2064 17.8863L26.6516 17.1343L22.8192 14.8673L22.374 15.6201Z" fill="#1A9E75"/>
</svg>
