<svg width="175" height="17" viewBox="0 0 175 17" fill="none" xmlns="http://www.w3.org/2000/svg">
<path d="M6.688 13.208C5.55733 13.208 4.55467 12.9467 3.68 12.424C2.80533 11.8907 2.128 11.1813 1.648 10.296C1.168 9.41067 0.928 8.44533 0.928 7.4C0.928 6.36533 1.168 5.40533 1.648 4.52C2.128 3.63467 2.80533 2.93067 3.68 2.408C4.55467 1.87467 5.55733 1.608 6.688 1.608C7.808 1.608 8.80533 1.87467 9.68 2.408C10.5547 2.93067 11.232 3.63467 11.712 4.52C12.192 5.40533 12.432 6.36533 12.432 7.4C12.432 8.44533 12.192 9.41067 11.712 10.296C11.232 11.1813 10.5547 11.8907 9.68 12.424C8.80533 12.9467 7.808 13.208 6.688 13.208ZM6.688 11.704C7.49867 11.704 8.224 11.5067 8.864 11.112C9.51467 10.7173 10.016 10.1947 10.368 9.544C10.7307 8.88267 10.912 8.168 10.912 7.4C10.912 6.632 10.7307 5.92267 10.368 5.272C10.016 4.61067 9.51467 4.088 8.864 3.704C8.224 3.30933 7.49867 3.112 6.688 3.112C5.86667 3.112 5.136 3.30933 4.496 3.704C3.856 4.088 3.36 4.61067 3.008 5.272C2.656 5.92267 2.48 6.632 2.48 7.4C2.48 8.168 2.656 8.88267 3.008 9.544C3.36 10.1947 3.856 10.7173 4.496 11.112C5.136 11.5067 5.86667 11.704 6.688 11.704ZM18.3228 4.84C18.8668 4.84 19.3628 4.97867 19.8108 5.256C20.2694 5.52267 20.6321 5.92267 20.8988 6.456C21.1761 6.98933 21.3148 7.64 21.3148 8.408V13H19.8108V8.632C19.8108 7.864 19.6294 7.272 19.2668 6.856C18.9148 6.42933 18.4454 6.216 17.8588 6.216C17.2828 6.216 16.8134 6.42933 16.4508 6.856C16.0881 7.272 15.9068 7.864 15.9068 8.632V13H14.4028V5H15.9068V6.12C16.1521 5.72533 16.4828 5.416 16.8988 5.192C17.3148 4.95733 17.7894 4.84 18.3228 4.84ZM32.5639 9.032V13H31.0439V9.064L27.2359 1.8H28.9479L31.7959 7.48L34.6599 1.8H36.3559L32.5639 9.032ZM39.7211 13.128C38.9318 13.128 38.2278 12.9413 37.6091 12.568C36.9905 12.1947 36.5051 11.6933 36.1531 11.064C35.8118 10.424 35.6411 9.736 35.6411 9C35.6411 8.264 35.8118 7.58133 36.1531 6.952C36.5051 6.312 36.9905 5.80533 37.6091 5.432C38.2278 5.05867 38.9318 4.872 39.7211 4.872C40.5105 4.872 41.2145 5.05867 41.8331 5.432C42.4518 5.80533 42.9318 6.312 43.2731 6.952C43.6251 7.58133 43.8011 8.264 43.8011 9C43.8011 9.736 43.6251 10.424 43.2731 11.064C42.9318 11.6933 42.4518 12.1947 41.8331 12.568C41.2145 12.9413 40.5105 13.128 39.7211 13.128ZM39.7211 11.624C40.2225 11.624 40.6651 11.5067 41.0491 11.272C41.4331 11.0267 41.7265 10.7067 41.9291 10.312C42.1425 9.90667 42.2491 9.464 42.2491 8.984C42.2491 8.51467 42.1425 8.08267 41.9291 7.688C41.7265 7.28267 41.4331 6.96267 41.0491 6.728C40.6651 6.49333 40.2225 6.376 39.7211 6.376C39.2305 6.376 38.7931 6.49333 38.4091 6.728C38.0251 6.96267 37.7211 7.28267 37.4971 7.688C37.2838 8.08267 37.1771 8.51467 37.1771 8.984C37.1771 9.45333 37.2838 9.89067 37.4971 10.296C37.7211 10.7013 38.0251 11.0267 38.4091 11.272C38.7931 11.5067 39.2305 11.624 39.7211 11.624ZM52.4684 5V13H50.9644V11.88C50.719 12.2747 50.3884 12.5893 49.9724 12.824C49.5564 13.048 49.0817 13.16 48.5484 13.16C48.0044 13.16 47.503 13.0267 47.0444 12.76C46.5964 12.4827 46.2337 12.0773 45.9564 11.544C45.6897 11.0107 45.5564 10.36 45.5564 9.592V5H47.0604V9.368C47.0604 10.136 47.2364 10.7333 47.5884 11.16C47.951 11.576 48.4257 11.784 49.0124 11.784C49.5884 11.784 50.0577 11.576 50.4204 11.16C50.783 10.7333 50.9644 10.136 50.9644 9.368V5H52.4684ZM56.3443 6.376C56.5789 5.928 56.8989 5.56 57.3043 5.272C57.7096 4.984 58.1629 4.84 58.6643 4.84V6.616C58.4936 6.59467 58.3603 6.584 58.2643 6.584C57.7203 6.584 57.2669 6.77067 56.9043 7.144C56.5416 7.50667 56.3603 8.04533 56.3603 8.76L56.3443 8.696V13H54.8403V5H56.3443V6.376ZM67.1293 3.272V6.968H70.3133V8.44H67.1293V13H65.6093V1.8H71.6093V3.272H67.1293ZM73.9424 3.496C73.6437 3.496 73.3984 3.4 73.2064 3.208C73.0144 3.00533 72.9184 2.75467 72.9184 2.456C72.9184 2.168 73.0144 1.928 73.2064 1.736C73.3984 1.544 73.6437 1.448 73.9424 1.448C74.2304 1.448 74.4704 1.544 74.6624 1.736C74.865 1.928 74.9664 2.168 74.9664 2.456C74.9664 2.75467 74.8704 3.00533 74.6784 3.208C74.4864 3.4 74.241 3.496 73.9424 3.496ZM73.1904 5H74.6944V13H73.1904V5ZM78.8599 6.376C79.0945 5.928 79.4145 5.56 79.8199 5.272C80.2252 4.984 80.6785 4.84 81.1799 4.84V6.616C81.0092 6.59467 80.8759 6.584 80.7799 6.584C80.2359 6.584 79.7825 6.77067 79.4199 7.144C79.0572 7.50667 78.8759 8.04533 78.8759 8.76L78.8599 8.696V13H77.3559V5H78.8599V6.376ZM84.7376 13.128C84.2363 13.128 83.719 13.0107 83.1856 12.776C82.663 12.5413 82.2363 12.2373 81.9056 11.864L82.8496 10.744C83.4896 11.3627 84.135 11.672 84.7856 11.672C85.127 11.672 85.4043 11.592 85.6176 11.432C85.8416 11.272 85.9536 11.0587 85.9536 10.792C85.9536 10.4933 85.831 10.2587 85.5856 10.088C85.3403 9.91733 84.9563 9.736 84.4336 9.544C83.9536 9.352 83.559 9.17067 83.2496 9C82.951 8.82933 82.6896 8.59467 82.4656 8.296C82.2523 7.98667 82.1456 7.592 82.1456 7.112C82.1456 6.696 82.2523 6.31733 82.4656 5.976C82.679 5.63467 82.983 5.368 83.3776 5.176C83.783 4.97333 84.247 4.872 84.7696 4.872C85.2816 4.872 85.7563 4.984 86.1936 5.208C86.6416 5.42133 87.0043 5.688 87.2816 6.008L86.4016 7.112C86.1776 6.89867 85.9163 6.71733 85.6176 6.568C85.3296 6.408 85.0363 6.328 84.7376 6.328C84.4283 6.328 84.1776 6.40267 83.9856 6.552C83.7936 6.70133 83.6976 6.89333 83.6976 7.128C83.6976 7.40533 83.8096 7.624 84.0336 7.784C84.2683 7.93333 84.6363 8.104 85.1376 8.296C85.639 8.488 86.0443 8.67467 86.3536 8.856C86.6736 9.02667 86.9456 9.272 87.1696 9.592C87.4043 9.912 87.5216 10.3227 87.5216 10.824C87.5216 11.2613 87.4043 11.656 87.1696 12.008C86.935 12.3493 86.6043 12.6213 86.1776 12.824C85.7616 13.0267 85.2816 13.128 84.7376 13.128ZM92.5935 6.44H90.9455V13H89.4415V6.44H88.4175V5H89.4415V2.856H90.9455V5H92.5935V6.44ZM101.051 3.272V6.568H104.619V8.024H101.051V11.528H105.675V13H99.5311V1.8H105.675V3.272H101.051ZM116.09 1.8L111.306 13.176H111.082L106.298 1.8H107.962L111.194 9.976L114.426 1.8H116.09ZM125.018 1.8C125.807 1.8 126.49 1.97067 127.066 2.312C127.642 2.64267 128.079 3.08 128.378 3.624C128.676 4.168 128.826 4.744 128.826 5.352C128.826 6.01333 128.676 6.616 128.378 7.16C128.079 7.69333 127.642 8.12 127.066 8.44C126.5 8.74933 125.818 8.904 125.018 8.904H123.786V13H122.266V1.8H125.018ZM124.954 7.416C125.658 7.416 126.218 7.22933 126.634 6.856C127.06 6.48267 127.274 5.98133 127.274 5.352C127.274 4.75467 127.06 4.264 126.634 3.88C126.207 3.48533 125.647 3.288 124.954 3.288H123.786V7.416H124.954ZM137.344 5V13H135.84V11.72C135.509 12.1573 135.115 12.4987 134.656 12.744C134.197 12.9893 133.68 13.112 133.104 13.112C132.379 13.112 131.728 12.9307 131.152 12.568C130.587 12.2053 130.144 11.7147 129.824 11.096C129.515 10.4667 129.36 9.768 129.36 9C129.36 8.232 129.515 7.53867 129.824 6.92C130.144 6.29067 130.587 5.79467 131.152 5.432C131.728 5.06933 132.379 4.888 133.104 4.888C133.68 4.888 134.197 5.01067 134.656 5.256C135.115 5.50133 135.509 5.84267 135.84 6.28V5H137.344ZM133.36 11.656C133.829 11.656 134.251 11.5333 134.624 11.288C135.008 11.0427 135.307 10.7173 135.52 10.312C135.733 9.90667 135.84 9.46933 135.84 9C135.84 8.53067 135.733 8.09333 135.52 7.688C135.307 7.28267 135.008 6.96267 134.624 6.728C134.251 6.48267 133.829 6.36 133.36 6.36C132.891 6.36 132.469 6.47733 132.096 6.712C131.723 6.94667 131.429 7.26667 131.216 7.672C131.013 8.07733 130.912 8.52 130.912 9C130.912 9.49067 131.013 9.93867 131.216 10.344C131.429 10.7493 131.723 11.0693 132.096 11.304C132.469 11.5387 132.891 11.656 133.36 11.656ZM141.235 6.376C141.47 5.928 141.79 5.56 142.195 5.272C142.6 4.984 143.054 4.84 143.555 4.84V6.616C143.384 6.59467 143.251 6.584 143.155 6.584C142.611 6.584 142.158 6.77067 141.795 7.144C141.432 7.50667 141.251 8.04533 141.251 8.76L141.235 8.696V13H139.731V5H141.235V6.376ZM149.877 13L146.485 9.32V13H144.981V0.2H146.485V8.792L149.765 5H151.605L148.037 9.048L151.829 13H149.877ZM154.146 3.496C153.847 3.496 153.602 3.4 153.41 3.208C153.218 3.00533 153.122 2.75467 153.122 2.456C153.122 2.168 153.218 1.928 153.41 1.736C153.602 1.544 153.847 1.448 154.146 1.448C154.434 1.448 154.674 1.544 154.866 1.736C155.068 1.928 155.17 2.168 155.17 2.456C155.17 2.75467 155.074 3.00533 154.882 3.208C154.69 3.4 154.444 3.496 154.146 3.496ZM153.394 5H154.898V13H153.394V5ZM161.479 4.84C162.023 4.84 162.519 4.97867 162.967 5.256C163.426 5.52267 163.788 5.92267 164.055 6.456C164.332 6.98933 164.471 7.64 164.471 8.408V13H162.967V8.632C162.967 7.864 162.786 7.272 162.423 6.856C162.071 6.42933 161.602 6.216 161.015 6.216C160.439 6.216 159.97 6.42933 159.607 6.856C159.244 7.272 159.063 7.864 159.063 8.632V13H157.559V5H159.063V6.12C159.308 5.72533 159.639 5.416 160.055 5.192C160.471 4.95733 160.946 4.84 161.479 4.84ZM174.125 12.664C174.125 13.4427 173.944 14.104 173.581 14.648C173.229 15.2027 172.76 15.6187 172.173 15.896C171.597 16.1733 170.978 16.312 170.317 16.312C169.752 16.312 169.224 16.2373 168.733 16.088C168.242 15.9493 167.757 15.7413 167.277 15.464L167.293 13.88C167.752 14.2 168.226 14.4453 168.717 14.616C169.218 14.7973 169.698 14.888 170.157 14.888C170.925 14.888 171.533 14.6693 171.981 14.232C172.429 13.7947 172.653 13.144 172.653 12.28V11.672C172.333 12.12 171.933 12.472 171.453 12.728C170.984 12.984 170.461 13.112 169.885 13.112C169.16 13.112 168.509 12.9307 167.933 12.568C167.368 12.2053 166.925 11.7147 166.605 11.096C166.296 10.4667 166.141 9.768 166.141 9C166.141 8.232 166.296 7.53867 166.605 6.92C166.925 6.29067 167.368 5.79467 167.933 5.432C168.509 5.06933 169.16 4.888 169.885 4.888C170.461 4.888 170.978 5.016 171.437 5.272C171.906 5.51733 172.301 5.85867 172.621 6.296V5H174.109L174.125 12.664ZM170.141 11.656C170.61 11.656 171.032 11.5333 171.405 11.288C171.789 11.0427 172.088 10.7173 172.301 10.312C172.514 9.90667 172.621 9.46933 172.621 9C172.621 8.53067 172.514 8.09333 172.301 7.688C172.088 7.28267 171.789 6.96267 171.405 6.728C171.032 6.48267 170.61 6.36 170.141 6.36C169.672 6.36 169.25 6.47733 168.877 6.712C168.504 6.94667 168.21 7.26667 167.997 7.672C167.794 8.07733 167.693 8.52 167.693 9C167.693 9.49067 167.794 9.93867 167.997 10.344C168.21 10.7493 168.504 11.0693 168.877 11.304C169.25 11.5387 169.672 11.656 170.141 11.656Z" fill="white"/>
</svg>
