<svg width="44" height="21" viewBox="0 0 44 21" fill="none" xmlns="http://www.w3.org/2000/svg">
<path d="M18.3382 2.07C18.3382 2.65 18.1382 3.13333 17.7382 3.52C17.3449 3.9 16.7415 4.09 15.9282 4.09H14.5882V7H13.6782V0.0299997H15.9282C16.7149 0.0299997 17.3115 0.22 17.7182 0.6C18.1315 0.98 18.3382 1.47 18.3382 2.07ZM15.9282 3.34C16.4349 3.34 16.8082 3.23 17.0482 3.01C17.2882 2.79 17.4082 2.47667 17.4082 2.07C17.4082 1.21 16.9149 0.78 15.9282 0.78H14.5882V3.34H15.9282ZM19.1292 4.24C19.1292 3.68 19.2426 3.19 19.4692 2.77C19.6959 2.34333 20.0059 2.01333 20.3992 1.78C20.7992 1.54667 21.2426 1.43 21.7292 1.43C22.2092 1.43 22.6259 1.53333 22.9792 1.74C23.3326 1.94667 23.5959 2.20667 23.7692 2.52V1.52H24.6892V7H23.7692V5.98C23.5892 6.3 23.3192 6.56667 22.9592 6.78C22.6059 6.98667 22.1926 7.09 21.7192 7.09C21.2326 7.09 20.7926 6.97 20.3992 6.73C20.0059 6.49 19.6959 6.15333 19.4692 5.72C19.2426 5.28667 19.1292 4.79333 19.1292 4.24ZM23.7692 4.25C23.7692 3.83667 23.6859 3.47667 23.5192 3.17C23.3526 2.86333 23.1259 2.63 22.8392 2.47C22.5592 2.30333 22.2492 2.22 21.9092 2.22C21.5692 2.22 21.2592 2.3 20.9792 2.46C20.6992 2.62 20.4759 2.85333 20.3092 3.16C20.1426 3.46667 20.0592 3.82667 20.0592 4.24C20.0592 4.66 20.1426 5.02667 20.3092 5.34C20.4759 5.64667 20.6992 5.88333 20.9792 6.05C21.2592 6.21 21.5692 6.29 21.9092 6.29C22.2492 6.29 22.5592 6.21 22.8392 6.05C23.1259 5.88333 23.3526 5.64667 23.5192 5.34C23.6859 5.02667 23.7692 4.66333 23.7692 4.25ZM30.947 1.52L27.647 9.58H26.707L27.787 6.94L25.577 1.52H26.587L28.307 5.96L30.007 1.52H30.947ZM0.340156 16.51C0.340156 15.83 0.49349 15.22 0.800156 14.68C1.10682 14.1333 1.52349 13.7067 2.05016 13.4C2.58349 13.0933 3.17349 12.94 3.82016 12.94C4.58016 12.94 5.24349 13.1233 5.81016 13.49C6.37682 13.8567 6.79016 14.3767 7.05016 15.05H5.96016C5.76682 14.63 5.48682 14.3067 5.12016 14.08C4.76016 13.8533 4.32682 13.74 3.82016 13.74C3.33349 13.74 2.89682 13.8533 2.51016 14.08C2.12349 14.3067 1.82016 14.63 1.60016 15.05C1.38016 15.4633 1.27016 15.95 1.27016 16.51C1.27016 17.0633 1.38016 17.55 1.60016 17.97C1.82016 18.3833 2.12349 18.7033 2.51016 18.93C2.89682 19.1567 3.33349 19.27 3.82016 19.27C4.32682 19.27 4.76016 19.16 5.12016 18.94C5.48682 18.7133 5.76682 18.39 5.96016 17.97H7.05016C6.79016 18.6367 6.37682 19.1533 5.81016 19.52C5.24349 19.88 4.58016 20.06 3.82016 20.06C3.17349 20.06 2.58349 19.91 2.05016 19.61C1.52349 19.3033 1.10682 18.88 0.800156 18.34C0.49349 17.8 0.340156 17.19 0.340156 16.51ZM11.1248 14.42C11.5381 14.42 11.9114 14.51 12.2448 14.69C12.5781 14.8633 12.8381 15.1267 13.0248 15.48C13.2181 15.8333 13.3148 16.2633 13.3148 16.77V20H12.4148V16.9C12.4148 16.3533 12.2781 15.9367 12.0048 15.65C11.7314 15.3567 11.3581 15.21 10.8848 15.21C10.4048 15.21 10.0214 15.36 9.73477 15.66C9.45477 15.96 9.31477 16.3967 9.31477 16.97V20H8.40477V12.6H9.31477V15.3C9.49477 15.02 9.74143 14.8033 10.0548 14.65C10.3748 14.4967 10.7314 14.42 11.1248 14.42ZM14.4613 17.24C14.4613 16.68 14.5746 16.19 14.8013 15.77C15.0279 15.3433 15.3379 15.0133 15.7313 14.78C16.1313 14.5467 16.5746 14.43 17.0613 14.43C17.5413 14.43 17.9579 14.5333 18.3113 14.74C18.6646 14.9467 18.9279 15.2067 19.1013 15.52V14.52H20.0213V20H19.1013V18.98C18.9213 19.3 18.6513 19.5667 18.2913 19.78C17.9379 19.9867 17.5246 20.09 17.0513 20.09C16.5646 20.09 16.1246 19.97 15.7313 19.73C15.3379 19.49 15.0279 19.1533 14.8013 18.72C14.5746 18.2867 14.4613 17.7933 14.4613 17.24ZM19.1013 17.25C19.1013 16.8367 19.0179 16.4767 18.8513 16.17C18.6846 15.8633 18.4579 15.63 18.1713 15.47C17.8913 15.3033 17.5813 15.22 17.2413 15.22C16.9013 15.22 16.5913 15.3 16.3113 15.46C16.0313 15.62 15.8079 15.8533 15.6413 16.16C15.4746 16.4667 15.3913 16.8267 15.3913 17.24C15.3913 17.66 15.4746 18.0267 15.6413 18.34C15.8079 18.6467 16.0313 18.8833 16.3113 19.05C16.5913 19.21 16.9013 19.29 17.2413 19.29C17.5813 19.29 17.8913 19.21 18.1713 19.05C18.4579 18.8833 18.6846 18.6467 18.8513 18.34C19.0179 18.0267 19.1013 17.6633 19.1013 17.25ZM22.4691 12.6V20H21.5591V12.6H22.4691ZM24.93 12.6V20H24.02V12.6H24.93ZM26.1409 17.24C26.1409 16.68 26.2543 16.19 26.4809 15.77C26.7076 15.3433 27.0176 15.0133 27.4109 14.78C27.8109 14.5467 28.2543 14.43 28.7409 14.43C29.2209 14.43 29.6376 14.5333 29.9909 14.74C30.3443 14.9467 30.6076 15.2067 30.7809 15.52V14.52H31.7009V20H30.7809V18.98C30.6009 19.3 30.3309 19.5667 29.9709 19.78C29.6176 19.9867 29.2043 20.09 28.7309 20.09C28.2443 20.09 27.8043 19.97 27.4109 19.73C27.0176 19.49 26.7076 19.1533 26.4809 18.72C26.2543 18.2867 26.1409 17.7933 26.1409 17.24ZM30.7809 17.25C30.7809 16.8367 30.6976 16.4767 30.5309 16.17C30.3643 15.8633 30.1376 15.63 29.8509 15.47C29.5709 15.3033 29.2609 15.22 28.9209 15.22C28.5809 15.22 28.2709 15.3 27.9909 15.46C27.7109 15.62 27.4876 15.8533 27.3209 16.16C27.1543 16.4667 27.0709 16.8267 27.0709 17.24C27.0709 17.66 27.1543 18.0267 27.3209 18.34C27.4876 18.6467 27.7109 18.8833 27.9909 19.05C28.2709 19.21 28.5809 19.29 28.9209 19.29C29.2609 19.29 29.5709 19.21 29.8509 19.05C30.1376 18.8833 30.3643 18.6467 30.5309 18.34C30.6976 18.0267 30.7809 17.6633 30.7809 17.25ZM35.9088 14.42C36.5754 14.42 37.1154 14.6233 37.5288 15.03C37.9421 15.43 38.1488 16.01 38.1488 16.77V20H37.2488V16.9C37.2488 16.3533 37.1121 15.9367 36.8388 15.65C36.5654 15.3567 36.1921 15.21 35.7188 15.21C35.2388 15.21 34.8554 15.36 34.5688 15.66C34.2888 15.96 34.1488 16.3967 34.1488 16.97V20H33.2388V14.52H34.1488V15.3C34.3288 15.02 34.5721 14.8033 34.8788 14.65C35.1921 14.4967 35.5354 14.42 35.9088 14.42ZM41.5752 20.09C41.1552 20.09 40.7786 20.02 40.4452 19.88C40.1119 19.7333 39.8486 19.5333 39.6552 19.28C39.4619 19.02 39.3552 18.7233 39.3352 18.39H40.2752C40.3019 18.6633 40.4286 18.8867 40.6552 19.06C40.8886 19.2333 41.1919 19.32 41.5652 19.32C41.9119 19.32 42.1852 19.2433 42.3852 19.09C42.5852 18.9367 42.6852 18.7433 42.6852 18.51C42.6852 18.27 42.5786 18.0933 42.3652 17.98C42.1519 17.86 41.8219 17.7433 41.3752 17.63C40.9686 17.5233 40.6352 17.4167 40.3752 17.31C40.1219 17.1967 39.9019 17.0333 39.7152 16.82C39.5352 16.6 39.4452 16.3133 39.4452 15.96C39.4452 15.68 39.5286 15.4233 39.6952 15.19C39.8619 14.9567 40.0986 14.7733 40.4052 14.64C40.7119 14.5 41.0619 14.43 41.4552 14.43C42.0619 14.43 42.5519 14.5833 42.9252 14.89C43.2986 15.1967 43.4986 15.6167 43.5252 16.15H42.6152C42.5952 15.8633 42.4786 15.6333 42.2652 15.46C42.0586 15.2867 41.7786 15.2 41.4252 15.2C41.0986 15.2 40.8386 15.27 40.6452 15.41C40.4519 15.55 40.3552 15.7333 40.3552 15.96C40.3552 16.14 40.4119 16.29 40.5252 16.41C40.6452 16.5233 40.7919 16.6167 40.9652 16.69C41.1452 16.7567 41.3919 16.8333 41.7052 16.92C42.0986 17.0267 42.4186 17.1333 42.6652 17.24C42.9119 17.34 43.1219 17.4933 43.2952 17.7C43.4752 17.9067 43.5686 18.1767 43.5752 18.51C43.5752 18.81 43.4919 19.08 43.3252 19.32C43.1586 19.56 42.9219 19.75 42.6152 19.89C42.3152 20.0233 41.9686 20.09 41.5752 20.09Z" fill="#434343"/>
</svg>
