<svg width="24" height="24" viewBox="0 0 24 24" fill="none" xmlns="http://www.w3.org/2000/svg">
<g clip-path="url(#clip0_421_3664)">
<path d="M5.48448 20.956L4.7531 23.184H19.2468L18.5155 20.956H5.48448ZM7.75819 22.7714H5.37778L5.83829 21.3686H9.16099L7.75819 22.7714ZM11.9588 7.50567C8.76864 7.50567 6.18254 10.0918 6.18254 13.2819V20.3784H17.8176V13.2819C17.8176 10.0918 15.2315 7.50572 12.0413 7.50572H11.9588V7.50567ZM16.7035 13.447C16.7035 13.7204 16.4818 13.942 16.2084 13.942C15.935 13.942 15.7133 13.7203 15.7133 13.447C15.7133 11.445 14.0845 9.81619 12.0825 9.81619H12C11.7266 9.81619 11.5049 9.59448 11.5049 9.32112C11.5049 9.04767 11.7266 8.826 12 8.826H12.0825C14.6305 8.82595 16.7035 10.8989 16.7035 13.447ZM5.25307 10.9654C5.35531 10.4557 5.02517 9.95971 4.51565 9.85743L1.79184 9.3108C1.28222 9.20861 0.786287 9.53875 0.683999 10.0483C0.662307 10.1559 0.659611 10.2665 0.676031 10.375C0.733823 10.755 1.02278 11.0761 1.42142 11.1561L4.14518 11.7027C4.6548 11.805 5.15083 11.4749 5.25307 10.9654ZM4.62845 4.65423L6.3636 6.82378C6.68818 7.22962 7.28045 7.29552 7.68629 6.97095C8.09222 6.64632 8.15794 6.05415 7.83346 5.64821L6.09835 3.47866C5.77368 3.07282 5.18155 3.00692 4.77562 3.33149C4.50331 3.54927 4.38408 3.88738 4.43299 4.20893C4.45781 4.37198 4.52524 4.52559 4.62845 4.65423ZM12.1177 5.47512C12.6373 5.48732 13.0684 5.076 13.0807 4.5564L13.074 1.77922C13.0863 1.25976 12.675 0.828435 12.1554 0.816243C11.6358 0.804051 11.2046 1.21536 11.1924 1.73487L11.1991 4.51215C11.1977 4.56729 11.2012 4.62245 11.2096 4.67698C11.277 5.11997 11.6543 5.46418 12.1177 5.47512ZM16.4739 7.17773C16.8641 7.52103 17.4588 7.48316 17.8021 7.09296L19.6374 5.00751C19.9807 4.61732 19.9428 4.02274 19.5526 3.6793C19.1625 3.33595 18.5678 3.37392 18.2244 3.76407L16.3892 5.84957C16.1978 6.06692 16.1249 6.34781 16.1653 6.61335C16.1984 6.83198 16.3077 7.03188 16.4739 7.17773ZM23.3237 10.581C23.2455 10.0672 22.7656 9.71405 22.2517 9.79229L19.5054 10.2102C18.9915 10.2884 18.6384 10.7683 18.7165 11.2821C18.7948 11.796 19.2747 12.1491 19.7885 12.0709L22.5349 11.6531C23.0487 11.5748 23.4019 11.0949 23.3237 10.581Z" fill="#1A9E75"/>
</g>
<defs>
<clipPath id="clip0_421_3664">
<rect width="24" height="24" fill="white"/>
</clipPath>
</defs>
</svg>
