<svg width="28" height="28" viewBox="0 0 28 28" fill="none" xmlns="http://www.w3.org/2000/svg">
<mask id="mask0_421_3565" style="mask-type:alpha" maskUnits="userSpaceOnUse" x="0" y="0" width="28" height="28">
<rect width="28" height="28" fill="#D9D9D9"/>
</mask>
<g mask="url(#mask0_421_3565)">
<path d="M4.66666 19.8334V22.1667H23.3333V19.8334H4.66666ZM4.66666 7.00004H7.23333C7.13611 6.82504 7.07291 6.64032 7.04375 6.44587C7.01458 6.25143 7 6.04726 7 5.83337C7 4.86115 7.34027 4.03476 8.02083 3.35421C8.70138 2.67365 9.52777 2.33337 10.5 2.33337C11.0833 2.33337 11.6229 2.48407 12.1187 2.78546C12.6146 3.08685 13.0472 3.46115 13.4167 3.90837L14 4.66671L14.5833 3.90837C14.9333 3.44171 15.3611 3.06254 15.8667 2.77087C16.3722 2.47921 16.9167 2.33337 17.5 2.33337C18.4722 2.33337 19.2986 2.67365 19.9792 3.35421C20.6597 4.03476 21 4.86115 21 5.83337C21 6.04726 20.9854 6.25143 20.9562 6.44587C20.9271 6.64032 20.8639 6.82504 20.7667 7.00004H23.3333C23.975 7.00004 24.5243 7.22851 24.9812 7.68546C25.4382 8.1424 25.6667 8.69171 25.6667 9.33337V22.1667C25.6667 22.8084 25.4382 23.3577 24.9812 23.8146C24.5243 24.2716 23.975 24.5 23.3333 24.5H4.66666C4.02499 24.5 3.47569 24.2716 3.01875 23.8146C2.5618 23.3577 2.33333 22.8084 2.33333 22.1667V9.33337C2.33333 8.69171 2.5618 8.1424 3.01875 7.68546C3.47569 7.22851 4.02499 7.00004 4.66666 7.00004ZM4.66666 16.3334H23.3333V9.33337H17.3833L19.8333 12.6584L17.9667 14L14 8.63337L10.0333 14L8.16666 12.6584L10.5583 9.33337H4.66666V16.3334ZM10.5 7.00004C10.8306 7.00004 11.1076 6.88824 11.3312 6.66462C11.5549 6.44101 11.6667 6.16393 11.6667 5.83337C11.6667 5.50282 11.5549 5.22574 11.3312 5.00212C11.1076 4.77851 10.8306 4.66671 10.5 4.66671C10.1694 4.66671 9.89236 4.77851 9.66875 5.00212C9.44513 5.22574 9.33333 5.50282 9.33333 5.83337C9.33333 6.16393 9.44513 6.44101 9.66875 6.66462C9.89236 6.88824 10.1694 7.00004 10.5 7.00004ZM17.5 7.00004C17.8306 7.00004 18.1076 6.88824 18.3312 6.66462C18.5549 6.44101 18.6667 6.16393 18.6667 5.83337C18.6667 5.50282 18.5549 5.22574 18.3312 5.00212C18.1076 4.77851 17.8306 4.66671 17.5 4.66671C17.1694 4.66671 16.8924 4.77851 16.6687 5.00212C16.4451 5.22574 16.3333 5.50282 16.3333 5.83337C16.3333 6.16393 16.4451 6.44101 16.6687 6.66462C16.8924 6.88824 17.1694 7.00004 17.5 7.00004Z" fill="#1A9E75"/>
</g>
</svg>
