<svg width="57" height="9" viewBox="0 0 57 9" fill="none" xmlns="http://www.w3.org/2000/svg">
<path d="M4.51715 8L2.85715 5.15H1.75715V8H0.847149V1.03H3.09715C3.62382 1.03 4.06715 1.12 4.42715 1.3C4.79382 1.48 5.06715 1.72333 5.24715 2.03C5.42715 2.33667 5.51715 2.68667 5.51715 3.08C5.51715 3.56 5.37715 3.98333 5.09715 4.35C4.82382 4.71667 4.41048 4.96 3.85715 5.08L5.60715 8H4.51715ZM1.75715 4.42H3.09715C3.59048 4.42 3.96048 4.3 4.20715 4.06C4.45382 3.81333 4.57715 3.48667 4.57715 3.08C4.57715 2.66667 4.45382 2.34667 4.20715 2.12C3.96715 1.89333 3.59715 1.78 3.09715 1.78H1.75715V4.42ZM11.9311 5.05C11.9311 5.22333 11.9211 5.40667 11.9011 5.6H7.52113C7.55447 6.14 7.7378 6.56333 8.07113 6.87C8.41113 7.17 8.82113 7.32 9.30113 7.32C9.69447 7.32 10.0211 7.23 10.2811 7.05C10.5478 6.86333 10.7345 6.61667 10.8411 6.31H11.8211C11.6745 6.83667 11.3811 7.26667 10.9411 7.6C10.5011 7.92667 9.95447 8.09 9.30113 8.09C8.78113 8.09 8.31447 7.97333 7.90113 7.74C7.49447 7.50667 7.17447 7.17667 6.94113 6.75C6.7078 6.31667 6.59113 5.81667 6.59113 5.25C6.59113 4.68333 6.70447 4.18667 6.93113 3.76C7.1578 3.33333 7.47447 3.00667 7.88113 2.78C8.29447 2.54667 8.7678 2.43 9.30113 2.43C9.82113 2.43 10.2811 2.54333 10.6811 2.77C11.0811 2.99667 11.3878 3.31 11.6011 3.71C11.8211 4.10333 11.9311 4.55 11.9311 5.05ZM10.9911 4.86C10.9911 4.51333 10.9145 4.21667 10.7611 3.97C10.6078 3.71667 10.3978 3.52667 10.1311 3.4C9.87113 3.26667 9.58113 3.2 9.26113 3.2C8.80113 3.2 8.4078 3.34667 8.08113 3.64C7.76113 3.93333 7.5778 4.34 7.53113 4.86H10.9911ZM15.3623 3.27H14.2123V8H13.3023V3.27H12.5923V2.52H13.3023V2.13C13.3023 1.51667 13.459 1.07 13.7723 0.79C14.0923 0.503333 14.6023 0.359999 15.3023 0.359999V1.12C14.9023 1.12 14.619 1.2 14.4523 1.36C14.2923 1.51333 14.2123 1.77 14.2123 2.13V2.52H15.3623V3.27ZM21.4233 5.05C21.4233 5.22333 21.4133 5.40667 21.3933 5.6H17.0133C17.0467 6.14 17.23 6.56333 17.5633 6.87C17.9033 7.17 18.3133 7.32 18.7933 7.32C19.1867 7.32 19.5133 7.23 19.7733 7.05C20.04 6.86333 20.2267 6.61667 20.3333 6.31H21.3133C21.1667 6.83667 20.8733 7.26667 20.4333 7.6C19.9933 7.92667 19.4467 8.09 18.7933 8.09C18.2733 8.09 17.8067 7.97333 17.3933 7.74C16.9867 7.50667 16.6667 7.17667 16.4333 6.75C16.2 6.31667 16.0833 5.81667 16.0833 5.25C16.0833 4.68333 16.1967 4.18667 16.4233 3.76C16.65 3.33333 16.9667 3.00667 17.3733 2.78C17.7867 2.54667 18.26 2.43 18.7933 2.43C19.3133 2.43 19.7733 2.54333 20.1733 2.77C20.5733 2.99667 20.88 3.31 21.0933 3.71C21.3133 4.10333 21.4233 4.55 21.4233 5.05ZM20.4833 4.86C20.4833 4.51333 20.4067 4.21667 20.2533 3.97C20.1 3.71667 19.89 3.52667 19.6233 3.4C19.3633 3.26667 19.0733 3.2 18.7533 3.2C18.2933 3.2 17.9 3.34667 17.5733 3.64C17.2533 3.93333 17.07 4.34 17.0233 4.86H20.4833ZM23.5345 3.41C23.6945 3.09667 23.9212 2.85333 24.2145 2.68C24.5145 2.50667 24.8778 2.42 25.3045 2.42V3.36H25.0645C24.0445 3.36 23.5345 3.91333 23.5345 5.02V8H22.6245V2.52H23.5345V3.41ZM34.371 8L33.461 7.08C33.121 7.43333 32.7576 7.69667 32.371 7.87C31.9843 8.03667 31.5476 8.12 31.061 8.12C30.581 8.12 30.1543 8.03333 29.781 7.86C29.4143 7.68667 29.1276 7.44 28.921 7.12C28.721 6.8 28.621 6.42667 28.621 6C28.621 5.51333 28.7576 5.08667 29.031 4.72C29.311 4.34667 29.721 4.05333 30.261 3.84C30.0476 3.58667 29.8943 3.35333 29.801 3.14C29.7076 2.92667 29.661 2.69333 29.661 2.44C29.661 2.14667 29.7343 1.88333 29.881 1.65C30.0343 1.41 30.251 1.22333 30.531 1.09C30.811 0.956666 31.1343 0.89 31.501 0.89C31.861 0.89 32.1743 0.96 32.441 1.1C32.7076 1.24 32.9076 1.43667 33.041 1.69C33.1743 1.93667 33.2343 2.21333 33.221 2.52H32.311C32.3176 2.24667 32.241 2.03333 32.081 1.88C31.921 1.72 31.7143 1.64 31.461 1.64C31.1943 1.64 30.9776 1.71667 30.811 1.87C30.651 2.01667 30.571 2.20667 30.571 2.44C30.571 2.64 30.6243 2.83333 30.731 3.02C30.8443 3.20667 31.031 3.43667 31.291 3.71L33.371 5.8L33.551 5.52L34.231 4.38H35.211L34.391 5.8C34.2776 6 34.1443 6.21 33.991 6.43L35.561 8H34.371ZM31.061 7.34C31.421 7.34 31.7443 7.27 32.031 7.13C32.3243 6.99 32.601 6.77333 32.861 6.48L30.811 4.42C29.9576 4.74667 29.531 5.26333 29.531 5.97C29.531 6.36333 29.671 6.69 29.951 6.95C30.2376 7.21 30.6076 7.34 31.061 7.34ZM47.8396 1.03L45.8196 8H44.7996L43.1796 2.39L41.4996 8L40.4896 8.01L38.5396 1.03H39.5096L41.0296 6.94L42.7096 1.03H43.7296L45.3296 6.92L46.8596 1.03H47.8396ZM49.3054 1.63C49.1321 1.63 48.9854 1.57 48.8654 1.45C48.7454 1.33 48.6854 1.18333 48.6854 1.01C48.6854 0.836666 48.7454 0.69 48.8654 0.57C48.9854 0.45 49.1321 0.39 49.3054 0.39C49.4721 0.39 49.6121 0.45 49.7254 0.57C49.8454 0.69 49.9054 0.836666 49.9054 1.01C49.9054 1.18333 49.8454 1.33 49.7254 1.45C49.6121 1.57 49.4721 1.63 49.3054 1.63ZM49.7454 2.52V8H48.8354V2.52H49.7454ZM53.9664 2.42C54.633 2.42 55.173 2.62333 55.5864 3.03C55.9997 3.43 56.2064 4.01 56.2064 4.77V8H55.3064V4.9C55.3064 4.35333 55.1697 3.93667 54.8964 3.65C54.623 3.35667 54.2497 3.21 53.7764 3.21C53.2964 3.21 52.913 3.36 52.6264 3.66C52.3464 3.96 52.2064 4.39667 52.2064 4.97V8H51.2964V2.52H52.2064V3.3C52.3864 3.02 52.6297 2.80333 52.9364 2.65C53.2497 2.49667 53.593 2.42 53.9664 2.42Z" fill="#393939"/>
</svg>
