<svg width="43" height="9" viewBox="0 0 43 9" fill="none" xmlns="http://www.w3.org/2000/svg">
<path d="M4.46051 8L2.80051 5.15H1.70051V8H0.790508V1.03H3.04051C3.56717 1.03 4.01051 1.12 4.37051 1.3C4.73717 1.48 5.01051 1.72333 5.19051 2.03C5.37051 2.33667 5.46051 2.68667 5.46051 3.08C5.46051 3.56 5.32051 3.98333 5.04051 4.35C4.76717 4.71667 4.35384 4.96 3.80051 5.08L5.55051 8H4.46051ZM1.70051 4.42H3.04051C3.53384 4.42 3.90384 4.3 4.15051 4.06C4.39717 3.81333 4.52051 3.48667 4.52051 3.08C4.52051 2.66667 4.39717 2.34667 4.15051 2.12C3.91051 1.89333 3.54051 1.78 3.04051 1.78H1.70051V4.42ZM11.8745 5.05C11.8745 5.22333 11.8645 5.40667 11.8445 5.6H7.46449C7.49783 6.14 7.68116 6.56333 8.01449 6.87C8.35449 7.17 8.76449 7.32 9.24449 7.32C9.63783 7.32 9.96449 7.23 10.2245 7.05C10.4912 6.86333 10.6778 6.61667 10.7845 6.31H11.7645C11.6178 6.83667 11.3245 7.26667 10.8845 7.6C10.4445 7.92667 9.89783 8.09 9.24449 8.09C8.72449 8.09 8.25783 7.97333 7.84449 7.74C7.43783 7.50667 7.11783 7.17667 6.88449 6.75C6.65116 6.31667 6.53449 5.81667 6.53449 5.25C6.53449 4.68333 6.64783 4.18667 6.87449 3.76C7.10116 3.33333 7.41783 3.00667 7.82449 2.78C8.23783 2.54667 8.71116 2.43 9.24449 2.43C9.76449 2.43 10.2245 2.54333 10.6245 2.77C11.0245 2.99667 11.3312 3.31 11.5445 3.71C11.7645 4.10333 11.8745 4.55 11.8745 5.05ZM10.9345 4.86C10.9345 4.51333 10.8578 4.21667 10.7045 3.97C10.5512 3.71667 10.3412 3.52667 10.0745 3.4C9.81449 3.26667 9.52449 3.2 9.20449 3.2C8.74449 3.2 8.35116 3.34667 8.02449 3.64C7.70449 3.93333 7.52116 4.34 7.47449 4.86H10.9345ZM20.3757 2.52L18.6657 8H17.7257L16.4057 3.65L15.0857 8H14.1457L12.4257 2.52H13.3557L14.6157 7.12L15.9757 2.52H16.9057L18.2357 7.13L19.4757 2.52H20.3757ZM20.9388 5.24C20.9388 4.68 21.0521 4.19 21.2788 3.77C21.5055 3.34333 21.8155 3.01333 22.2088 2.78C22.6088 2.54667 23.0521 2.43 23.5388 2.43C24.0188 2.43 24.4355 2.53333 24.7888 2.74C25.1421 2.94667 25.4055 3.20667 25.5788 3.52V2.52H26.4988V8H25.5788V6.98C25.3988 7.3 25.1288 7.56667 24.7688 7.78C24.4155 7.98667 24.0021 8.09 23.5288 8.09C23.0421 8.09 22.6021 7.97 22.2088 7.73C21.8155 7.49 21.5055 7.15333 21.2788 6.72C21.0521 6.28667 20.9388 5.79333 20.9388 5.24ZM25.5788 5.25C25.5788 4.83667 25.4955 4.47667 25.3288 4.17C25.1621 3.86333 24.9355 3.63 24.6488 3.47C24.3688 3.30333 24.0588 3.22 23.7188 3.22C23.3788 3.22 23.0688 3.3 22.7888 3.46C22.5088 3.62 22.2855 3.85333 22.1188 4.16C21.9521 4.46667 21.8688 4.82667 21.8688 5.24C21.8688 5.66 21.9521 6.02667 22.1188 6.34C22.2855 6.64667 22.5088 6.88333 22.7888 7.05C23.0688 7.21 23.3788 7.29 23.7188 7.29C24.0588 7.29 24.3688 7.21 24.6488 7.05C24.9355 6.88333 25.1621 6.64667 25.3288 6.34C25.4955 6.02667 25.5788 5.66333 25.5788 5.25ZM28.9466 3.41C29.1066 3.09667 29.3333 2.85333 29.6266 2.68C29.9266 2.50667 30.2899 2.42 30.7166 2.42V3.36H30.4766C29.4566 3.36 28.9466 3.91333 28.9466 5.02V8H28.0366V2.52H28.9466V3.41ZM31.4271 5.24C31.4271 4.68 31.5404 4.19 31.7671 3.77C31.9937 3.34333 32.3037 3.01333 32.6971 2.78C33.0971 2.54667 33.5437 2.43 34.0371 2.43C34.4637 2.43 34.8604 2.53 35.2271 2.73C35.5937 2.92333 35.8737 3.18 36.0671 3.5V0.6H36.9871V8H36.0671V6.97C35.8871 7.29667 35.6204 7.56667 35.2671 7.78C34.9137 7.98667 34.5004 8.09 34.0271 8.09C33.5404 8.09 33.0971 7.97 32.6971 7.73C32.3037 7.49 31.9937 7.15333 31.7671 6.72C31.5404 6.28667 31.4271 5.79333 31.4271 5.24ZM36.0671 5.25C36.0671 4.83667 35.9837 4.47667 35.8171 4.17C35.6504 3.86333 35.4237 3.63 35.1371 3.47C34.8571 3.30333 34.5471 3.22 34.2071 3.22C33.8671 3.22 33.5571 3.3 33.2771 3.46C32.9971 3.62 32.7737 3.85333 32.6071 4.16C32.4404 4.46667 32.3571 4.82667 32.3571 5.24C32.3571 5.66 32.4404 6.02667 32.6071 6.34C32.7737 6.64667 32.9971 6.88333 33.2771 7.05C33.5571 7.21 33.8671 7.29 34.2071 7.29C34.5471 7.29 34.8571 7.21 35.1371 7.05C35.4237 6.88333 35.6504 6.64667 35.8171 6.34C35.9837 6.02667 36.0671 5.66333 36.0671 5.25ZM40.4649 8.09C40.0449 8.09 39.6682 8.02 39.3349 7.88C39.0015 7.73333 38.7382 7.53333 38.5449 7.28C38.3515 7.02 38.2449 6.72333 38.2249 6.39H39.1649C39.1915 6.66333 39.3182 6.88667 39.5449 7.06C39.7782 7.23333 40.0815 7.32 40.4549 7.32C40.8015 7.32 41.0749 7.24333 41.2749 7.09C41.4749 6.93667 41.5749 6.74333 41.5749 6.51C41.5749 6.27 41.4682 6.09333 41.2549 5.98C41.0415 5.86 40.7115 5.74333 40.2649 5.63C39.8582 5.52333 39.5249 5.41667 39.2649 5.31C39.0115 5.19667 38.7915 5.03333 38.6049 4.82C38.4249 4.6 38.3349 4.31333 38.3349 3.96C38.3349 3.68 38.4182 3.42333 38.5849 3.19C38.7515 2.95667 38.9882 2.77333 39.2949 2.64C39.6015 2.5 39.9515 2.43 40.3449 2.43C40.9515 2.43 41.4415 2.58333 41.8149 2.89C42.1882 3.19667 42.3882 3.61667 42.4149 4.15H41.5049C41.4849 3.86333 41.3682 3.63333 41.1549 3.46C40.9482 3.28667 40.6682 3.2 40.3149 3.2C39.9882 3.2 39.7282 3.27 39.5349 3.41C39.3415 3.55 39.2449 3.73333 39.2449 3.96C39.2449 4.14 39.3015 4.29 39.4149 4.41C39.5349 4.52333 39.6815 4.61667 39.8549 4.69C40.0349 4.75667 40.2815 4.83333 40.5949 4.92C40.9882 5.02667 41.3082 5.13333 41.5549 5.24C41.8015 5.34 42.0115 5.49333 42.1849 5.7C42.3649 5.90667 42.4582 6.17667 42.4649 6.51C42.4649 6.81 42.3815 7.08 42.2149 7.32C42.0482 7.56 41.8115 7.75 41.5049 7.89C41.2049 8.02333 40.8582 8.09 40.4649 8.09Z" fill="#393939"/>
</svg>
