<svg width="34" height="22" viewBox="0 0 34 22" fill="none" xmlns="http://www.w3.org/2000/svg">
<path d="M11.7623 8L10.1023 5.15H9.00227V8H8.09227V1.03H10.3423C10.8689 1.03 11.3123 1.12 11.6723 1.3C12.0389 1.48 12.3123 1.72333 12.4923 2.03C12.6723 2.33667 12.7623 2.68667 12.7623 3.08C12.7623 3.56 12.6223 3.98333 12.3423 4.35C12.0689 4.71667 11.6556 4.96 11.1023 5.08L12.8523 8H11.7623ZM9.00227 4.42H10.3423C10.8356 4.42 11.2056 4.3 11.4523 4.06C11.6989 3.81333 11.8223 3.48667 11.8223 3.08C11.8223 2.66667 11.6989 2.34667 11.4523 2.12C11.2123 1.89333 10.8423 1.78 10.3423 1.78H9.00227V4.42ZM18.4663 1.03V1.77H16.5663V8H15.6563V1.77H13.7463V1.03H18.4663ZM22.7464 8.07C22.0997 8.07 21.5097 7.92 20.9764 7.62C20.4431 7.31333 20.0197 6.89 19.7064 6.35C19.3997 5.80333 19.2464 5.19 19.2464 4.51C19.2464 3.83 19.3997 3.22 19.7064 2.68C20.0197 2.13333 20.4431 1.71 20.9764 1.41C21.5097 1.10333 22.0997 0.95 22.7464 0.95C23.3997 0.95 23.9931 1.10333 24.5264 1.41C25.0597 1.71 25.4797 2.13 25.7864 2.67C26.0931 3.21 26.2464 3.82333 26.2464 4.51C26.2464 5.19667 26.0931 5.81 25.7864 6.35C25.4797 6.89 25.0597 7.31333 24.5264 7.62C23.9931 7.92 23.3997 8.07 22.7464 8.07ZM22.7464 7.28C23.2331 7.28 23.6697 7.16667 24.0564 6.94C24.4497 6.71333 24.7564 6.39 24.9764 5.97C25.2031 5.55 25.3164 5.06333 25.3164 4.51C25.3164 3.95 25.2031 3.46333 24.9764 3.05C24.7564 2.63 24.4531 2.30667 24.0664 2.08C23.6797 1.85333 23.2397 1.74 22.7464 1.74C22.2531 1.74 21.8131 1.85333 21.4264 2.08C21.0397 2.30667 20.7331 2.63 20.5064 3.05C20.2864 3.46333 20.1764 3.95 20.1764 4.51C20.1764 5.06333 20.2864 5.55 20.5064 5.97C20.7331 6.39 21.0397 6.71333 21.4264 6.94C21.8197 7.16667 22.2597 7.28 22.7464 7.28ZM0.481758 17.51C0.481758 16.83 0.635091 16.22 0.941758 15.68C1.24842 15.1333 1.66509 14.7067 2.19176 14.4C2.72509 14.0933 3.31509 13.94 3.96176 13.94C4.72176 13.94 5.38509 14.1233 5.95176 14.49C6.51842 14.8567 6.93176 15.3767 7.19176 16.05H6.10176C5.90842 15.63 5.62842 15.3067 5.26176 15.08C4.90176 14.8533 4.46842 14.74 3.96176 14.74C3.47509 14.74 3.03842 14.8533 2.65176 15.08C2.26509 15.3067 1.96176 15.63 1.74176 16.05C1.52176 16.4633 1.41176 16.95 1.41176 17.51C1.41176 18.0633 1.52176 18.55 1.74176 18.97C1.96176 19.3833 2.26509 19.7033 2.65176 19.93C3.03842 20.1567 3.47509 20.27 3.96176 20.27C4.46842 20.27 4.90176 20.16 5.26176 19.94C5.62842 19.7133 5.90842 19.39 6.10176 18.97H7.19176C6.93176 19.6367 6.51842 20.1533 5.95176 20.52C5.38509 20.88 4.72176 21.06 3.96176 21.06C3.31509 21.06 2.72509 20.91 2.19176 20.61C1.66509 20.3033 1.24842 19.88 0.941758 19.34C0.635091 18.8 0.481758 18.19 0.481758 17.51ZM13.5464 18.05C13.5464 18.2233 13.5364 18.4067 13.5164 18.6H9.13637C9.1697 19.14 9.35303 19.5633 9.68637 19.87C10.0264 20.17 10.4364 20.32 10.9164 20.32C11.3097 20.32 11.6364 20.23 11.8964 20.05C12.163 19.8633 12.3497 19.6167 12.4564 19.31H13.4364C13.2897 19.8367 12.9964 20.2667 12.5564 20.6C12.1164 20.9267 11.5697 21.09 10.9164 21.09C10.3964 21.09 9.9297 20.9733 9.51637 20.74C9.1097 20.5067 8.7897 20.1767 8.55637 19.75C8.32303 19.3167 8.20637 18.8167 8.20637 18.25C8.20637 17.6833 8.3197 17.1867 8.54637 16.76C8.77303 16.3333 9.0897 16.0067 9.49637 15.78C9.9097 15.5467 10.383 15.43 10.9164 15.43C11.4364 15.43 11.8964 15.5433 12.2964 15.77C12.6964 15.9967 13.003 16.31 13.2164 16.71C13.4364 17.1033 13.5464 17.55 13.5464 18.05ZM12.6064 17.86C12.6064 17.5133 12.5297 17.2167 12.3764 16.97C12.223 16.7167 12.013 16.5267 11.7464 16.4C11.4864 16.2667 11.1964 16.2 10.8764 16.2C10.4164 16.2 10.023 16.3467 9.69637 16.64C9.37637 16.9333 9.19303 17.34 9.14637 17.86H12.6064ZM17.4175 15.42C18.0842 15.42 18.6242 15.6233 19.0375 16.03C19.4509 16.43 19.6575 17.01 19.6575 17.77V21H18.7575V17.9C18.7575 17.3533 18.6209 16.9367 18.3475 16.65C18.0742 16.3567 17.7009 16.21 17.2275 16.21C16.7475 16.21 16.3642 16.36 16.0775 16.66C15.7975 16.96 15.6575 17.3967 15.6575 17.97V21H14.7475V15.52H15.6575V16.3C15.8375 16.02 16.0809 15.8033 16.3875 15.65C16.7009 15.4967 17.0442 15.42 17.4175 15.42ZM22.254 16.27V19.5C22.254 19.7667 22.3107 19.9567 22.424 20.07C22.5374 20.1767 22.734 20.23 23.014 20.23H23.684V21H22.864C22.3574 21 21.9774 20.8833 21.724 20.65C21.4707 20.4167 21.344 20.0333 21.344 19.5V16.27H20.634V15.52H21.344V14.14H22.254V15.52H23.684V16.27H22.254ZM29.7866 18.05C29.7866 18.2233 29.7766 18.4067 29.7566 18.6H25.3766C25.4099 19.14 25.5933 19.5633 25.9266 19.87C26.2666 20.17 26.6766 20.32 27.1566 20.32C27.5499 20.32 27.8766 20.23 28.1366 20.05C28.4033 19.8633 28.5899 19.6167 28.6966 19.31H29.6766C29.5299 19.8367 29.2366 20.2667 28.7966 20.6C28.3566 20.9267 27.8099 21.09 27.1566 21.09C26.6366 21.09 26.1699 20.9733 25.7566 20.74C25.3499 20.5067 25.0299 20.1767 24.7966 19.75C24.5633 19.3167 24.4466 18.8167 24.4466 18.25C24.4466 17.6833 24.5599 17.1867 24.7866 16.76C25.0133 16.3333 25.3299 16.0067 25.7366 15.78C26.1499 15.5467 26.6233 15.43 27.1566 15.43C27.6766 15.43 28.1366 15.5433 28.5366 15.77C28.9366 15.9967 29.2433 16.31 29.4566 16.71C29.6766 17.1033 29.7866 17.55 29.7866 18.05ZM28.8466 17.86C28.8466 17.5133 28.7699 17.2167 28.6166 16.97C28.4633 16.7167 28.2533 16.5267 27.9866 16.4C27.7266 16.2667 27.4366 16.2 27.1166 16.2C26.6566 16.2 26.2633 16.3467 25.9366 16.64C25.6166 16.9333 25.4333 17.34 25.3866 17.86H28.8466ZM31.8978 16.41C32.0578 16.0967 32.2844 15.8533 32.5778 15.68C32.8778 15.5067 33.2411 15.42 33.6678 15.42V16.36H33.4278C32.4078 16.36 31.8978 16.9133 31.8978 18.02V21H30.9878V15.52H31.8978V16.41Z" fill="#434343"/>
</svg>
