<svg width="53" height="19" viewBox="0 0 53 19" fill="none" xmlns="http://www.w3.org/2000/svg">
<path d="M5.625 18.25C4.475 18.25 3.4 17.9667 2.4 17.4C1.4 16.8333 0.608333 16.1 0.025 15.2L1.75 13.575C2.25 14.2917 2.85 14.8667 3.55 15.3C4.26667 15.7333 5.00833 15.95 5.775 15.95C6.64167 15.95 7.34167 15.7167 7.875 15.25C8.40833 14.7833 8.675 14.1917 8.675 13.475C8.675 12.875 8.51667 12.3667 8.2 11.95C7.88333 11.5167 7.48333 11.1667 7 10.9C6.53333 10.6167 5.88333 10.2833 5.05 9.9C4.06667 9.45 3.275 9.04167 2.675 8.675C2.075 8.29167 1.55833 7.78333 1.125 7.15C0.708333 6.5 0.5 5.7 0.5 4.75C0.5 3.91667 0.716667 3.15833 1.15 2.475C1.6 1.79167 2.20833 1.25 2.975 0.849999C3.75833 0.449999 4.625 0.249999 5.575 0.249999C6.60833 0.249999 7.55833 0.491666 8.425 0.974999C9.30833 1.44167 10.05 2.03333 10.65 2.75L9.1 4.35C8.63333 3.81667 8.09167 3.38333 7.475 3.05C6.875 2.7 6.25833 2.525 5.625 2.525C4.825 2.525 4.175 2.74167 3.675 3.175C3.175 3.59167 2.925 4.125 2.925 4.775C2.925 5.29167 3.075 5.74167 3.375 6.125C3.675 6.50833 4.04167 6.83333 4.475 7.1C4.925 7.36667 5.54167 7.675 6.325 8.025C7.34167 8.49167 8.16667 8.925 8.8 9.325C9.43333 9.70833 9.96667 10.2417 10.4 10.925C10.85 11.5917 11.075 12.425 11.075 13.425C11.075 14.325 10.8583 15.1417 10.425 15.875C9.99167 16.6083 9.35833 17.1917 8.525 17.625C7.70833 18.0417 6.74167 18.25 5.625 18.25ZM25.6848 5.5V18H23.3348V16C22.8181 16.6833 22.2014 17.2167 21.4848 17.6C20.7681 17.9833 19.9598 18.175 19.0598 18.175C17.9264 18.175 16.9098 17.8917 16.0098 17.325C15.1264 16.7583 14.4348 15.9917 13.9348 15.025C13.4514 14.0417 13.2098 12.95 13.2098 11.75C13.2098 10.55 13.4514 9.46667 13.9348 8.5C14.4348 7.51667 15.1264 6.74167 16.0098 6.175C16.9098 5.60833 17.9264 5.325 19.0598 5.325C19.9598 5.325 20.7681 5.51667 21.4848 5.9C22.2014 6.28333 22.8181 6.81667 23.3348 7.5V5.5H25.6848ZM19.4598 15.9C20.1931 15.9 20.8514 15.7083 21.4348 15.325C22.0348 14.9417 22.5014 14.4333 22.8348 13.8C23.1681 13.1667 23.3348 12.4833 23.3348 11.75C23.3348 11.0167 23.1681 10.3333 22.8348 9.7C22.5014 9.06667 22.0348 8.56667 21.4348 8.2C20.8514 7.81667 20.1931 7.625 19.4598 7.625C18.7264 7.625 18.0681 7.80833 17.4848 8.175C16.9014 8.54167 16.4431 9.04167 16.1098 9.675C15.7931 10.3083 15.6348 11 15.6348 11.75C15.6348 12.5167 15.7931 13.2167 16.1098 13.85C16.4431 14.4833 16.9014 14.9833 17.4848 15.35C18.0681 15.7167 18.7264 15.9 19.4598 15.9ZM40.2645 5.5L34.7895 18.05H33.2895L27.7645 5.5H30.3145L34.0395 14.575L37.7395 5.5H40.2645ZM47.0203 5.325C48.2036 5.325 49.237 5.625 50.1203 6.225C51.0203 6.825 51.7036 7.64167 52.1703 8.675C52.6536 9.69167 52.8953 10.8167 52.8953 12.05C52.8953 12.3333 52.887 12.55 52.8703 12.7H43.3203C43.5036 13.6833 43.962 14.4667 44.6953 15.05C45.4286 15.6333 46.3286 15.925 47.3953 15.925C48.1786 15.925 48.9036 15.8083 49.5703 15.575C50.237 15.3417 50.887 15.0083 51.5203 14.575V16.95C50.987 17.35 50.3536 17.6583 49.6203 17.875C48.887 18.0917 48.1036 18.2 47.2703 18.2C45.987 18.2 44.862 17.9167 43.8953 17.35C42.9286 16.7667 42.187 15.9833 41.6703 15C41.1536 14.0167 40.8953 12.9333 40.8953 11.75C40.8953 10.5833 41.1536 9.51667 41.6703 8.55C42.187 7.56667 42.9036 6.78333 43.8203 6.2C44.7536 5.61667 45.8203 5.325 47.0203 5.325ZM46.9703 7.675C46.037 7.675 45.2453 7.95833 44.5953 8.525C43.9453 9.09167 43.5286 9.83333 43.3453 10.75H50.3953C50.212 9.81667 49.812 9.075 49.1953 8.525C48.5953 7.95833 47.8536 7.675 46.9703 7.675Z" fill="#EBFF00"/>
</svg>
