<svg width="28" height="28" viewBox="0 0 28 28" fill="none" xmlns="http://www.w3.org/2000/svg">
<path d="M3.97833 8.435H24.0217V22.435C24.0217 23.4344 23.6246 24.3929 22.9179 25.0996C22.2112 25.8063 21.2528 26.2033 20.2533 26.2033H7.74667C6.74724 26.2033 5.78875 25.8063 5.08205 25.0996C4.37535 24.3929 3.97833 23.4344 3.97833 22.435V8.435Z" stroke="#020202" stroke-width="1.2" stroke-miterlimit="10"/>
<path d="M9.54333 11.7717V6.20667C9.54333 5.02469 10.0129 3.89111 10.8487 3.05533C11.6844 2.21954 12.818 1.75 14 1.75C15.182 1.75 16.3156 2.21954 17.1513 3.05533C17.9871 3.89111 18.4567 5.02469 18.4567 6.20667V11.7717" stroke="#1A9E75" stroke-width="1.2" stroke-miterlimit="10"/>
</svg>
