<svg width="26" height="26" viewBox="0 0 26 26" fill="none" xmlns="http://www.w3.org/2000/svg">
<path d="M3.69415 7.8325H22.3058V20.8325C22.3058 21.7605 21.9372 22.6506 21.2809 23.3068C20.6247 23.963 19.7347 24.3317 18.8067 24.3317H7.19332C6.26528 24.3317 5.37526 23.963 4.71904 23.3068C4.06281 22.6506 3.69415 21.7605 3.69415 20.8325V7.8325Z" fill="#1A9E75" stroke="#1A9E75" stroke-width="1.2" stroke-miterlimit="10"/>
<path d="M8.86163 10.9308V5.76333C8.86163 4.66578 9.29763 3.61318 10.0737 2.83709C10.8498 2.061 11.9024 1.625 13 1.625C14.0975 1.625 15.1501 2.061 15.9262 2.83709C16.7023 3.61318 17.1383 4.66578 17.1383 5.76333V10.9308" stroke="#1A9E75" stroke-width="1.2" stroke-miterlimit="10"/>
</svg>
