<svg width="23" height="16" viewBox="0 0 23 16" fill="none" xmlns="http://www.w3.org/2000/svg">
<g clip-path="url(#clip0_421_2280)">
<path d="M20.7337 13.1391L3.53985 11.625C3.19395 11.5953 2.95137 11.375 2.99405 11.136L4.04746 5.35158C4.09014 5.11095 4.40684 4.9422 4.75049 4.97189L21.9466 6.48595C22.2925 6.51564 22.5351 6.73595 22.4924 6.97502L21.439 12.7594C21.394 13 21.0796 13.1688 20.7337 13.1391Z" fill="white"/>
<path d="M2.65263 11.1906C2.65263 11.1624 2.65488 11.1328 2.65937 11.1046L3.71279 5.32025C3.74424 5.14213 3.87451 4.98275 4.0789 4.87338C4.2833 4.764 4.53711 4.71556 4.79316 4.73744L21.9893 6.2515C22.5171 6.29838 22.8944 6.63588 22.827 7.00306L21.7736 12.7874C21.7062 13.1546 21.2211 13.4171 20.6933 13.3703L3.49717 11.8562C3.24111 11.8343 3.01201 11.7437 2.85478 11.6015C2.72226 11.4828 2.65263 11.339 2.65263 11.1906ZM22.16 6.92025C22.16 6.81869 22.0521 6.73119 21.9039 6.71869L4.70781 5.20306C4.6292 5.19681 4.55283 5.21088 4.49219 5.24369C4.42929 5.2765 4.39111 5.32494 4.38213 5.37963L3.32871 11.164C3.31973 11.2171 3.33994 11.2718 3.38711 11.314C3.43427 11.3578 3.5039 11.3843 3.58252 11.3906L20.7764 12.9062C20.9358 12.9203 21.0841 12.8406 21.1043 12.7296L22.1577 6.94681C22.1577 6.93744 22.16 6.92963 22.16 6.92025Z" fill="#020202"/>
<path d="M19.7499 9.37193L2.53137 10.7579C2.18547 10.786 1.87326 10.6141 1.83283 10.3735L0.869261 4.58131C0.828831 4.34068 1.0759 4.1235 1.4218 4.09537L18.6404 2.70943C18.9863 2.68131 19.2985 2.85318 19.3389 3.09381L20.3025 8.886C20.3429 9.12662 20.0936 9.34381 19.7499 9.37193Z" fill="white"/>
<path d="M0.527851 4.53131C0.527851 4.19537 0.891718 3.90318 1.38361 3.86412L18.6022 2.47818C19.1322 2.43599 19.6129 2.70006 19.6736 3.06881L20.6371 8.85943C20.6978 9.22818 20.3182 9.56256 19.7881 9.60474L2.56955 10.9907C2.03947 11.0329 1.55881 10.7688 1.49816 10.4001L0.53459 4.60787C0.530096 4.58287 0.527851 4.55631 0.527851 4.53131ZM19.97 8.93599C19.97 8.92818 19.97 8.92037 19.9678 8.91256L19.0042 3.12037C18.9952 3.06568 18.9571 3.01724 18.8942 2.98443C18.8313 2.95162 18.7571 2.93599 18.6785 2.94224L1.46222 4.32818C1.30275 4.34068 1.18596 4.44224 1.20617 4.55318L2.16974 10.3454C2.18771 10.4563 2.33371 10.5376 2.49318 10.5235L19.7117 9.13756C19.86 9.12662 19.97 9.03756 19.97 8.93599Z" fill="#020202"/>
<path d="M5.28059 7.53126L3.16702 7.70157C2.82112 7.7297 2.50891 7.55782 2.46848 7.3172L2.22366 5.84689C2.18323 5.60626 2.4303 5.38907 2.7762 5.36095L4.88977 5.19064C5.23567 5.16251 5.54788 5.33439 5.58831 5.57501L5.83313 7.04532C5.87356 7.28595 5.62649 7.5047 5.28059 7.53126Z" fill="#1A9E75"/>
<path d="M1.88222 5.7953C1.88222 5.45936 2.24609 5.16717 2.73798 5.12811L4.85156 4.9578C5.38164 4.91561 5.8623 5.17967 5.92295 5.54842L6.16777 7.01873C6.22841 7.38748 5.84882 7.72186 5.31875 7.76405L3.20517 7.93436C2.67509 7.97655 2.19443 7.71248 2.13379 7.34373L1.88896 5.87342C1.88447 5.84686 1.88222 5.82186 1.88222 5.7953ZM5.50068 7.09686C5.50068 7.08905 5.50068 7.08123 5.49843 7.07342L5.25361 5.60311C5.23564 5.49217 5.08965 5.41092 4.93017 5.42498L2.8166 5.5953C2.65713 5.6078 2.54033 5.70936 2.56054 5.8203L2.80537 7.29061C2.82334 7.40155 2.96933 7.4828 3.1288 7.46873L5.24238 7.29842C5.39062 7.28748 5.50068 7.19842 5.50068 7.09686Z" fill="#020202"/>
<path d="M6.93366 5.13598C6.93366 5.01879 7.05944 4.91723 7.23239 4.90317L12.7039 4.46254C12.8881 4.44692 13.0565 4.5391 13.0767 4.66879C13.0992 4.79692 12.9667 4.9141 12.7802 4.92817L7.30876 5.36879C7.12458 5.38442 6.95612 5.29223 6.93591 5.16254C6.93366 5.15473 6.93366 5.14535 6.93366 5.13598ZM6.89323 6.14067C6.89323 6.02348 7.01902 5.92192 7.19196 5.90785L14.4424 5.32348C14.6265 5.30785 14.795 5.40004 14.8152 5.52973C14.8377 5.65785 14.7051 5.77504 14.5187 5.7891L7.26833 6.37348C7.08415 6.3891 6.91569 6.29692 6.89548 6.16723C6.89323 6.15785 6.89323 6.15004 6.89323 6.14067ZM7.07292 7.22348C7.07292 7.10629 7.1987 7.00473 7.37165 6.99067L11.8863 6.6266C12.0705 6.61098 12.2389 6.70317 12.2592 6.83285C12.2816 6.96098 12.1491 7.07817 11.9627 7.09223L7.44802 7.45629C7.26384 7.47192 7.09538 7.37973 7.07517 7.25004C7.07292 7.24067 7.07292 7.23129 7.07292 7.22348Z" fill="#020202"/>
<path d="M17.3825 3.67033C17.3825 3.55314 17.5083 3.45158 17.6813 3.43752C17.8655 3.42189 18.0339 3.51408 18.0541 3.64377L18.1709 4.35002C18.1934 4.47814 18.0609 4.59533 17.8744 4.60939C17.688 4.62345 17.5218 4.53283 17.5016 4.40314L17.3848 3.69689C17.3825 3.68908 17.3825 3.6797 17.3825 3.67033ZM17.6139 5.07189C17.6139 4.9547 17.7397 4.85314 17.9126 4.83908C18.0968 4.82345 18.2653 4.91564 18.2855 5.04533L18.4023 5.75158C18.4247 5.8797 18.2922 5.99689 18.1058 6.01096C17.9216 6.02658 17.7531 5.93439 17.7329 5.8047L17.6161 5.09845C17.6161 5.09064 17.6139 5.08127 17.6139 5.07189ZM17.8475 6.47345C17.8475 6.35627 17.9733 6.2547 18.1462 6.24064C18.3304 6.22502 18.4988 6.31721 18.5191 6.44689L18.6359 7.15314C18.6583 7.28127 18.5258 7.39846 18.3394 7.41252C18.1552 7.42814 17.9867 7.33596 17.9665 7.20627L17.8497 6.50002C17.8497 6.49221 17.8475 6.48283 17.8475 6.47345ZM18.0811 7.87502C18.0811 7.75783 18.2069 7.65627 18.3798 7.64221C18.564 7.62658 18.7324 7.71877 18.7527 7.84845L18.8695 8.55471C18.8897 8.68283 18.7594 8.80002 18.573 8.81408C18.3888 8.8297 18.2203 8.73752 18.2001 8.60783L18.0833 7.90158C18.0811 7.89221 18.0811 7.88439 18.0811 7.87502Z" fill="#020202"/>
</g>
<defs>
<clipPath id="clip0_421_2280">
<rect width="16" height="23" fill="white" transform="matrix(0 1 -1 0 23 0)"/>
</clipPath>
</defs>
</svg>
