<svg width="25" height="25" viewBox="0 0 25 25" fill="none" xmlns="http://www.w3.org/2000/svg">
<path d="M22.5366 20.5298L3.84768 18.164C3.4717 18.1177 3.20803 17.7734 3.25441 17.3999L4.39943 8.3618C4.44582 7.98582 4.79006 7.72215 5.16359 7.76854L23.855 10.1343C24.231 10.1806 24.4946 10.5249 24.4483 10.8984L23.3032 19.9365C23.2544 20.3125 22.9126 20.5762 22.5366 20.5298Z" fill="#1A9E75"/>
<path d="M2.88332 17.4853C2.88332 17.4414 2.88576 17.395 2.89064 17.351L4.03566 8.31296C4.06984 8.03464 4.21144 7.78562 4.43361 7.61472C4.65578 7.44382 4.93166 7.36814 5.20998 7.40232L23.9014 9.76804C24.4751 9.84128 24.8853 10.3686 24.812 10.9424L23.667 19.9804C23.5938 20.5542 23.0664 20.9643 22.4927 20.8911L3.80128 18.5254C3.52296 18.4912 3.27394 18.3496 3.10304 18.1274C2.959 17.9419 2.88332 17.7173 2.88332 17.4853ZM24.0869 10.813C24.0869 10.6543 23.9697 10.5176 23.8086 10.498L5.1172 8.12986C5.03175 8.12009 4.94875 8.14206 4.88283 8.19333C4.81447 8.2446 4.77296 8.32029 4.7632 8.40574L3.61818 17.4438C3.60841 17.5268 3.63039 17.6123 3.68166 17.6782C3.73293 17.7466 3.80861 17.7881 3.89406 17.7978L22.583 20.166C22.7564 20.188 22.9175 20.0635 22.9395 19.8901L24.0845 10.8545C24.0845 10.8398 24.0869 10.8276 24.0869 10.813Z" fill="#1A9E75"/>
<path d="M21.4673 14.6436L2.75149 16.8091C2.37551 16.853 2.03616 16.5845 1.99221 16.2085L0.944851 7.15821C0.900906 6.78224 1.16946 6.44288 1.54544 6.39894L20.2613 4.23341C20.6372 4.18946 20.9766 4.45802 21.0205 4.83399L22.0679 13.8843C22.1118 14.2603 21.8408 14.5996 21.4673 14.6436Z" fill="#F0FFFA"/>
<path d="M0.573709 7.0801C0.573709 6.5552 0.969215 6.09865 1.50388 6.03762L20.2197 3.87209C20.7959 3.80617 21.3183 4.21877 21.3843 4.79494L22.4316 13.8428C22.4975 14.419 22.0849 14.9414 21.5088 15.0073L2.79295 17.1729C2.21678 17.2388 1.69431 16.8262 1.6284 16.25L0.581034 7.19973C0.576151 7.16066 0.573709 7.11916 0.573709 7.0801ZM21.7065 13.9624C21.7065 13.9502 21.7065 13.938 21.7041 13.9258L20.6567 4.87551C20.647 4.79006 20.6054 4.71438 20.5371 4.66311C20.4687 4.61184 20.3882 4.58742 20.3027 4.59719L1.58933 6.76271C1.41599 6.78225 1.28904 6.94094 1.31101 7.11428L2.35838 16.1646C2.37791 16.3379 2.5366 16.4649 2.70994 16.4429L21.4258 14.2774C21.5869 14.2603 21.7065 14.1211 21.7065 13.9624Z" fill="#1A9E75"/>
<path d="M5.73974 11.7676L3.44237 12.0337C3.0664 12.0776 2.72704 11.8091 2.6831 11.4331L2.41698 9.13575C2.37304 8.75977 2.64159 8.42042 3.01757 8.37647L5.31493 8.11036C5.69091 8.06642 6.03026 8.33497 6.07421 8.71095L6.34032 11.0083C6.38427 11.3843 6.11571 11.7261 5.73974 11.7676Z" fill="#1A9E75"/>
<path d="M2.04588 9.0552C2.04588 8.53029 2.44139 8.07375 2.97605 8.01272L5.27342 7.7466C5.84959 7.68068 6.37205 8.09328 6.43797 8.66945L6.70408 10.9668C6.77 11.543 6.3574 12.0654 5.78123 12.1314L3.48387 12.3975C2.9077 12.4634 2.38523 12.0508 2.31932 11.4746L2.0532 9.17727C2.04832 9.13576 2.04588 9.0967 2.04588 9.0552ZM5.97899 11.0889C5.97899 11.0767 5.97898 11.0645 5.97654 11.0523L5.71043 8.7549C5.6909 8.58156 5.53221 8.45461 5.35887 8.47658L3.0615 8.7427C2.88816 8.76223 2.76121 8.92092 2.78318 9.09426L3.0493 11.3916C3.06883 11.565 3.22752 11.6919 3.40086 11.6699L5.69822 11.4038C5.85936 11.3867 5.97899 11.2476 5.97899 11.0889Z" fill="#1A9E75"/>
<path d="M7.53661 8.02491C7.53661 7.84181 7.67333 7.68312 7.86132 7.66114L13.8086 6.97267C14.0088 6.94825 14.1919 7.0923 14.2139 7.29493C14.2383 7.49513 14.0942 7.67823 13.8916 7.70021L7.94433 8.38868C7.74413 8.4131 7.56102 8.26905 7.53905 8.06642C7.53661 8.05421 7.53661 8.03956 7.53661 8.02491ZM7.49267 9.59474C7.49267 9.41163 7.62938 9.25294 7.81737 9.23097L15.6982 8.31788C15.8984 8.29347 16.0815 8.43751 16.1035 8.64015C16.1279 8.84034 15.9839 9.02345 15.7812 9.04542L7.90038 9.95851C7.70018 9.98292 7.51708 9.83888 7.49511 9.63624C7.49266 9.62159 7.49267 9.60939 7.49267 9.59474ZM7.68798 11.2866C7.68798 11.1035 7.8247 10.9448 8.01268 10.9229L12.9199 10.354C13.1201 10.3296 13.3032 10.4736 13.3252 10.6763C13.3496 10.8765 13.2056 11.0596 13.0029 11.0816L8.09569 11.6504C7.8955 11.6748 7.71239 11.5308 7.69042 11.3281C7.68798 11.3135 7.68798 11.2988 7.68798 11.2866Z" fill="#1A9E75"/>
<path d="M18.8933 5.73463C18.8933 5.55153 19.03 5.39283 19.218 5.37086C19.4182 5.34645 19.6013 5.49049 19.6232 5.69313L19.7502 6.79664C19.7746 6.99684 19.6306 7.17994 19.4279 7.20192C19.2253 7.22389 19.0446 7.08229 19.0227 6.87965L18.8957 5.77613C18.8933 5.76393 18.8933 5.74928 18.8933 5.73463ZM19.1447 7.92457C19.1447 7.74147 19.2814 7.58278 19.4694 7.5608C19.6696 7.53639 19.8527 7.68043 19.8747 7.88307L20.0017 8.98658C20.0261 9.18678 19.882 9.36989 19.6794 9.39186C19.4792 9.41627 19.2961 9.27223 19.2741 9.06959L19.1472 7.96608C19.1472 7.95387 19.1447 7.93922 19.1447 7.92457ZM19.3986 10.1145C19.3986 9.93141 19.5354 9.77272 19.7233 9.75074C19.9235 9.72633 20.1066 9.87037 20.1286 10.073L20.2556 11.1765C20.28 11.3767 20.1359 11.5598 19.9333 11.5818C19.7331 11.6062 19.55 11.4622 19.528 11.2595L19.4011 10.156C19.4011 10.1438 19.3986 10.1292 19.3986 10.1145ZM19.6525 12.3045C19.6525 12.1213 19.7893 11.9627 19.9772 11.9407C20.1774 11.9163 20.3605 12.0603 20.3825 12.263L20.5095 13.3665C20.5314 13.5667 20.3898 13.7498 20.1872 13.7717C19.987 13.7962 19.8039 13.6521 19.7819 13.4495L19.655 12.346C19.6525 12.3313 19.6525 12.3191 19.6525 12.3045Z" fill="#1A9E75"/>
<path d="M23.0284 11.3521C23.0739 11.1748 23.2457 11.055 23.4333 11.0803C23.6332 11.1064 23.7749 11.2913 23.7459 11.4931L23.595 12.5936C23.5689 12.7936 23.384 12.9352 23.1822 12.9062C22.9805 12.8772 22.8406 12.6952 22.8696 12.4934L23.0205 11.3929C23.0212 11.3805 23.0248 11.3663 23.0284 11.3521ZM22.7285 13.536C22.774 13.3586 22.9458 13.2388 23.1333 13.2642C23.3333 13.2902 23.475 13.4752 23.446 13.6769L23.2951 14.7774C23.269 14.9774 23.0841 15.1191 22.8823 15.09C22.6823 15.064 22.5407 14.879 22.5697 14.6773L22.7206 13.5768C22.7236 13.565 22.7249 13.5502 22.7285 13.536ZM22.431 15.7204C22.4764 15.543 22.6483 15.4232 22.8358 15.4486C23.0358 15.4746 23.1774 15.6596 23.1484 15.8614L22.9975 16.9619C22.9715 17.1619 22.7865 17.3035 22.5848 17.2745C22.3848 17.2485 22.2432 17.0635 22.2722 16.8617L22.423 15.7612C22.4261 15.7494 22.4273 15.7346 22.431 15.7204ZM22.1334 17.9049C22.1789 17.7275 22.3507 17.6077 22.5383 17.6331C22.7383 17.6591 22.8799 17.8441 22.8509 18.0458L22.7 19.1463C22.6716 19.3457 22.489 19.4879 22.2872 19.4589C22.0872 19.4329 21.9456 19.2479 21.9746 19.0462L22.1255 17.9457C22.1268 17.9309 22.1298 17.919 22.1334 17.9049Z" fill="#F0FFFA"/>
</svg>
