<svg width="28" height="28" viewBox="0 0 28 28" fill="none" xmlns="http://www.w3.org/2000/svg">
<path d="M25.241 22.9933L4.30937 20.3437C3.88828 20.2918 3.59296 19.9062 3.64492 19.4879L4.92734 9.3652C4.97929 8.94411 5.36484 8.6488 5.7832 8.70075L26.7176 11.3504C27.1387 11.4023 27.434 11.7879 27.382 12.2062L26.0996 22.3289C26.0449 22.75 25.6621 23.0453 25.241 22.9933Z" fill="white"/>
<path d="M3.22929 19.5836C3.22929 19.5344 3.23203 19.4824 3.2375 19.4332L4.51992 9.31053C4.5582 8.99881 4.71679 8.71991 4.96562 8.5285C5.21445 8.3371 5.52344 8.25233 5.83516 8.29061L26.7695 10.9402C27.4121 11.0223 27.8715 11.6129 27.7895 12.2555L26.507 22.3781C26.425 23.0207 25.8344 23.4801 25.1918 23.398L4.25742 20.7484C3.9457 20.7101 3.66679 20.5515 3.47539 20.3027C3.31406 20.0949 3.22929 19.8433 3.22929 19.5836ZM26.9773 12.1105C26.9773 11.9328 26.8461 11.7797 26.6656 11.7578L5.73125 9.10545C5.63554 9.09452 5.54258 9.11913 5.46875 9.17655C5.39219 9.23397 5.3457 9.31874 5.33476 9.41444L4.05234 19.5371C4.0414 19.6301 4.06601 19.7258 4.12343 19.7996C4.18086 19.8762 4.26562 19.9226 4.36133 19.9336L25.293 22.5859C25.4871 22.6105 25.6676 22.4711 25.6922 22.2769L26.9746 12.157C26.9746 12.1406 26.9773 12.1269 26.9773 12.1105Z" fill="#020202"/>
<path d="M24.0434 16.4007L3.08164 18.8261C2.66055 18.8753 2.28047 18.5746 2.23125 18.1535L1.0582 8.01714C1.00899 7.59605 1.30977 7.21597 1.73086 7.16675L22.6926 4.74136C23.1137 4.69214 23.4938 4.99292 23.543 5.41401L24.716 15.5503C24.7652 15.9714 24.4617 16.3515 24.0434 16.4007Z" fill="white"/>
<path d="M0.64258 7.9297C0.64258 7.3418 1.08555 6.83048 1.68438 6.76212L22.6461 4.33673C23.2914 4.2629 23.8766 4.72501 23.9504 5.37032L25.1234 15.5039C25.1973 16.1492 24.7352 16.7344 24.0898 16.8082L3.12813 19.2336C2.48281 19.3074 1.89766 18.8453 1.82383 18.2L0.650782 8.06368C0.645313 8.01993 0.64258 7.97345 0.64258 7.9297ZM24.3113 15.6379C24.3113 15.6242 24.3113 15.6106 24.3086 15.5969L23.1355 5.46055C23.1246 5.36485 23.0781 5.28009 23.0016 5.22266C22.925 5.16524 22.8348 5.1379 22.7391 5.14884L1.78008 7.57423C1.58594 7.5961 1.44375 7.77384 1.46836 7.96798L2.64141 18.1043C2.66328 18.2984 2.84102 18.4406 3.03516 18.416L23.9969 15.9906C24.1773 15.9715 24.3113 15.8156 24.3113 15.6379Z" fill="#020202"/>
<path d="M6.42851 13.1797L3.85547 13.4778C3.43437 13.527 3.0543 13.2262 3.00508 12.8051L2.70703 10.2321C2.65781 9.81099 2.95859 9.43091 3.37969 9.38169L5.95273 9.08364C6.37383 9.03442 6.75391 9.3352 6.80312 9.7563L7.10117 12.3293C7.15039 12.7504 6.84961 13.1333 6.42851 13.1797Z" fill="#1A9E75"/>
<path d="M2.29141 10.1418C2.29141 9.55394 2.73438 9.04261 3.33321 8.97425L5.90625 8.6762C6.55156 8.60238 7.13672 9.06449 7.21055 9.7098L7.5086 12.2828C7.58242 12.9282 7.12031 13.5133 6.475 13.5871L3.90196 13.8852C3.25664 13.959 2.67149 13.4969 2.59766 12.8516L2.29961 10.2785C2.29414 10.2321 2.29141 10.1883 2.29141 10.1418ZM6.69649 12.4196C6.69649 12.4059 6.69649 12.3922 6.69375 12.3785L6.39571 9.8055C6.37383 9.61136 6.1961 9.46917 6.00196 9.49378L3.42891 9.79183C3.23477 9.8137 3.09258 9.99144 3.11719 10.1856L3.41524 12.7586C3.43711 12.9528 3.61485 13.095 3.80899 13.0703L6.38203 12.7723C6.5625 12.7532 6.69649 12.5973 6.69649 12.4196Z" fill="#020202"/>
<path d="M8.44101 8.98793C8.44101 8.78285 8.59414 8.60512 8.80469 8.58051L15.4656 7.80942C15.6898 7.78207 15.8949 7.9434 15.9195 8.17035C15.9469 8.39457 15.7855 8.59965 15.5586 8.62426L8.89765 9.39535C8.67344 9.4227 8.46836 9.26137 8.44375 9.03442C8.44101 9.02074 8.44101 9.00434 8.44101 8.98793ZM8.3918 10.7461C8.3918 10.5411 8.54492 10.3633 8.75547 10.3387L17.582 9.31606C17.8062 9.28871 18.0113 9.45004 18.0359 9.67699C18.0633 9.90121 17.902 10.1063 17.675 10.1309L8.84843 11.1536C8.62422 11.1809 8.41914 11.0196 8.39453 10.7926C8.3918 10.7762 8.3918 10.7625 8.3918 10.7461ZM8.61055 12.6411C8.61055 12.436 8.76367 12.2582 8.97422 12.2336L14.4703 11.5965C14.6945 11.5692 14.8996 11.7305 14.9242 11.9575C14.9516 12.1817 14.7902 12.3868 14.5633 12.4114L9.06718 13.0485C8.84297 13.0758 8.63789 12.9145 8.61328 12.6875C8.61055 12.6711 8.61055 12.6547 8.61055 12.6411Z" fill="#020202"/>
<path d="M21.1613 6.42302C21.1613 6.21794 21.3145 6.0402 21.525 6.01559C21.7492 5.98825 21.9543 6.14958 21.9789 6.37653L22.1211 7.61247C22.1484 7.83669 21.9871 8.04177 21.7602 8.06638C21.5332 8.09098 21.3309 7.93239 21.3062 7.70544L21.1641 6.4695C21.1613 6.45583 21.1613 6.43942 21.1613 6.42302ZM21.443 8.87575C21.443 8.67067 21.5961 8.49294 21.8066 8.46833C22.0309 8.44099 22.2359 8.60231 22.2605 8.82927L22.4027 10.0652C22.4301 10.2894 22.2687 10.4945 22.0418 10.5191C21.8176 10.5465 21.6125 10.3851 21.5879 10.1582L21.4457 8.92223C21.4457 8.90856 21.443 8.89216 21.443 8.87575ZM21.7273 11.3285C21.7273 11.1234 21.8805 10.9457 22.091 10.9211C22.3152 10.8937 22.5203 11.055 22.5449 11.282L22.6871 12.5179C22.7145 12.7422 22.5531 12.9472 22.3262 12.9718C22.102 12.9992 21.8969 12.8379 21.8723 12.6109L21.7301 11.375C21.7301 11.3613 21.7273 11.3449 21.7273 11.3285ZM22.0117 13.7812C22.0117 13.5761 22.1648 13.3984 22.3754 13.3738C22.5996 13.3465 22.8047 13.5078 22.8293 13.7347L22.9715 14.9707C22.9961 15.1949 22.8375 15.4 22.6105 15.4246C22.3863 15.4519 22.1812 15.2906 22.1566 15.0636L22.0145 13.8277C22.0117 13.8113 22.0117 13.7976 22.0117 13.7812Z" fill="#020202"/>
</svg>
