<svg width="25" height="25" viewBox="0 0 25 25" fill="none" xmlns="http://www.w3.org/2000/svg">
<g clip-path="url(#clip0_421_3654)">
<path d="M22.5366 20.5298L3.84766 18.164C3.47168 18.1177 3.20801 17.7734 3.2544 17.3999L4.39942 8.3618C4.4458 7.98582 4.79004 7.72215 5.16358 7.76854L23.855 10.1343C24.231 10.1806 24.4946 10.5249 24.4482 10.8984L23.3032 19.9365C23.2544 20.3125 22.9126 20.5762 22.5366 20.5298Z" fill="#1A9E75"/>
<path d="M2.8833 17.4853C2.8833 17.4414 2.88574 17.395 2.89063 17.351L4.03564 8.31296C4.06982 8.03464 4.21143 7.78562 4.43359 7.61472C4.65576 7.44382 4.93164 7.36814 5.20996 7.40232L23.9014 9.76804C24.4751 9.84128 24.8853 10.3686 24.812 10.9424L23.667 19.9804C23.5938 20.5542 23.0664 20.9643 22.4927 20.8911L3.80127 18.5254C3.52295 18.4912 3.27393 18.3496 3.10303 18.1274C2.95898 17.9419 2.8833 17.7173 2.8833 17.4853ZM24.0869 10.813C24.0869 10.6543 23.9697 10.5176 23.8086 10.498L5.11719 8.12986C5.03174 8.12009 4.94873 8.14206 4.88281 8.19333C4.81445 8.2446 4.77295 8.32029 4.76318 8.40574L3.61816 17.4438C3.6084 17.5268 3.63037 17.6123 3.68164 17.6782C3.73291 17.7466 3.80859 17.7881 3.89404 17.7978L22.583 20.166C22.7563 20.188 22.9175 20.0635 22.9395 19.8901L24.0845 10.8545C24.0845 10.8398 24.0869 10.8276 24.0869 10.813Z" fill="#1A9E75"/>
<path d="M21.4673 14.6436L2.75146 16.8091C2.37548 16.853 2.03613 16.5845 1.99218 16.2085L0.94482 7.15821C0.900875 6.78224 1.16943 6.44288 1.54541 6.39894L20.2612 4.23341C20.6372 4.18946 20.9766 4.45802 21.0205 4.83399L22.0679 13.8843C22.1118 14.2603 21.8408 14.5996 21.4673 14.6436Z" fill="#F0FFFA"/>
<path d="M0.573725 7.0801C0.573725 6.5552 0.969231 6.09865 1.5039 6.03762L20.2197 3.87209C20.7959 3.80617 21.3184 4.21877 21.3843 4.79494L22.4316 13.8428C22.4976 14.419 22.085 14.9414 21.5088 15.0073L2.79296 17.1729C2.21679 17.2388 1.69433 16.8262 1.62841 16.25L0.581049 7.19973C0.576166 7.16066 0.573725 7.11916 0.573725 7.0801ZM21.7065 13.9624C21.7065 13.9502 21.7065 13.938 21.7041 13.9258L20.6567 4.87551C20.647 4.79006 20.6055 4.71438 20.5371 4.66311C20.4687 4.61184 20.3882 4.58742 20.3027 4.59719L1.58935 6.76271C1.41601 6.78225 1.28906 6.94094 1.31103 7.11428L2.35839 16.1646C2.37792 16.3379 2.53662 16.4649 2.70996 16.4429L21.4258 14.2774C21.5869 14.2603 21.7065 14.1211 21.7065 13.9624Z" fill="#1A9E75"/>
<path d="M5.73975 11.7676L3.44239 12.0337C3.06641 12.0776 2.72706 11.8091 2.68311 11.4331L2.417 9.13575C2.37305 8.75977 2.64161 8.42042 3.01758 8.37647L5.31495 8.11036C5.69092 8.06642 6.03028 8.33497 6.07422 8.71095L6.34034 11.0083C6.38428 11.3843 6.11573 11.7261 5.73975 11.7676Z" fill="#1A9E75"/>
<path d="M2.04589 9.0552C2.04589 8.53029 2.4414 8.07375 2.97607 8.01272L5.27343 7.7466C5.84961 7.68068 6.37207 8.09328 6.43798 8.66945L6.7041 10.9668C6.77001 11.543 6.35742 12.0654 5.78125 12.1314L3.48388 12.3975C2.90771 12.4634 2.38525 12.0508 2.31933 11.4746L2.05322 9.17727C2.04833 9.13576 2.04589 9.0967 2.04589 9.0552ZM5.979 11.0889C5.979 11.0767 5.979 11.0645 5.97656 11.0523L5.71045 8.7549C5.69091 8.58156 5.53222 8.45461 5.35888 8.47658L3.06152 8.7427C2.88818 8.76223 2.76123 8.92092 2.7832 9.09426L3.04931 11.3916C3.06884 11.565 3.22753 11.6919 3.40087 11.6699L5.69824 11.4038C5.85937 11.3867 5.979 11.2476 5.979 11.0889Z" fill="#1A9E75"/>
<path d="M7.53663 8.02491C7.53663 7.84181 7.67334 7.68312 7.86133 7.66114L13.8086 6.97267C14.0088 6.94825 14.1919 7.0923 14.2139 7.29493C14.2383 7.49513 14.0942 7.67823 13.8916 7.70021L7.94434 8.38868C7.74415 8.4131 7.56104 8.26905 7.53907 8.06642C7.53662 8.05421 7.53663 8.03956 7.53663 8.02491ZM7.49268 9.59474C7.49268 9.41163 7.6294 9.25294 7.81739 9.23097L15.6982 8.31788C15.8984 8.29347 16.0815 8.43751 16.1035 8.64015C16.1279 8.84034 15.9839 9.02345 15.7813 9.04542L7.90039 9.95851C7.7002 9.98292 7.51709 9.83888 7.49512 9.63624C7.49268 9.62159 7.49268 9.60939 7.49268 9.59474ZM7.68799 11.2866C7.68799 11.1035 7.82471 10.9448 8.0127 10.9229L12.9199 10.354C13.1201 10.3296 13.3032 10.4736 13.3252 10.6763C13.3496 10.8765 13.2056 11.0596 13.0029 11.0816L8.09571 11.6504C7.89551 11.6748 7.71241 11.5308 7.69043 11.3281C7.68799 11.3135 7.68799 11.2988 7.68799 11.2866Z" fill="#1A9E75"/>
<path d="M18.8933 5.73463C18.8933 5.55153 19.03 5.39283 19.218 5.37086C19.4182 5.34645 19.6013 5.49049 19.6232 5.69313L19.7502 6.79664C19.7746 6.99684 19.6306 7.17994 19.4279 7.20192C19.2253 7.22389 19.0446 7.08229 19.0227 6.87965L18.8957 5.77613C18.8933 5.76393 18.8933 5.74928 18.8933 5.73463ZM19.1447 7.92457C19.1447 7.74147 19.2814 7.58278 19.4694 7.5608C19.6696 7.53639 19.8527 7.68043 19.8747 7.88307L20.0017 8.98658C20.0261 9.18678 19.882 9.36989 19.6794 9.39186C19.4792 9.41627 19.2961 9.27223 19.2741 9.06959L19.1472 7.96608C19.1472 7.95387 19.1447 7.93922 19.1447 7.92457ZM19.3986 10.1145C19.3986 9.93141 19.5354 9.77272 19.7233 9.75074C19.9235 9.72633 20.1066 9.87037 20.1286 10.073L20.2556 11.1765C20.28 11.3767 20.1359 11.5598 19.9333 11.5818C19.7331 11.6062 19.55 11.4622 19.528 11.2595L19.4011 10.156C19.4011 10.1438 19.3986 10.1292 19.3986 10.1145ZM19.6525 12.3045C19.6525 12.1213 19.7893 11.9627 19.9772 11.9407C20.1774 11.9163 20.3605 12.0603 20.3825 12.263L20.5095 13.3665C20.5314 13.5667 20.3898 13.7498 20.1872 13.7717C19.987 13.7962 19.8039 13.6521 19.7819 13.4495L19.655 12.346C19.6525 12.3313 19.6525 12.3191 19.6525 12.3045Z" fill="#1A9E75"/>
<path d="M23.0284 11.3521C23.0739 11.1748 23.2457 11.055 23.4332 11.0803C23.6332 11.1064 23.7749 11.2913 23.7459 11.4931L23.595 12.5936C23.5689 12.7936 23.3839 12.9352 23.1822 12.9062C22.9804 12.8772 22.8406 12.6952 22.8696 12.4934L23.0205 11.3929C23.0211 11.3805 23.0248 11.3663 23.0284 11.3521ZM22.7285 13.536C22.7739 13.3586 22.9458 13.2388 23.1333 13.2642C23.3333 13.2902 23.475 13.4752 23.4459 13.6769L23.2951 14.7774C23.269 14.9774 23.084 15.1191 22.8823 15.09C22.6823 15.064 22.5407 14.879 22.5697 14.6773L22.7206 13.5768C22.7236 13.565 22.7249 13.5502 22.7285 13.536ZM22.431 15.7204C22.4764 15.543 22.6482 15.4232 22.8358 15.4486C23.0358 15.4746 23.1774 15.6596 23.1484 15.8614L22.9975 16.9619C22.9715 17.1619 22.7865 17.3035 22.5848 17.2745C22.3848 17.2485 22.2431 17.0635 22.2721 16.8617L22.423 15.7612C22.4261 15.7494 22.4273 15.7346 22.431 15.7204ZM22.1334 17.9049C22.1789 17.7275 22.3507 17.6077 22.5383 17.6331C22.7383 17.6591 22.8799 17.8441 22.8509 18.0458L22.7 19.1463C22.6716 19.3457 22.489 19.4879 22.2872 19.4589C22.0872 19.4329 21.9456 19.2479 21.9746 19.0462L22.1255 17.9457C22.1268 17.9309 22.1298 17.919 22.1334 17.9049Z" fill="#F0FFFA"/>
</g>
<defs>
<clipPath id="clip0_421_3654">
<rect width="25" height="25" fill="white" transform="matrix(0 1 -1 0 25 0)"/>
</clipPath>
</defs>
</svg>
