<svg width="26" height="26" viewBox="0 0 26 26" fill="none" xmlns="http://www.w3.org/2000/svg">
<path d="M13 9.75C12.4254 9.75 11.8743 9.52173 11.4679 9.1154C11.0616 8.70907 10.8333 8.15797 10.8333 7.58333C10.8333 6.38083 11.8083 5.41667 13 5.41667C14.2025 5.41667 15.1667 6.38083 15.1667 7.58333C15.1667 8.15797 14.9384 8.70907 14.5321 9.1154C14.1257 9.52173 13.5746 9.75 13 9.75ZM13 15.1667C12.4254 15.1667 11.8743 14.9384 11.4679 14.5321C11.0616 14.1257 10.8333 13.5746 10.8333 13C10.8333 11.7975 11.8083 10.8333 13 10.8333C14.2025 10.8333 15.1667 11.7975 15.1667 13C15.1667 13.5746 14.9384 14.1257 14.5321 14.5321C14.1257 14.9384 13.5746 15.1667 13 15.1667ZM13 20.5833C12.4254 20.5833 11.8743 20.3551 11.4679 19.9487C11.0616 19.5424 10.8333 18.9913 10.8333 18.4167C10.8333 17.2142 11.8083 16.25 13 16.25C14.2025 16.25 15.1667 17.2142 15.1667 18.4167C15.1667 18.9913 14.9384 19.5424 14.5321 19.9487C14.1257 20.3551 13.5746 20.5833 13 20.5833ZM21.6667 10.8333H18.4167V9.59833C20.28 9.11083 21.6667 7.43167 21.6667 5.41667H18.4167V4.33333C18.4167 4.04602 18.3025 3.77047 18.0994 3.5673C17.8962 3.36414 17.6206 3.25 17.3333 3.25H8.66667C8.37935 3.25 8.1038 3.36414 7.90063 3.5673C7.69747 3.77047 7.58333 4.04602 7.58333 4.33333V5.41667H4.33333C4.33333 7.43167 5.72 9.11083 7.58333 9.59833V10.8333H4.33333C4.33333 12.8483 5.72 14.5275 7.58333 15.015V16.25H4.33333C4.33333 18.265 5.72 19.9442 7.58333 20.4317V21.6667C7.58333 21.954 7.69747 22.2295 7.90063 22.4327C8.1038 22.6359 8.37935 22.75 8.66667 22.75H17.3333C17.6206 22.75 17.8962 22.6359 18.0994 22.4327C18.3025 22.2295 18.4167 21.954 18.4167 21.6667V20.4317C20.28 19.9442 21.6667 18.265 21.6667 16.25H18.4167V15.015C20.28 14.5275 21.6667 12.8483 21.6667 10.8333Z" fill="#1A9E75"/>
</svg>
