<svg width="26" height="26" viewBox="0 0 26 26" fill="none" xmlns="http://www.w3.org/2000/svg">
<path d="M13 9.75C12.4253 9.75 11.8742 9.52173 11.4679 9.1154C11.0616 8.70907 10.8333 8.15797 10.8333 7.58333C10.8333 6.38083 11.8083 5.41667 13 5.41667C14.2025 5.41667 15.1666 6.38083 15.1666 7.58333C15.1666 8.15797 14.9384 8.70907 14.532 9.1154C14.1257 9.52173 13.5746 9.75 13 9.75ZM13 15.1667C12.4253 15.1667 11.8742 14.9384 11.4679 14.5321C11.0616 14.1257 10.8333 13.5746 10.8333 13C10.8333 11.7975 11.8083 10.8333 13 10.8333C14.2025 10.8333 15.1666 11.7975 15.1666 13C15.1666 13.5746 14.9384 14.1257 14.532 14.5321C14.1257 14.9384 13.5746 15.1667 13 15.1667ZM13 20.5833C12.4253 20.5833 11.8742 20.3551 11.4679 19.9487C11.0616 19.5424 10.8333 18.9913 10.8333 18.4167C10.8333 17.2142 11.8083 16.25 13 16.25C14.2025 16.25 15.1666 17.2142 15.1666 18.4167C15.1666 18.9913 14.9384 19.5424 14.532 19.9487C14.1257 20.3551 13.5746 20.5833 13 20.5833ZM21.6666 10.8333H18.4166V9.59833C20.28 9.11083 21.6666 7.43167 21.6666 5.41667H18.4166V4.33333C18.4166 4.04602 18.3025 3.77047 18.0993 3.5673C17.8962 3.36414 17.6206 3.25 17.3333 3.25H8.66665C8.37933 3.25 8.10378 3.36414 7.90061 3.5673C7.69745 3.77047 7.58331 4.04602 7.58331 4.33333V5.41667H4.33331C4.33331 7.43167 5.71998 9.11083 7.58331 9.59833V10.8333H4.33331C4.33331 12.8483 5.71998 14.5275 7.58331 15.015V16.25H4.33331C4.33331 18.265 5.71998 19.9442 7.58331 20.4317V21.6667C7.58331 21.954 7.69745 22.2295 7.90061 22.4327C8.10378 22.6359 8.37933 22.75 8.66665 22.75H17.3333C17.6206 22.75 17.8962 22.6359 18.0993 22.4327C18.3025 22.2295 18.4166 21.954 18.4166 21.6667V20.4317C20.28 19.9442 21.6666 18.265 21.6666 16.25H18.4166V15.015C20.28 14.5275 21.6666 12.8483 21.6666 10.8333Z" fill="#1A9E75"/>
</svg>
