<svg width="71" height="18" viewBox="0 0 71 18" fill="none" xmlns="http://www.w3.org/2000/svg">
<path d="M8.384 1.88V3.368H5.424V13H3.6V3.368H0.624V1.88H8.384ZM12.0553 5.464C12.3219 5.016 12.6739 4.66933 13.1113 4.424C13.5593 4.168 14.0873 4.04 14.6953 4.04V5.928H14.2313C13.5166 5.928 12.9726 6.10933 12.5993 6.472C12.2366 6.83467 12.0553 7.464 12.0553 8.36V13H10.2313V4.184H12.0553V5.464ZM24.4519 8.376C24.4519 8.70667 24.4305 9.00533 24.3879 9.272H17.6519C17.7052 9.976 17.9665 10.5413 18.4359 10.968C18.9052 11.3947 19.4812 11.608 20.1639 11.608C21.1452 11.608 21.8385 11.1973 22.2439 10.376H24.2119C23.9452 11.1867 23.4599 11.8533 22.7559 12.376C22.0625 12.888 21.1985 13.144 20.1639 13.144C19.3212 13.144 18.5639 12.9573 17.8919 12.584C17.2305 12.2 16.7079 11.6667 16.3239 10.984C15.9505 10.2907 15.7639 9.49067 15.7639 8.584C15.7639 7.67733 15.9452 6.88267 16.3079 6.2C16.6812 5.50667 17.1985 4.97333 17.8599 4.6C18.5319 4.22667 19.2999 4.04 20.1639 4.04C20.9959 4.04 21.7372 4.22133 22.3879 4.584C23.0385 4.94667 23.5452 5.45867 23.9079 6.12C24.2705 6.77067 24.4519 7.52267 24.4519 8.376ZM22.5479 7.8C22.5372 7.128 22.2972 6.58933 21.8279 6.184C21.3585 5.77867 20.7772 5.576 20.0839 5.576C19.4545 5.576 18.9159 5.77867 18.4679 6.184C18.0199 6.57867 17.7532 7.11733 17.6679 7.8H22.5479ZM30.6949 4.04C31.3882 4.04 32.0069 4.184 32.5509 4.472C33.1055 4.76 33.5375 5.18667 33.8469 5.752C34.1562 6.31733 34.3109 7 34.3109 7.8V13H32.5029V8.072C32.5029 7.28267 32.3055 6.68 31.9109 6.264C31.5162 5.83733 30.9775 5.624 30.2949 5.624C29.6122 5.624 29.0682 5.83733 28.6629 6.264C28.2682 6.68 28.0709 7.28267 28.0709 8.072V13H26.2469V4.184H28.0709V5.192C28.3695 4.82933 28.7482 4.54667 29.2069 4.344C29.6762 4.14133 30.1722 4.04 30.6949 4.04ZM36.0295 8.552C36.0295 7.66667 36.2108 6.88267 36.5735 6.2C36.9468 5.51733 37.4482 4.98933 38.0775 4.616C38.7175 4.232 39.4268 4.04 40.2055 4.04C40.7815 4.04 41.3468 4.168 41.9015 4.424C42.4668 4.66933 42.9148 5 43.2455 5.416V1.16H45.0855V13H43.2455V11.672C42.9468 12.0987 42.5308 12.4507 41.9975 12.728C41.4748 13.0053 40.8722 13.144 40.1895 13.144C39.4215 13.144 38.7175 12.952 38.0775 12.568C37.4482 12.1733 36.9468 11.6293 36.5735 10.936C36.2108 10.232 36.0295 9.43733 36.0295 8.552ZM43.2455 8.584C43.2455 7.976 43.1175 7.448 42.8615 7C42.6162 6.552 42.2908 6.21067 41.8855 5.976C41.4802 5.74133 41.0428 5.624 40.5735 5.624C40.1042 5.624 39.6668 5.74133 39.2615 5.976C38.8562 6.2 38.5255 6.536 38.2695 6.984C38.0242 7.42133 37.9015 7.944 37.9015 8.552C37.9015 9.16 38.0242 9.69333 38.2695 10.152C38.5255 10.6107 38.8562 10.9627 39.2615 11.208C39.6775 11.4427 40.1148 11.56 40.5735 11.56C41.0428 11.56 41.4802 11.4427 41.8855 11.208C42.2908 10.9733 42.6162 10.632 42.8615 10.184C43.1175 9.72533 43.2455 9.192 43.2455 8.584ZM48.4093 3.016C48.0786 3.016 47.8013 2.904 47.5773 2.68C47.3533 2.456 47.2413 2.17867 47.2413 1.848C47.2413 1.51733 47.3533 1.24 47.5773 1.016C47.8013 0.791999 48.0786 0.679999 48.4093 0.679999C48.7293 0.679999 49.0013 0.791999 49.2253 1.016C49.4493 1.24 49.5613 1.51733 49.5613 1.848C49.5613 2.17867 49.4493 2.456 49.2253 2.68C49.0013 2.904 48.7293 3.016 48.4093 3.016ZM49.3053 4.184V13H47.4813V4.184H49.3053ZM56.148 4.04C56.8413 4.04 57.46 4.184 58.004 4.472C58.5587 4.76 58.9907 5.18667 59.3 5.752C59.6093 6.31733 59.764 7 59.764 7.8V13H57.956V8.072C57.956 7.28267 57.7587 6.68 57.364 6.264C56.9693 5.83733 56.4307 5.624 55.748 5.624C55.0653 5.624 54.5213 5.83733 54.116 6.264C53.7213 6.68 53.524 7.28267 53.524 8.072V13H51.7V4.184H53.524V5.192C53.8227 4.82933 54.2013 4.54667 54.66 4.344C55.1293 4.14133 55.6253 4.04 56.148 4.04ZM65.6426 4.04C66.3253 4.04 66.928 4.17867 67.4506 4.456C67.984 4.72267 68.4 5.05867 68.6986 5.464V4.184H70.5386V13.144C70.5386 13.9547 70.368 14.6747 70.0266 15.304C69.6853 15.944 69.1893 16.4453 68.5386 16.808C67.8986 17.1707 67.1306 17.352 66.2346 17.352C65.04 17.352 64.048 17.0693 63.2586 16.504C62.4693 15.9493 62.0213 15.192 61.9146 14.232H63.7226C63.8613 14.6907 64.1546 15.0587 64.6026 15.336C65.0613 15.624 65.6053 15.768 66.2346 15.768C66.9706 15.768 67.5626 15.544 68.0106 15.096C68.4693 14.648 68.6986 13.9973 68.6986 13.144V11.672C68.3893 12.088 67.968 12.44 67.4346 12.728C66.912 13.0053 66.3146 13.144 65.6426 13.144C64.8746 13.144 64.1706 12.952 63.5306 12.568C62.9013 12.1733 62.4 11.6293 62.0266 10.936C61.664 10.232 61.4826 9.43733 61.4826 8.552C61.4826 7.66667 61.664 6.88267 62.0266 6.2C62.4 5.51733 62.9013 4.98933 63.5306 4.616C64.1706 4.232 64.8746 4.04 65.6426 4.04ZM68.6986 8.584C68.6986 7.976 68.5706 7.448 68.3146 7C68.0693 6.552 67.744 6.21067 67.3386 5.976C66.9333 5.74133 66.496 5.624 66.0266 5.624C65.5573 5.624 65.12 5.74133 64.7146 5.976C64.3093 6.2 63.9786 6.536 63.7226 6.984C63.4773 7.42133 63.3546 7.944 63.3546 8.552C63.3546 9.16 63.4773 9.69333 63.7226 10.152C63.9786 10.6107 64.3093 10.9627 64.7146 11.208C65.1306 11.4427 65.568 11.56 66.0266 11.56C66.496 11.56 66.9333 11.4427 67.3386 11.208C67.744 10.9733 68.0693 10.632 68.3146 10.184C68.5706 9.72533 68.6986 9.192 68.6986 8.584Z" fill="#393939"/>
</svg>
