<svg width="155" height="25" viewBox="0 0 155 25" fill="none" xmlns="http://www.w3.org/2000/svg">
<path d="M9.53 1.03L7.51 8H6.49L4.87 2.39L3.19 8L2.18 8.01L0.23 1.03H1.2L2.72 6.94L4.4 1.03H5.42L7.02 6.92L8.55 1.03H9.53ZM15.5259 5.05C15.5259 5.22333 15.5159 5.40667 15.4959 5.6H11.1159C11.1492 6.14 11.3325 6.56333 11.6659 6.87C12.0059 7.17 12.4159 7.32 12.8959 7.32C13.2892 7.32 13.6159 7.23 13.8759 7.05C14.1425 6.86333 14.3292 6.61667 14.4359 6.31H15.4159C15.2692 6.83667 14.9759 7.26667 14.5359 7.6C14.0959 7.92667 13.5492 8.09 12.8959 8.09C12.3759 8.09 11.9092 7.97333 11.4959 7.74C11.0892 7.50667 10.7692 7.17667 10.5359 6.75C10.3025 6.31667 10.1859 5.81667 10.1859 5.25C10.1859 4.68333 10.2992 4.18667 10.5259 3.76C10.7525 3.33333 11.0692 3.00667 11.4759 2.78C11.8892 2.54667 12.3625 2.43 12.8959 2.43C13.4159 2.43 13.8759 2.54333 14.2759 2.77C14.6759 2.99667 14.9825 3.31 15.1959 3.71C15.4159 4.10333 15.5259 4.55 15.5259 5.05ZM14.5859 4.86C14.5859 4.51333 14.5092 4.21667 14.3559 3.97C14.2025 3.71667 13.9925 3.52667 13.7259 3.4C13.4659 3.26667 13.1759 3.2 12.8559 3.2C12.3959 3.2 12.0025 3.34667 11.6759 3.64C11.3559 3.93333 11.1725 4.34 11.1259 4.86H14.5859ZM20.303 3.53C20.483 3.21667 20.7497 2.95667 21.103 2.75C21.463 2.53667 21.8797 2.43 22.353 2.43C22.8397 2.43 23.2797 2.54667 23.673 2.78C24.073 3.01333 24.3864 3.34333 24.613 3.77C24.8397 4.19 24.953 4.68 24.953 5.24C24.953 5.79333 24.8397 6.28667 24.613 6.72C24.3864 7.15333 24.073 7.49 23.673 7.73C23.2797 7.97 22.8397 8.09 22.353 8.09C21.8864 8.09 21.473 7.98667 21.113 7.78C20.7597 7.56667 20.4897 7.30333 20.303 6.99V10.6H19.393V2.52H20.303V3.53ZM24.023 5.24C24.023 4.82667 23.9397 4.46667 23.773 4.16C23.6064 3.85333 23.3797 3.62 23.093 3.46C22.813 3.3 22.503 3.22 22.163 3.22C21.8297 3.22 21.5197 3.30333 21.233 3.47C20.953 3.63 20.7264 3.86667 20.553 4.18C20.3864 4.48667 20.303 4.84333 20.303 5.25C20.303 5.66333 20.3864 6.02667 20.553 6.34C20.7264 6.64667 20.953 6.88333 21.233 7.05C21.5197 7.21 21.8297 7.29 22.163 7.29C22.503 7.29 22.813 7.21 23.093 7.05C23.3797 6.88333 23.6064 6.64667 23.773 6.34C23.9397 6.02667 24.023 5.66 24.023 5.24ZM27.0609 3.41C27.2209 3.09667 27.4475 2.85333 27.7409 2.68C28.0409 2.50667 28.4042 2.42 28.8309 2.42V3.36H28.5909C27.5709 3.36 27.0609 3.91333 27.0609 5.02V8H26.1509V2.52H27.0609V3.41ZM32.2713 8.09C31.758 8.09 31.2913 7.97333 30.8713 7.74C30.458 7.50667 30.1313 7.17667 29.8913 6.75C29.658 6.31667 29.5413 5.81667 29.5413 5.25C29.5413 4.69 29.6613 4.19667 29.9013 3.77C30.148 3.33667 30.4813 3.00667 30.9013 2.78C31.3213 2.54667 31.7913 2.43 32.3113 2.43C32.8313 2.43 33.3013 2.54667 33.7213 2.78C34.1413 3.00667 34.4713 3.33333 34.7113 3.76C34.958 4.18667 35.0813 4.68333 35.0813 5.25C35.0813 5.81667 34.9547 6.31667 34.7013 6.75C34.4547 7.17667 34.118 7.50667 33.6913 7.74C33.2647 7.97333 32.7913 8.09 32.2713 8.09ZM32.2713 7.29C32.598 7.29 32.9047 7.21333 33.1913 7.06C33.478 6.90667 33.708 6.67667 33.8813 6.37C34.0613 6.06333 34.1513 5.69 34.1513 5.25C34.1513 4.81 34.0647 4.43667 33.8913 4.13C33.718 3.82333 33.4913 3.59667 33.2113 3.45C32.9313 3.29667 32.628 3.22 32.3013 3.22C31.968 3.22 31.6613 3.29667 31.3813 3.45C31.108 3.59667 30.888 3.82333 30.7213 4.13C30.5547 4.43667 30.4713 4.81 30.4713 5.25C30.4713 5.69667 30.5513 6.07333 30.7113 6.38C30.878 6.68667 31.098 6.91667 31.3713 7.07C31.6447 7.21667 31.9447 7.29 32.2713 7.29ZM38.3178 7.16L40.0178 2.52H40.9878L38.8378 8H37.7778L35.6278 2.52H36.6078L38.3178 7.16ZM42.3533 1.63C42.1799 1.63 42.0333 1.57 41.9133 1.45C41.7933 1.33 41.7333 1.18333 41.7333 1.01C41.7333 0.836666 41.7933 0.69 41.9133 0.57C42.0333 0.45 42.1799 0.39 42.3533 0.39C42.5199 0.39 42.6599 0.45 42.7733 0.57C42.8933 0.69 42.9533 0.836666 42.9533 1.01C42.9533 1.18333 42.8933 1.33 42.7733 1.45C42.6599 1.57 42.5199 1.63 42.3533 1.63ZM42.7933 2.52V8H41.8833V2.52H42.7933ZM44.0042 5.24C44.0042 4.68 44.1176 4.19 44.3442 3.77C44.5709 3.34333 44.8809 3.01333 45.2742 2.78C45.6742 2.54667 46.1209 2.43 46.6142 2.43C47.0409 2.43 47.4376 2.53 47.8042 2.73C48.1709 2.92333 48.4509 3.18 48.6442 3.5V0.6H49.5642V8H48.6442V6.97C48.4642 7.29667 48.1976 7.56667 47.8442 7.78C47.4909 7.98667 47.0776 8.09 46.6042 8.09C46.1176 8.09 45.6742 7.97 45.2742 7.73C44.8809 7.49 44.5709 7.15333 44.3442 6.72C44.1176 6.28667 44.0042 5.79333 44.0042 5.24ZM48.6442 5.25C48.6442 4.83667 48.5609 4.47667 48.3942 4.17C48.2276 3.86333 48.0009 3.63 47.7142 3.47C47.4342 3.30333 47.1242 3.22 46.7842 3.22C46.4442 3.22 46.1342 3.3 45.8542 3.46C45.5742 3.62 45.3509 3.85333 45.1842 4.16C45.0176 4.46667 44.9342 4.82667 44.9342 5.24C44.9342 5.66 45.0176 6.02667 45.1842 6.34C45.3509 6.64667 45.5742 6.88333 45.8542 7.05C46.1342 7.21 46.4442 7.29 46.7842 7.29C47.1242 7.29 47.4342 7.21 47.7142 7.05C48.0009 6.88333 48.2276 6.64667 48.3942 6.34C48.5609 6.02667 48.6442 5.66333 48.6442 5.25ZM56.102 5.05C56.102 5.22333 56.092 5.40667 56.072 5.6H51.692C51.7254 6.14 51.9087 6.56333 52.242 6.87C52.582 7.17 52.992 7.32 53.472 7.32C53.8654 7.32 54.192 7.23 54.452 7.05C54.7187 6.86333 54.9054 6.61667 55.012 6.31H55.992C55.8454 6.83667 55.552 7.26667 55.112 7.6C54.672 7.92667 54.1254 8.09 53.472 8.09C52.952 8.09 52.4854 7.97333 52.072 7.74C51.6654 7.50667 51.3454 7.17667 51.112 6.75C50.8787 6.31667 50.762 5.81667 50.762 5.25C50.762 4.68333 50.8754 4.18667 51.102 3.76C51.3287 3.33333 51.6454 3.00667 52.052 2.78C52.4654 2.54667 52.9387 2.43 53.472 2.43C53.992 2.43 54.452 2.54333 54.852 2.77C55.252 2.99667 55.5587 3.31 55.772 3.71C55.992 4.10333 56.102 4.55 56.102 5.05ZM55.162 4.86C55.162 4.51333 55.0854 4.21667 54.932 3.97C54.7787 3.71667 54.5687 3.52667 54.302 3.4C54.042 3.26667 53.752 3.2 53.432 3.2C52.972 3.2 52.5787 3.34667 52.252 3.64C51.932 3.93333 51.7487 4.34 51.702 4.86H55.162ZM59.6292 5.24C59.6292 4.68 59.7426 4.19 59.9692 3.77C60.1959 3.34333 60.5059 3.01333 60.8992 2.78C61.2992 2.54667 61.7459 2.43 62.2392 2.43C62.6659 2.43 63.0626 2.53 63.4292 2.73C63.7959 2.92333 64.0759 3.18 64.2692 3.5V0.6H65.1892V8H64.2692V6.97C64.0892 7.29667 63.8226 7.56667 63.4692 7.78C63.1159 7.98667 62.7026 8.09 62.2292 8.09C61.7426 8.09 61.2992 7.97 60.8992 7.73C60.5059 7.49 60.1959 7.15333 59.9692 6.72C59.7426 6.28667 59.6292 5.79333 59.6292 5.24ZM64.2692 5.25C64.2692 4.83667 64.1859 4.47667 64.0192 4.17C63.8526 3.86333 63.6259 3.63 63.3392 3.47C63.0592 3.30333 62.7492 3.22 62.4092 3.22C62.0692 3.22 61.7592 3.3 61.4792 3.46C61.1992 3.62 60.9759 3.85333 60.8092 4.16C60.6426 4.46667 60.5592 4.82667 60.5592 5.24C60.5592 5.66 60.6426 6.02667 60.8092 6.34C60.9759 6.64667 61.1992 6.88333 61.4792 7.05C61.7592 7.21 62.0692 7.29 62.4092 7.29C62.7492 7.29 63.0592 7.21 63.3392 7.05C63.6259 6.88333 63.8526 6.64667 64.0192 6.34C64.1859 6.02667 64.2692 5.66333 64.2692 5.25ZM71.727 5.05C71.727 5.22333 71.717 5.40667 71.697 5.6H67.317C67.3504 6.14 67.5337 6.56333 67.867 6.87C68.207 7.17 68.617 7.32 69.097 7.32C69.4904 7.32 69.817 7.23 70.077 7.05C70.3437 6.86333 70.5304 6.61667 70.637 6.31H71.617C71.4704 6.83667 71.177 7.26667 70.737 7.6C70.297 7.92667 69.7504 8.09 69.097 8.09C68.577 8.09 68.1104 7.97333 67.697 7.74C67.2904 7.50667 66.9704 7.17667 66.737 6.75C66.5037 6.31667 66.387 5.81667 66.387 5.25C66.387 4.68333 66.5004 4.18667 66.727 3.76C66.9537 3.33333 67.2704 3.00667 67.677 2.78C68.0904 2.54667 68.5637 2.43 69.097 2.43C69.617 2.43 70.077 2.54333 70.477 2.77C70.877 2.99667 71.1837 3.31 71.397 3.71C71.617 4.10333 71.727 4.55 71.727 5.05ZM70.787 4.86C70.787 4.51333 70.7104 4.21667 70.557 3.97C70.4037 3.71667 70.1937 3.52667 69.927 3.4C69.667 3.26667 69.377 3.2 69.057 3.2C68.597 3.2 68.2037 3.34667 67.877 3.64C67.557 3.93333 67.3737 4.34 67.327 4.86H70.787ZM72.5882 5.24C72.5882 4.68 72.7015 4.19 72.9282 3.77C73.1549 3.34333 73.4649 3.01333 73.8582 2.78C74.2582 2.54667 74.7049 2.43 75.1982 2.43C75.6249 2.43 76.0215 2.53 76.3882 2.73C76.7549 2.92333 77.0349 3.18 77.2282 3.5V0.6H78.1482V8H77.2282V6.97C77.0482 7.29667 76.7815 7.56667 76.4282 7.78C76.0749 7.98667 75.6615 8.09 75.1882 8.09C74.7015 8.09 74.2582 7.97 73.8582 7.73C73.4649 7.49 73.1549 7.15333 72.9282 6.72C72.7015 6.28667 72.5882 5.79333 72.5882 5.24ZM77.2282 5.25C77.2282 4.83667 77.1449 4.47667 76.9782 4.17C76.8115 3.86333 76.5849 3.63 76.2982 3.47C76.0182 3.30333 75.7082 3.22 75.3682 3.22C75.0282 3.22 74.7182 3.3 74.4382 3.46C74.1582 3.62 73.9349 3.85333 73.7682 4.16C73.6015 4.46667 73.5182 4.82667 73.5182 5.24C73.5182 5.66 73.6015 6.02667 73.7682 6.34C73.9349 6.64667 74.1582 6.88333 74.4382 7.05C74.7182 7.21 75.0282 7.29 75.3682 7.29C75.7082 7.29 76.0182 7.21 76.2982 7.05C76.5849 6.88333 76.8115 6.64667 76.9782 6.34C77.1449 6.02667 77.2282 5.66333 77.2282 5.25ZM80.156 1.63C79.9827 1.63 79.836 1.57 79.716 1.45C79.596 1.33 79.536 1.18333 79.536 1.01C79.536 0.836666 79.596 0.69 79.716 0.57C79.836 0.45 79.9827 0.39 80.156 0.39C80.3227 0.39 80.4627 0.45 80.576 0.57C80.696 0.69 80.756 0.836666 80.756 1.01C80.756 1.18333 80.696 1.33 80.576 1.45C80.4627 1.57 80.3227 1.63 80.156 1.63ZM80.596 2.52V8H79.686V2.52H80.596ZM81.807 5.25C81.807 4.68333 81.9203 4.19 82.147 3.77C82.3736 3.34333 82.687 3.01333 83.087 2.78C83.4936 2.54667 83.957 2.43 84.477 2.43C85.1503 2.43 85.7036 2.59333 86.137 2.92C86.577 3.24667 86.867 3.7 87.007 4.28H86.027C85.9336 3.94667 85.7503 3.68333 85.477 3.49C85.2103 3.29667 84.877 3.2 84.477 3.2C83.957 3.2 83.537 3.38 83.217 3.74C82.897 4.09333 82.737 4.59667 82.737 5.25C82.737 5.91 82.897 6.42 83.217 6.78C83.537 7.14 83.957 7.32 84.477 7.32C84.877 7.32 85.2103 7.22667 85.477 7.04C85.7436 6.85333 85.927 6.58667 86.027 6.24H87.007C86.8603 6.8 86.567 7.25 86.127 7.59C85.687 7.92333 85.137 8.09 84.477 8.09C83.957 8.09 83.4936 7.97333 83.087 7.74C82.687 7.50667 82.3736 7.17667 82.147 6.75C81.9203 6.32333 81.807 5.82333 81.807 5.25ZM87.8812 5.24C87.8812 4.68 87.9945 4.19 88.2212 3.77C88.4478 3.34333 88.7578 3.01333 89.1512 2.78C89.5512 2.54667 89.9945 2.43 90.4812 2.43C90.9612 2.43 91.3778 2.53333 91.7312 2.74C92.0845 2.94667 92.3478 3.20667 92.5212 3.52V2.52H93.4412V8H92.5212V6.98C92.3412 7.3 92.0712 7.56667 91.7112 7.78C91.3578 7.98667 90.9445 8.09 90.4712 8.09C89.9845 8.09 89.5445 7.97 89.1512 7.73C88.7578 7.49 88.4478 7.15333 88.2212 6.72C87.9945 6.28667 87.8812 5.79333 87.8812 5.24ZM92.5212 5.25C92.5212 4.83667 92.4378 4.47667 92.2712 4.17C92.1045 3.86333 91.8778 3.63 91.5912 3.47C91.3112 3.30333 91.0012 3.22 90.6612 3.22C90.3212 3.22 90.0112 3.3 89.7312 3.46C89.4512 3.62 89.2278 3.85333 89.0612 4.16C88.8945 4.46667 88.8112 4.82667 88.8112 5.24C88.8112 5.66 88.8945 6.02667 89.0612 6.34C89.2278 6.64667 89.4512 6.88333 89.7312 7.05C90.0112 7.21 90.3212 7.29 90.6612 7.29C91.0012 7.29 91.3112 7.21 91.5912 7.05C91.8778 6.88333 92.1045 6.64667 92.2712 6.34C92.4378 6.02667 92.5212 5.66333 92.5212 5.25ZM96.089 3.27V6.5C96.089 6.76667 96.1457 6.95667 96.259 7.07C96.3723 7.17667 96.569 7.23 96.849 7.23H97.519V8H96.699C96.1923 8 95.8123 7.88333 95.559 7.65C95.3057 7.41667 95.179 7.03333 95.179 6.5V3.27H94.469V2.52H95.179V1.14H96.089V2.52H97.519V3.27H96.089ZM103.622 5.05C103.622 5.22333 103.612 5.40667 103.592 5.6H99.2116C99.2449 6.14 99.4282 6.56333 99.7616 6.87C100.102 7.17 100.512 7.32 100.992 7.32C101.385 7.32 101.712 7.23 101.972 7.05C102.238 6.86333 102.425 6.61667 102.532 6.31H103.512C103.365 6.83667 103.072 7.26667 102.632 7.6C102.192 7.92667 101.645 8.09 100.992 8.09C100.472 8.09 100.005 7.97333 99.5916 7.74C99.1849 7.50667 98.8649 7.17667 98.6316 6.75C98.3982 6.31667 98.2816 5.81667 98.2816 5.25C98.2816 4.68333 98.3949 4.18667 98.6216 3.76C98.8482 3.33333 99.1649 3.00667 99.5716 2.78C99.9849 2.54667 100.458 2.43 100.992 2.43C101.512 2.43 101.972 2.54333 102.372 2.77C102.772 2.99667 103.078 3.31 103.292 3.71C103.512 4.10333 103.622 4.55 103.622 5.05ZM102.682 4.86C102.682 4.51333 102.605 4.21667 102.452 3.97C102.298 3.71667 102.088 3.52667 101.822 3.4C101.562 3.26667 101.272 3.2 100.952 3.2C100.492 3.2 100.098 3.34667 99.7716 3.64C99.4516 3.93333 99.2682 4.34 99.2216 4.86H102.682ZM104.483 5.24C104.483 4.68 104.596 4.19 104.823 3.77C105.049 3.34333 105.359 3.01333 105.753 2.78C106.153 2.54667 106.599 2.43 107.093 2.43C107.519 2.43 107.916 2.53 108.283 2.73C108.649 2.92333 108.929 3.18 109.123 3.5V0.6H110.043V8H109.123V6.97C108.943 7.29667 108.676 7.56667 108.323 7.78C107.969 7.98667 107.556 8.09 107.083 8.09C106.596 8.09 106.153 7.97 105.753 7.73C105.359 7.49 105.049 7.15333 104.823 6.72C104.596 6.28667 104.483 5.79333 104.483 5.24ZM109.123 5.25C109.123 4.83667 109.039 4.47667 108.873 4.17C108.706 3.86333 108.479 3.63 108.193 3.47C107.913 3.30333 107.603 3.22 107.263 3.22C106.923 3.22 106.613 3.3 106.333 3.46C106.053 3.62 105.829 3.85333 105.663 4.16C105.496 4.46667 105.413 4.82667 105.413 5.24C105.413 5.66 105.496 6.02667 105.663 6.34C105.829 6.64667 106.053 6.88333 106.333 7.05C106.613 7.21 106.923 7.29 107.263 7.29C107.603 7.29 107.913 7.21 108.193 7.05C108.479 6.88333 108.706 6.64667 108.873 6.34C109.039 6.02667 109.123 5.66333 109.123 5.25ZM120.837 2.42C121.263 2.42 121.643 2.51 121.977 2.69C122.31 2.86333 122.573 3.12667 122.767 3.48C122.96 3.83333 123.057 4.26333 123.057 4.77V8H122.157V4.9C122.157 4.35333 122.02 3.93667 121.747 3.65C121.48 3.35667 121.117 3.21 120.657 3.21C120.183 3.21 119.807 3.36333 119.527 3.67C119.247 3.97 119.107 4.40667 119.107 4.98V8H118.207V4.9C118.207 4.35333 118.07 3.93667 117.797 3.65C117.53 3.35667 117.167 3.21 116.707 3.21C116.233 3.21 115.857 3.36333 115.577 3.67C115.297 3.97 115.157 4.40667 115.157 4.98V8H114.247V2.52H115.157V3.31C115.337 3.02333 115.577 2.80333 115.877 2.65C116.183 2.49667 116.52 2.42 116.887 2.42C117.347 2.42 117.753 2.52333 118.107 2.73C118.46 2.93667 118.723 3.24 118.897 3.64C119.05 3.25333 119.303 2.95333 119.657 2.74C120.01 2.52667 120.403 2.42 120.837 2.42ZM126.939 8.09C126.426 8.09 125.959 7.97333 125.539 7.74C125.126 7.50667 124.799 7.17667 124.559 6.75C124.326 6.31667 124.209 5.81667 124.209 5.25C124.209 4.69 124.329 4.19667 124.569 3.77C124.816 3.33667 125.149 3.00667 125.569 2.78C125.989 2.54667 126.459 2.43 126.979 2.43C127.499 2.43 127.969 2.54667 128.389 2.78C128.809 3.00667 129.139 3.33333 129.379 3.76C129.626 4.18667 129.749 4.68333 129.749 5.25C129.749 5.81667 129.623 6.31667 129.369 6.75C129.123 7.17667 128.786 7.50667 128.359 7.74C127.933 7.97333 127.459 8.09 126.939 8.09ZM126.939 7.29C127.266 7.29 127.573 7.21333 127.859 7.06C128.146 6.90667 128.376 6.67667 128.549 6.37C128.729 6.06333 128.819 5.69 128.819 5.25C128.819 4.81 128.733 4.43667 128.559 4.13C128.386 3.82333 128.159 3.59667 127.879 3.45C127.599 3.29667 127.296 3.22 126.969 3.22C126.636 3.22 126.329 3.29667 126.049 3.45C125.776 3.59667 125.556 3.82333 125.389 4.13C125.223 4.43667 125.139 4.81 125.139 5.25C125.139 5.69667 125.219 6.07333 125.379 6.38C125.546 6.68667 125.766 6.91667 126.039 7.07C126.313 7.21667 126.613 7.29 126.939 7.29ZM133.616 2.42C134.282 2.42 134.822 2.62333 135.236 3.03C135.649 3.43 135.856 4.01 135.856 4.77V8H134.956V4.9C134.956 4.35333 134.819 3.93667 134.546 3.65C134.272 3.35667 133.899 3.21 133.426 3.21C132.946 3.21 132.562 3.36 132.276 3.66C131.996 3.96 131.856 4.39667 131.856 4.97V8H130.946V2.52H131.856V3.3C132.036 3.02 132.279 2.80333 132.586 2.65C132.899 2.49667 133.242 2.42 133.616 2.42ZM138.452 3.27V6.5C138.452 6.76667 138.509 6.95667 138.622 7.07C138.736 7.17667 138.932 7.23 139.212 7.23H139.882V8H139.062C138.556 8 138.176 7.88333 137.922 7.65C137.669 7.41667 137.542 7.03333 137.542 6.5V3.27H136.832V2.52H137.542V1.14H138.452V2.52H139.882V3.27H138.452ZM143.705 2.42C144.118 2.42 144.492 2.51 144.825 2.69C145.158 2.86333 145.418 3.12667 145.605 3.48C145.798 3.83333 145.895 4.26333 145.895 4.77V8H144.995V4.9C144.995 4.35333 144.858 3.93667 144.585 3.65C144.312 3.35667 143.938 3.21 143.465 3.21C142.985 3.21 142.602 3.36 142.315 3.66C142.035 3.96 141.895 4.39667 141.895 4.97V8H140.985V0.6H141.895V3.3C142.075 3.02 142.322 2.80333 142.635 2.65C142.955 2.49667 143.312 2.42 143.705 2.42ZM148.291 0.6V8H147.381V0.6H148.291ZM154.562 2.52L151.262 10.58H150.322L151.402 7.94L149.192 2.52H150.202L151.922 6.96L153.622 2.52H154.562ZM1.68 17.53C1.86 17.2167 2.12667 16.9567 2.48 16.75C2.84 16.5367 3.25667 16.43 3.73 16.43C4.21667 16.43 4.65667 16.5467 5.05 16.78C5.45 17.0133 5.76333 17.3433 5.99 17.77C6.21667 18.19 6.33 18.68 6.33 19.24C6.33 19.7933 6.21667 20.2867 5.99 20.72C5.76333 21.1533 5.45 21.49 5.05 21.73C4.65667 21.97 4.21667 22.09 3.73 22.09C3.26333 22.09 2.85 21.9867 2.49 21.78C2.13667 21.5667 1.86667 21.3033 1.68 20.99V24.6H0.77V16.52H1.68V17.53ZM5.4 19.24C5.4 18.8267 5.31667 18.4667 5.15 18.16C4.98333 17.8533 4.75667 17.62 4.47 17.46C4.19 17.3 3.88 17.22 3.54 17.22C3.20667 17.22 2.89667 17.3033 2.61 17.47C2.33 17.63 2.10333 17.8667 1.93 18.18C1.76333 18.4867 1.68 18.8433 1.68 19.25C1.68 19.6633 1.76333 20.0267 1.93 20.34C2.10333 20.6467 2.33 20.8833 2.61 21.05C2.89667 21.21 3.20667 21.29 3.54 21.29C3.88 21.29 4.19 21.21 4.47 21.05C4.75667 20.8833 4.98333 20.6467 5.15 20.34C5.31667 20.0267 5.4 19.66 5.4 19.24ZM7.18781 19.24C7.18781 18.68 7.30115 18.19 7.52781 17.77C7.75448 17.3433 8.06448 17.0133 8.45781 16.78C8.85781 16.5467 9.30115 16.43 9.78781 16.43C10.2678 16.43 10.6845 16.5333 11.0378 16.74C11.3911 16.9467 11.6545 17.2067 11.8278 17.52V16.52H12.7478V22H11.8278V20.98C11.6478 21.3 11.3778 21.5667 11.0178 21.78C10.6645 21.9867 10.2511 22.09 9.77781 22.09C9.29115 22.09 8.85115 21.97 8.45781 21.73C8.06448 21.49 7.75448 21.1533 7.52781 20.72C7.30115 20.2867 7.18781 19.7933 7.18781 19.24ZM11.8278 19.25C11.8278 18.8367 11.7445 18.4767 11.5778 18.17C11.4111 17.8633 11.1845 17.63 10.8978 17.47C10.6178 17.3033 10.3078 17.22 9.96781 17.22C9.62781 17.22 9.31781 17.3 9.03781 17.46C8.75781 17.62 8.53448 17.8533 8.36781 18.16C8.20115 18.4667 8.11781 18.8267 8.11781 19.24C8.11781 19.66 8.20115 20.0267 8.36781 20.34C8.53448 20.6467 8.75781 20.8833 9.03781 21.05C9.31781 21.21 9.62781 21.29 9.96781 21.29C10.3078 21.29 10.6178 21.21 10.8978 21.05C11.1845 20.8833 11.4111 20.6467 11.5778 20.34C11.7445 20.0267 11.8278 19.6633 11.8278 19.25ZM15.1956 17.41C15.3556 17.0967 15.5823 16.8533 15.8756 16.68C16.1756 16.5067 16.539 16.42 16.9656 16.42V17.36H16.7256C15.7056 17.36 15.1956 17.9133 15.1956 19.02V22H14.2856V16.52H15.1956V17.41ZM21.0761 22L18.9261 19.58V22H18.0161V14.6H18.9261V18.95L21.0361 16.52H22.3061L19.7261 19.25L22.3161 22H21.0761ZM23.6326 15.63C23.4592 15.63 23.3126 15.57 23.1926 15.45C23.0726 15.33 23.0126 15.1833 23.0126 15.01C23.0126 14.8367 23.0726 14.69 23.1926 14.57C23.3126 14.45 23.4592 14.39 23.6326 14.39C23.7992 14.39 23.9392 14.45 24.0526 14.57C24.1726 14.69 24.2326 14.8367 24.2326 15.01C24.2326 15.1833 24.1726 15.33 24.0526 15.45C23.9392 15.57 23.7992 15.63 23.6326 15.63ZM24.0726 16.52V22H23.1626V16.52H24.0726ZM28.2935 16.42C28.9602 16.42 29.5002 16.6233 29.9135 17.03C30.3268 17.43 30.5335 18.01 30.5335 18.77V22H29.6335V18.9C29.6335 18.3533 29.4968 17.9367 29.2235 17.65C28.9502 17.3567 28.5768 17.21 28.1035 17.21C27.6235 17.21 27.2402 17.36 26.9535 17.66C26.6735 17.96 26.5335 18.3967 26.5335 18.97V22H25.6235V16.52H26.5335V17.3C26.7135 17.02 26.9568 16.8033 27.2635 16.65C27.5768 16.4967 27.9202 16.42 28.2935 16.42ZM34.28 16.43C34.7533 16.43 35.1667 16.5333 35.52 16.74C35.88 16.9467 36.1467 17.2067 36.32 17.52V16.52H37.24V22.12C37.24 22.62 37.1333 23.0633 36.92 23.45C36.7067 23.8433 36.4 24.15 36 24.37C35.6067 24.59 35.1467 24.7 34.62 24.7C33.9 24.7 33.3 24.53 32.82 24.19C32.34 23.85 32.0567 23.3867 31.97 22.8H32.87C32.97 23.1333 33.1767 23.4 33.49 23.6C33.8033 23.8067 34.18 23.91 34.62 23.91C35.12 23.91 35.5267 23.7533 35.84 23.44C36.16 23.1267 36.32 22.6867 36.32 22.12V20.97C36.14 21.29 35.8733 21.5567 35.52 21.77C35.1667 21.9833 34.7533 22.09 34.28 22.09C33.7933 22.09 33.35 21.97 32.95 21.73C32.5567 21.49 32.2467 21.1533 32.02 20.72C31.7933 20.2867 31.68 19.7933 31.68 19.24C31.68 18.68 31.7933 18.19 32.02 17.77C32.2467 17.3433 32.5567 17.0133 32.95 16.78C33.35 16.5467 33.7933 16.43 34.28 16.43ZM36.32 19.25C36.32 18.8367 36.2367 18.4767 36.07 18.17C35.9033 17.8633 35.6767 17.63 35.39 17.47C35.11 17.3033 34.8 17.22 34.46 17.22C34.12 17.22 33.81 17.3 33.53 17.46C33.25 17.62 33.0267 17.8533 32.86 18.16C32.6933 18.4667 32.61 18.8267 32.61 19.24C32.61 19.66 32.6933 20.0267 32.86 20.34C33.0267 20.6467 33.25 20.8833 33.53 21.05C33.81 21.21 34.12 21.29 34.46 21.29C34.8 21.29 35.11 21.21 35.39 21.05C35.6767 20.8833 35.9033 20.6467 36.07 20.34C36.2367 20.0267 36.32 19.6633 36.32 19.25ZM48.7438 16.52L47.0338 22H46.0938L44.7738 17.65L43.4538 22H42.5138L40.7938 16.52H41.7238L42.9838 21.12L44.3438 16.52H45.2738L46.6038 21.13L47.8438 16.52H48.7438ZM50.117 15.63C49.9436 15.63 49.797 15.57 49.677 15.45C49.557 15.33 49.497 15.1833 49.497 15.01C49.497 14.8367 49.557 14.69 49.677 14.57C49.797 14.45 49.9436 14.39 50.117 14.39C50.2836 14.39 50.4236 14.45 50.537 14.57C50.657 14.69 50.717 14.8367 50.717 15.01C50.717 15.1833 50.657 15.33 50.537 15.45C50.4236 15.57 50.2836 15.63 50.117 15.63ZM50.557 16.52V22H49.647V16.52H50.557ZM53.2179 17.27V20.5C53.2179 20.7667 53.2746 20.9567 53.3879 21.07C53.5012 21.1767 53.6979 21.23 53.9779 21.23H54.6479V22H53.8279C53.3212 22 52.9412 21.8833 52.6879 21.65C52.4346 21.4167 52.3079 21.0333 52.3079 20.5V17.27H51.5979V16.52H52.3079V15.14H53.2179V16.52H54.6479V17.27H53.2179ZM58.4705 16.42C58.8838 16.42 59.2571 16.51 59.5905 16.69C59.9238 16.8633 60.1838 17.1267 60.3705 17.48C60.5638 17.8333 60.6605 18.2633 60.6605 18.77V22H59.7605V18.9C59.7605 18.3533 59.6238 17.9367 59.3505 17.65C59.0771 17.3567 58.7038 17.21 58.2305 17.21C57.7505 17.21 57.3671 17.36 57.0805 17.66C56.8005 17.96 56.6605 18.3967 56.6605 18.97V22H55.7505V14.6H56.6605V17.3C56.8405 17.02 57.0871 16.8033 57.4005 16.65C57.7205 16.4967 58.0771 16.42 58.4705 16.42ZM66.753 22.09C66.333 22.09 65.9563 22.02 65.623 21.88C65.2896 21.7333 65.0263 21.5333 64.833 21.28C64.6396 21.02 64.533 20.7233 64.513 20.39H65.453C65.4796 20.6633 65.6063 20.8867 65.833 21.06C66.0663 21.2333 66.3696 21.32 66.743 21.32C67.0896 21.32 67.363 21.2433 67.563 21.09C67.763 20.9367 67.863 20.7433 67.863 20.51C67.863 20.27 67.7563 20.0933 67.543 19.98C67.3296 19.86 66.9996 19.7433 66.553 19.63C66.1463 19.5233 65.813 19.4167 65.553 19.31C65.2996 19.1967 65.0796 19.0333 64.893 18.82C64.713 18.6 64.623 18.3133 64.623 17.96C64.623 17.68 64.7063 17.4233 64.873 17.19C65.0396 16.9567 65.2763 16.7733 65.583 16.64C65.8896 16.5 66.2396 16.43 66.633 16.43C67.2396 16.43 67.7296 16.5833 68.103 16.89C68.4763 17.1967 68.6763 17.6167 68.703 18.15H67.793C67.773 17.8633 67.6563 17.6333 67.443 17.46C67.2363 17.2867 66.9563 17.2 66.603 17.2C66.2763 17.2 66.0163 17.27 65.823 17.41C65.6296 17.55 65.533 17.7333 65.533 17.96C65.533 18.14 65.5896 18.29 65.703 18.41C65.823 18.5233 65.9696 18.6167 66.143 18.69C66.323 18.7567 66.5696 18.8333 66.883 18.92C67.2763 19.0267 67.5963 19.1333 67.843 19.24C68.0896 19.34 68.2996 19.4933 68.473 19.7C68.653 19.9067 68.7463 20.1767 68.753 20.51C68.753 20.81 68.6696 21.08 68.503 21.32C68.3363 21.56 68.0996 21.75 67.793 21.89C67.493 22.0233 67.1463 22.09 66.753 22.09ZM74.8976 16.52V22H73.9876V21.19C73.8142 21.47 73.5709 21.69 73.2576 21.85C72.9509 22.0033 72.6109 22.08 72.2376 22.08C71.8109 22.08 71.4276 21.9933 71.0876 21.82C70.7476 21.64 70.4776 21.3733 70.2776 21.02C70.0842 20.6667 69.9876 20.2367 69.9876 19.73V16.52H70.8876V19.61C70.8876 20.15 71.0242 20.5667 71.2976 20.86C71.5709 21.1467 71.9442 21.29 72.4176 21.29C72.9042 21.29 73.2876 21.14 73.5676 20.84C73.8476 20.54 73.9876 20.1033 73.9876 19.53V16.52H74.8976ZM77.3441 17.41C77.5041 17.0967 77.7307 16.8533 78.0241 16.68C78.3241 16.5067 78.6874 16.42 79.1141 16.42V17.36H78.8741C77.8541 17.36 77.3441 17.9133 77.3441 19.02V22H76.4341V16.52H77.3441V17.41ZM82.2045 21.16L83.9045 16.52H84.8745L82.7245 22H81.6645L79.5145 16.52H80.4945L82.2045 21.16ZM90.77 19.05C90.77 19.2233 90.76 19.4067 90.74 19.6H86.36C86.3933 20.14 86.5767 20.5633 86.91 20.87C87.25 21.17 87.66 21.32 88.14 21.32C88.5333 21.32 88.86 21.23 89.12 21.05C89.3867 20.8633 89.5733 20.6167 89.68 20.31H90.66C90.5133 20.8367 90.22 21.2667 89.78 21.6C89.34 21.9267 88.7933 22.09 88.14 22.09C87.62 22.09 87.1533 21.9733 86.74 21.74C86.3333 21.5067 86.0133 21.1767 85.78 20.75C85.5467 20.3167 85.43 19.8167 85.43 19.25C85.43 18.6833 85.5433 18.1867 85.77 17.76C85.9967 17.3333 86.3133 17.0067 86.72 16.78C87.1333 16.5467 87.6067 16.43 88.14 16.43C88.66 16.43 89.12 16.5433 89.52 16.77C89.92 16.9967 90.2267 17.31 90.44 17.71C90.66 18.1033 90.77 18.55 90.77 19.05ZM89.83 18.86C89.83 18.5133 89.7533 18.2167 89.6 17.97C89.4467 17.7167 89.2367 17.5267 88.97 17.4C88.71 17.2667 88.42 17.2 88.1 17.2C87.64 17.2 87.2467 17.3467 86.92 17.64C86.6 17.9333 86.4167 18.34 86.37 18.86H89.83ZM92.4412 15.63C92.2678 15.63 92.1212 15.57 92.0012 15.45C91.8812 15.33 91.8212 15.1833 91.8212 15.01C91.8212 14.8367 91.8812 14.69 92.0012 14.57C92.1212 14.45 92.2678 14.39 92.4412 14.39C92.6078 14.39 92.7478 14.45 92.8612 14.57C92.9812 14.69 93.0412 14.8367 93.0412 15.01C93.0412 15.1833 92.9812 15.33 92.8612 15.45C92.7478 15.57 92.6078 15.63 92.4412 15.63ZM92.8812 16.52V22H91.9712V16.52H92.8812ZM95.3421 14.6V22H94.4321V14.6H95.3421ZM97.803 14.6V22H96.893V14.6H97.803ZM99.014 19.24C99.014 18.68 99.1273 18.19 99.354 17.77C99.5807 17.3433 99.8907 17.0133 100.284 16.78C100.684 16.5467 101.127 16.43 101.614 16.43C102.094 16.43 102.511 16.5333 102.864 16.74C103.217 16.9467 103.481 17.2067 103.654 17.52V16.52H104.574V22H103.654V20.98C103.474 21.3 103.204 21.5667 102.844 21.78C102.491 21.9867 102.077 22.09 101.604 22.09C101.117 22.09 100.677 21.97 100.284 21.73C99.8907 21.49 99.5807 21.1533 99.354 20.72C99.1273 20.2867 99.014 19.7933 99.014 19.24ZM103.654 19.25C103.654 18.8367 103.571 18.4767 103.404 18.17C103.237 17.8633 103.011 17.63 102.724 17.47C102.444 17.3033 102.134 17.22 101.794 17.22C101.454 17.22 101.144 17.3 100.864 17.46C100.584 17.62 100.361 17.8533 100.194 18.16C100.027 18.4667 99.944 18.8267 99.944 19.24C99.944 19.66 100.027 20.0267 100.194 20.34C100.361 20.6467 100.584 20.8833 100.864 21.05C101.144 21.21 101.454 21.29 101.794 21.29C102.134 21.29 102.444 21.21 102.724 21.05C103.011 20.8833 103.237 20.6467 103.404 20.34C103.571 20.0267 103.654 19.6633 103.654 19.25ZM108.782 16.42C109.448 16.42 109.988 16.6233 110.402 17.03C110.815 17.43 111.022 18.01 111.022 18.77V22H110.122V18.9C110.122 18.3533 109.985 17.9367 109.712 17.65C109.438 17.3567 109.065 17.21 108.592 17.21C108.112 17.21 107.728 17.36 107.442 17.66C107.162 17.96 107.022 18.3967 107.022 18.97V22H106.112V16.52H107.022V17.3C107.202 17.02 107.445 16.8033 107.752 16.65C108.065 16.4967 108.408 16.42 108.782 16.42ZM112.168 19.25C112.168 18.6833 112.282 18.19 112.508 17.77C112.735 17.3433 113.048 17.0133 113.448 16.78C113.855 16.5467 114.318 16.43 114.838 16.43C115.512 16.43 116.065 16.5933 116.498 16.92C116.938 17.2467 117.228 17.7 117.368 18.28H116.388C116.295 17.9467 116.112 17.6833 115.838 17.49C115.572 17.2967 115.238 17.2 114.838 17.2C114.318 17.2 113.898 17.38 113.578 17.74C113.258 18.0933 113.098 18.5967 113.098 19.25C113.098 19.91 113.258 20.42 113.578 20.78C113.898 21.14 114.318 21.32 114.838 21.32C115.238 21.32 115.572 21.2267 115.838 21.04C116.105 20.8533 116.288 20.5867 116.388 20.24H117.368C117.222 20.8 116.928 21.25 116.488 21.59C116.048 21.9233 115.498 22.09 114.838 22.09C114.318 22.09 113.855 21.9733 113.448 21.74C113.048 21.5067 112.735 21.1767 112.508 20.75C112.282 20.3233 112.168 19.8233 112.168 19.25ZM123.583 19.05C123.583 19.2233 123.573 19.4067 123.553 19.6H119.173C119.206 20.14 119.389 20.5633 119.723 20.87C120.063 21.17 120.473 21.32 120.953 21.32C121.346 21.32 121.673 21.23 121.933 21.05C122.199 20.8633 122.386 20.6167 122.493 20.31H123.473C123.326 20.8367 123.033 21.2667 122.593 21.6C122.153 21.9267 121.606 22.09 120.953 22.09C120.433 22.09 119.966 21.9733 119.553 21.74C119.146 21.5067 118.826 21.1767 118.593 20.75C118.359 20.3167 118.243 19.8167 118.243 19.25C118.243 18.6833 118.356 18.1867 118.583 17.76C118.809 17.3333 119.126 17.0067 119.533 16.78C119.946 16.5467 120.419 16.43 120.953 16.43C121.473 16.43 121.933 16.5433 122.333 16.77C122.733 16.9967 123.039 17.31 123.253 17.71C123.473 18.1033 123.583 18.55 123.583 19.05ZM122.643 18.86C122.643 18.5133 122.566 18.2167 122.413 17.97C122.259 17.7167 122.049 17.5267 121.783 17.4C121.523 17.2667 121.233 17.2 120.913 17.2C120.453 17.2 120.059 17.3467 119.733 17.64C119.413 17.9333 119.229 18.34 119.183 18.86H122.643Z" fill="white"/>
</svg>
