<svg width="141" height="13" viewBox="0 0 141 13" fill="none" xmlns="http://www.w3.org/2000/svg">
<path d="M9.44 0.879999L5.76 7.968V12H3.936V7.968L0.24 0.879999H2.272L4.848 6.336L7.424 0.879999H9.44ZM14.7115 12.144C13.8795 12.144 13.1275 11.9573 12.4555 11.584C11.7835 11.2 11.2555 10.6667 10.8715 9.984C10.4875 9.29067 10.2955 8.49067 10.2955 7.584C10.2955 6.688 10.4928 5.89333 10.8875 5.2C11.2822 4.50667 11.8208 3.97333 12.5035 3.6C13.1862 3.22667 13.9488 3.04 14.7915 3.04C15.6342 3.04 16.3968 3.22667 17.0795 3.6C17.7622 3.97333 18.3008 4.50667 18.6955 5.2C19.0902 5.89333 19.2875 6.688 19.2875 7.584C19.2875 8.48 19.0848 9.27467 18.6795 9.968C18.2742 10.6613 17.7195 11.2 17.0155 11.584C16.3222 11.9573 15.5542 12.144 14.7115 12.144ZM14.7115 10.56C15.1808 10.56 15.6182 10.448 16.0235 10.224C16.4395 10 16.7755 9.664 17.0315 9.216C17.2875 8.768 17.4155 8.224 17.4155 7.584C17.4155 6.944 17.2928 6.40533 17.0475 5.968C16.8022 5.52 16.4768 5.184 16.0715 4.96C15.6662 4.736 15.2288 4.624 14.7595 4.624C14.2902 4.624 13.8528 4.736 13.4475 4.96C13.0528 5.184 12.7382 5.52 12.5035 5.968C12.2688 6.40533 12.1515 6.944 12.1515 7.584C12.1515 8.53333 12.3915 9.26933 12.8715 9.792C13.3622 10.304 13.9755 10.56 14.7115 10.56ZM29.0746 3.184V12H27.2506V10.96C26.9626 11.3227 26.584 11.6107 26.1146 11.824C25.656 12.0267 25.1653 12.128 24.6426 12.128C23.9493 12.128 23.3253 11.984 22.7706 11.696C22.2266 11.408 21.7946 10.9813 21.4746 10.416C21.1653 9.85067 21.0106 9.168 21.0106 8.368V3.184H22.8186V8.096C22.8186 8.88533 23.016 9.49333 23.4106 9.92C23.8053 10.336 24.344 10.544 25.0266 10.544C25.7093 10.544 26.248 10.336 26.6426 9.92C27.048 9.49333 27.2506 8.88533 27.2506 8.096V3.184H29.0746ZM33.3053 4.464C33.5719 4.016 33.9239 3.66933 34.3613 3.424C34.8093 3.168 35.3373 3.04 35.9453 3.04V4.928H35.4813C34.7666 4.928 34.2226 5.10933 33.8493 5.472C33.4866 5.83467 33.3053 6.464 33.3053 7.36V12H31.4813V3.184H33.3053V4.464ZM41.1701 6.416C41.1701 5.328 41.4208 4.352 41.9221 3.488C42.4341 2.624 43.1221 1.952 43.9861 1.472C44.8608 0.981332 45.8155 0.735999 46.8501 0.735999C48.0341 0.735999 49.0848 1.02933 50.0021 1.616C50.9301 2.192 51.6021 3.01333 52.0181 4.08H49.8261C49.5381 3.49333 49.1381 3.056 48.6261 2.768C48.1141 2.48 47.5221 2.336 46.8501 2.336C46.1141 2.336 45.4581 2.50133 44.8821 2.832C44.3061 3.16267 43.8528 3.63733 43.5221 4.256C43.2021 4.87467 43.0421 5.59467 43.0421 6.416C43.0421 7.23733 43.2021 7.95733 43.5221 8.576C43.8528 9.19467 44.3061 9.67467 44.8821 10.016C45.4581 10.3467 46.1141 10.512 46.8501 10.512C47.5221 10.512 48.1141 10.368 48.6261 10.08C49.1381 9.792 49.5381 9.35467 49.8261 8.768H52.0181C51.6021 9.83467 50.9301 10.656 50.0021 11.232C49.0848 11.808 48.0341 12.096 46.8501 12.096C45.8048 12.096 44.8501 11.856 43.9861 11.376C43.1221 10.8853 42.4341 10.208 41.9221 9.344C41.4208 8.48 41.1701 7.504 41.1701 6.416ZM53.5451 7.552C53.5451 6.66667 53.7265 5.88267 54.0891 5.2C54.4625 4.51733 54.9638 3.98933 55.5931 3.616C56.2331 3.232 56.9371 3.04 57.7051 3.04C58.3985 3.04 59.0011 3.17867 59.5131 3.456C60.0358 3.72267 60.4518 4.05867 60.7611 4.464V3.184H62.6011V12H60.7611V10.688C60.4518 11.104 60.0305 11.4507 59.4971 11.728C58.9638 12.0053 58.3558 12.144 57.6731 12.144C56.9158 12.144 56.2225 11.952 55.5931 11.568C54.9638 11.1733 54.4625 10.6293 54.0891 9.936C53.7265 9.232 53.5451 8.43733 53.5451 7.552ZM60.7611 7.584C60.7611 6.976 60.6331 6.448 60.3771 6C60.1318 5.552 59.8065 5.21067 59.4011 4.976C58.9958 4.74133 58.5585 4.624 58.0891 4.624C57.6198 4.624 57.1825 4.74133 56.7771 4.976C56.3718 5.2 56.0411 5.536 55.7851 5.984C55.5398 6.42133 55.4171 6.944 55.4171 7.552C55.4171 8.16 55.5398 8.69333 55.7851 9.152C56.0411 9.61067 56.3718 9.96267 56.7771 10.208C57.1931 10.4427 57.6305 10.56 58.0891 10.56C58.5585 10.56 58.9958 10.4427 59.4011 10.208C59.8065 9.97333 60.1318 9.632 60.3771 9.184C60.6331 8.72533 60.7611 8.192 60.7611 7.584ZM66.8209 4.464C67.0875 4.016 67.4395 3.66933 67.8769 3.424C68.3249 3.168 68.8529 3.04 69.4609 3.04V4.928H68.9969C68.2822 4.928 67.7382 5.10933 67.3649 5.472C67.0022 5.83467 66.8209 6.464 66.8209 7.36V12H64.9969V3.184H66.8209V4.464ZM71.4255 0.879999H73.4095L71.7295 4.688H70.4495L71.4255 0.879999ZM78.2125 12.144C77.5192 12.144 76.8952 12.0213 76.3405 11.776C75.7965 11.52 75.3645 11.1787 75.0445 10.752C74.7245 10.3147 74.5538 9.82933 74.5325 9.296H76.4205C76.4525 9.66933 76.6285 9.984 76.9485 10.24C77.2792 10.4853 77.6898 10.608 78.1805 10.608C78.6925 10.608 79.0872 10.512 79.3645 10.32C79.6525 10.1173 79.7965 9.86133 79.7965 9.552C79.7965 9.22133 79.6365 8.976 79.3165 8.816C79.0072 8.656 78.5112 8.48 77.8285 8.288C77.1672 8.10667 76.6285 7.93067 76.2125 7.76C75.7965 7.58933 75.4338 7.328 75.1245 6.976C74.8258 6.624 74.6765 6.16 74.6765 5.584C74.6765 5.11467 74.8152 4.688 75.0925 4.304C75.3698 3.90933 75.7645 3.6 76.2765 3.376C76.7992 3.152 77.3965 3.04 78.0685 3.04C79.0712 3.04 79.8765 3.296 80.4845 3.808C81.1032 4.30933 81.4338 4.99733 81.4765 5.872H79.6525C79.6205 5.47733 79.4605 5.16267 79.1725 4.928C78.8845 4.69333 78.4952 4.576 78.0045 4.576C77.5245 4.576 77.1565 4.66667 76.9005 4.848C76.6445 5.02933 76.5165 5.26933 76.5165 5.568C76.5165 5.80267 76.6018 6 76.7725 6.16C76.9432 6.32 77.1512 6.448 77.3965 6.544C77.6418 6.62933 78.0045 6.74133 78.4845 6.88C79.1245 7.05067 79.6472 7.22667 80.0525 7.408C80.4685 7.57867 80.8258 7.83467 81.1245 8.176C81.4232 8.51733 81.5778 8.97067 81.5885 9.536C81.5885 10.0373 81.4498 10.4853 81.1725 10.88C80.8952 11.2747 80.5005 11.584 79.9885 11.808C79.4872 12.032 78.8952 12.144 78.2125 12.144ZM87.1076 6.416C87.1076 5.328 87.3583 4.352 87.8596 3.488C88.3716 2.624 89.0596 1.952 89.9236 1.472C90.7983 0.981332 91.753 0.735999 92.7876 0.735999C93.9716 0.735999 95.0223 1.02933 95.9396 1.616C96.8676 2.192 97.5396 3.01333 97.9556 4.08H95.7636C95.4756 3.49333 95.0756 3.056 94.5636 2.768C94.0516 2.48 93.4596 2.336 92.7876 2.336C92.0516 2.336 91.3956 2.50133 90.8196 2.832C90.2436 3.16267 89.7903 3.63733 89.4596 4.256C89.1396 4.87467 88.9796 5.59467 88.9796 6.416C88.9796 7.23733 89.1396 7.95733 89.4596 8.576C89.7903 9.19467 90.2436 9.67467 90.8196 10.016C91.3956 10.3467 92.0516 10.512 92.7876 10.512C93.4596 10.512 94.0516 10.368 94.5636 10.08C95.0756 9.792 95.4756 9.35467 95.7636 8.768H97.9556C97.5396 9.83467 96.8676 10.656 95.9396 11.232C95.0223 11.808 93.9716 12.096 92.7876 12.096C91.7423 12.096 90.7876 11.856 89.9236 11.376C89.0596 10.8853 88.3716 10.208 87.8596 9.344C87.3583 8.48 87.1076 7.504 87.1076 6.416ZM108.171 7.376C108.171 7.70667 108.149 8.00533 108.107 8.272H101.371C101.424 8.976 101.685 9.54133 102.155 9.968C102.624 10.3947 103.2 10.608 103.883 10.608C104.864 10.608 105.557 10.1973 105.963 9.376H107.931C107.664 10.1867 107.179 10.8533 106.475 11.376C105.781 11.888 104.917 12.144 103.883 12.144C103.04 12.144 102.283 11.9573 101.611 11.584C100.949 11.2 100.427 10.6667 100.043 9.984C99.6693 9.29067 99.4826 8.49067 99.4826 7.584C99.4826 6.67733 99.664 5.88267 100.027 5.2C100.4 4.50667 100.917 3.97333 101.579 3.6C102.251 3.22667 103.019 3.04 103.883 3.04C104.715 3.04 105.456 3.22133 106.107 3.584C106.757 3.94667 107.264 4.45867 107.627 5.12C107.989 5.77067 108.171 6.52267 108.171 7.376ZM106.267 6.8C106.256 6.128 106.016 5.58933 105.547 5.184C105.077 4.77867 104.496 4.576 103.803 4.576C103.173 4.576 102.635 4.77867 102.187 5.184C101.739 5.57867 101.472 6.11733 101.387 6.8H106.267ZM114.414 3.04C115.107 3.04 115.726 3.184 116.27 3.472C116.824 3.76 117.256 4.18667 117.566 4.752C117.875 5.31733 118.03 6 118.03 6.8V12H116.222V7.072C116.222 6.28267 116.024 5.68 115.63 5.264C115.235 4.83733 114.696 4.624 114.014 4.624C113.331 4.624 112.787 4.83733 112.382 5.264C111.987 5.68 111.79 6.28267 111.79 7.072V12H109.966V3.184H111.79V4.192C112.088 3.82933 112.467 3.54667 112.926 3.344C113.395 3.14133 113.891 3.04 114.414 3.04ZM122.484 4.672V9.552C122.484 9.88267 122.559 10.1227 122.708 10.272C122.868 10.4107 123.135 10.48 123.508 10.48H124.628V12H123.188C122.367 12 121.738 11.808 121.3 11.424C120.863 11.04 120.644 10.416 120.644 9.552V4.672H119.604V3.184H120.644V0.992H122.484V3.184H124.628V4.672H122.484ZM134.389 7.376C134.389 7.70667 134.368 8.00533 134.325 8.272H127.589C127.643 8.976 127.904 9.54133 128.373 9.968C128.843 10.3947 129.419 10.608 130.101 10.608C131.083 10.608 131.776 10.1973 132.181 9.376H134.149C133.883 10.1867 133.397 10.8533 132.693 11.376C132 11.888 131.136 12.144 130.101 12.144C129.259 12.144 128.501 11.9573 127.829 11.584C127.168 11.2 126.645 10.6667 126.261 9.984C125.888 9.29067 125.701 8.49067 125.701 7.584C125.701 6.67733 125.883 5.88267 126.245 5.2C126.619 4.50667 127.136 3.97333 127.797 3.6C128.469 3.22667 129.237 3.04 130.101 3.04C130.933 3.04 131.675 3.22133 132.325 3.584C132.976 3.94667 133.483 4.45867 133.845 5.12C134.208 5.77067 134.389 6.52267 134.389 7.376ZM132.485 6.8C132.475 6.128 132.235 5.58933 131.765 5.184C131.296 4.77867 130.715 4.576 130.021 4.576C129.392 4.576 128.853 4.77867 128.405 5.184C127.957 5.57867 127.691 6.11733 127.605 6.8H132.485ZM138.008 4.464C138.275 4.016 138.627 3.66933 139.064 3.424C139.512 3.168 140.04 3.04 140.648 3.04V4.928H140.184C139.47 4.928 138.926 5.10933 138.552 5.472C138.19 5.83467 138.008 6.464 138.008 7.36V12H136.184V3.184H138.008V4.464Z" fill="#393939"/>
</svg>
